<svg xmlns="http://www.w3.org/2000/svg" viewBox="0 0 509.97 66.23"><defs><style>.cls-1{fill:#007297;}.cls-2{fill:#333e48;}</style></defs><title>PHC-logo</title><g id="Layer_1" data-name="Layer 1"><path class="cls-1" d="M145.93,35.22a2.94,2.94,0,0,1,1.43.38,2.73,2.73,0,0,1,1.1,1.07,2.93,2.93,0,0,1,.4,1.48,2.92,2.92,0,0,1-4.39,2.53,2.88,2.88,0,0,1-1.08-1.07,2.94,2.94,0,0,1,0-2.94,2.83,2.83,0,0,1,1.08-1.07,2.93,2.93,0,0,1,1.44-.38m0,.46a2.45,2.45,0,0,0-1.21.32,2.38,2.38,0,0,0-.92.9,2.41,2.41,0,0,0-.34,1.24,2.45,2.45,0,0,0,.33,1.24,2.47,2.47,0,0,0,4.61-1.24,2.45,2.45,0,0,0-.34-1.25,2.33,2.33,0,0,0-.92-.91,2.48,2.48,0,0,0-1.2-.31m-1.35,3.92v-.16h.06a.53.53,0,0,0,.2,0,.14.14,0,0,0,.08-.07.61.61,0,0,0,0-.18V36.9a.71.71,0,0,0,0-.22.15.15,0,0,0-.07-.09l-.19,0h-.08V36.4H146a1.67,1.67,0,0,1,.67.11.66.66,0,0,1,.33.31.92.92,0,0,1,.1.39.73.73,0,0,1-.08.33.77.77,0,0,1-.24.3,1.37,1.37,0,0,1-.5.2.72.72,0,0,1,.2.09.77.77,0,0,1,.15.15.84.84,0,0,1,.13.19,2.61,2.61,0,0,1,.16.3c.09.18.16.32.22.43a.79.79,0,0,0,.15.2.32.32,0,0,0,.17,0v.16H147a.5.5,0,0,1-.3-.07,3.06,3.06,0,0,1-.35-.67c-.1-.23-.17-.39-.22-.48a.62.62,0,0,0-.15-.18.53.53,0,0,0-.25-.05h-.19v1a.57.57,0,0,0,0,.22.11.11,0,0,0,.08.07l.25,0v.16Zm.94-1.66h.21a.74.74,0,0,0,.64-.22.84.84,0,0,0,.15-.49.65.65,0,0,0-.17-.48.62.62,0,0,0-.46-.17h-.17l-.13,0a.18.18,0,0,0,0,.06.24.24,0,0,0,0,.1Z"/><path class="cls-2" d="M178.61,50.93a3,3,0,0,0,.63,1.09,1.13,1.13,0,0,0,.67.21v.37c-.54,0-1.08-.06-1.63-.06s-1.09,0-1.62.06v-.37a2.08,2.08,0,0,0,.91-.17c.17-.08.18-.28.09-.5l-.75-1.79h-3.47a14,14,0,0,0-.82,2.05c0,.4.6.34,1,.4v.37c-.47,0-.93-.06-1.41-.06s-.94,0-1.41.06v-.37c.68-.13.77,0,1.06-.66l.6-1.26,1.65-3.69c.39-.87.79-1.76,1.12-2.64h.39Zm-1.92-1.68-1.53-3.65-1.53,3.65Z"/><path class="cls-2" d="M188.3,51.33V45.25c0-.71-.22-.82-1-.82h-.2v-.37c.49,0,1,.06,1.47.06s1,0,1.46-.06v.37h-.2c-.77,0-1,.11-1,.82v7.08l0,.46-1-.17L182,45.44v6c0,.71.23.82,1,.82h.2v.37c-.48,0-1-.06-1.45-.06s-1,0-1.47.06v-.37h.2c.75,0,1-.11,1-.82V45.25c0-.71-.19-.82-.87-.83h-.17v-.37a9,9,0,0,0,2.11,0Z"/><path class="cls-2" d="M191.72,45.66c0-1.15-.11-1.22-1.08-1.23v-.38c.79,0,1.56.06,2.37.06s1.59,0,2.37-.06c2.28,0,4.14,1.39,4.14,3.76a4.68,4.68,0,0,1-5.2,4.79c-.54,0-1.08-.06-1.63-.06s-1.09,0-1.63.06v-.37c.44-.09.65-.21.65-.73Zm1.15,5.27a7.53,7.53,0,0,0,0,1,10.64,10.64,0,0,0,1.15.08c3.12.08,4.17-1.65,4.17-3.89,0-2.58-1.59-3.57-3.69-3.57-.54,0-1.08.05-1.63.07a8,8,0,0,0,0,1Z"/><path class="cls-2" d="M208.43,52.69h-.25l-3.41-7.17V51.4c0,.71.23.82,1,.82h.2v.37c-.48,0-1-.06-1.46-.06s-1,0-1.47.06v-.37h.2c.75,0,1-.11,1-.82V45.25c0-.71-.22-.82-1-.82h-.2v-.37c.38,0,.77.06,1.16.06a11.54,11.54,0,0,0,1.16-.06l3.23,6.81,2.52-5.18a10.75,10.75,0,0,0,.66-1.63,11.6,11.6,0,0,0,1.16.06c.39,0,.78,0,1.16-.06v.37h-.18c-.73,0-1,.12-1,.83v5.88c0,1,0,1,1.16,1.1v.37c-.59,0-1.16-.06-1.76-.06s-1.17,0-1.72.06v-.37c1.17-.06,1.16-.15,1.16-1.1V45.52Z"/><path class="cls-2" d="M222.37,50.93A3,3,0,0,0,223,52a1.12,1.12,0,0,0,.67.21v.37c-.54,0-1.08-.06-1.63-.06s-1.09,0-1.63.06v-.37a2.08,2.08,0,0,0,.91-.17c.17-.08.18-.28.09-.5l-.75-1.79H217.2a14.53,14.53,0,0,0-.82,2.05c0,.4.6.34,1,.4v.37c-.47,0-.93-.06-1.41-.06s-.94,0-1.4.06v-.37c.68-.13.77,0,1.06-.66l.6-1.26,1.65-3.69c.39-.87.79-1.76,1.11-2.64h.39Zm-1.92-1.68-1.53-3.65-1.53,3.65Z"/><path class="cls-2" d="M229,46.11a2.09,2.09,0,0,0-.12-1,2.26,2.26,0,0,0-1.77-.7,1.77,1.77,0,0,0-1.86,1.75c0,2.65,4.87.45,4.87,3.52,0,2.09-1.87,3.1-3.69,3.1a5.37,5.37,0,0,1-2.09-.47c0-.46.07-1.05.08-1.53v-.34h.42V51a.83.83,0,0,0,.17.64,3,3,0,0,0,1.89.56A2,2,0,0,0,229,50.36c0-3-4.84-.19-4.84-3.75a2.82,2.82,0,0,1,3-2.74,6.62,6.62,0,0,1,2.37.57,4.35,4.35,0,0,0-.1.59c0,.36-.07.72-.09,1.09Z"/><path class="cls-2" d="M235.4,46.11a2,2,0,0,0-.13-1,2.25,2.25,0,0,0-1.77-.7,1.77,1.77,0,0,0-1.86,1.75c0,2.65,4.87.45,4.87,3.52,0,2.09-1.87,3.1-3.7,3.1a5.34,5.34,0,0,1-2.09-.47c0-.46.07-1.05.08-1.53v-.34h.42V51a.86.86,0,0,0,.17.64,3,3,0,0,0,1.9.56,2,2,0,0,0,2.18-1.86c0-3-4.84-.19-4.84-3.75a2.82,2.82,0,0,1,3-2.74,6.59,6.59,0,0,1,2.37.57,5.1,5.1,0,0,0-.1.59c0,.36-.07.72-.08,1.09Z"/><path class="cls-2" d="M244.72,50.93a3,3,0,0,0,.63,1.09,1.13,1.13,0,0,0,.67.21v.37c-.54,0-1.08-.06-1.63-.06s-1.09,0-1.62.06v-.37a2.09,2.09,0,0,0,.92-.17c.17-.08.18-.28.09-.5L243,49.77h-3.47a14.12,14.12,0,0,0-.82,2.05c0,.4.6.34,1,.4v.37c-.46,0-.93-.06-1.41-.06s-.94,0-1.4.06v-.37c.68-.13.77,0,1.07-.66l.6-1.26,1.65-3.69c.39-.87.79-1.76,1.11-2.64h.39Zm-1.92-1.68-1.53-3.65-1.53,3.65Z"/><path class="cls-2" d="M254.27,52.06a6.54,6.54,0,0,1-2.77.73c-2.7,0-5-1.6-5-4.49a4.44,4.44,0,0,1,4.71-4.43,11.72,11.72,0,0,1,3.18.55c-.12.61-.19,1.22-.27,1.83h-.35c0-.78.16-1.06-.56-1.41a4.23,4.23,0,0,0-2-.46A3.34,3.34,0,0,0,247.88,48a3.86,3.86,0,0,0,4,4.13,4.49,4.49,0,0,0,2.48-.77l.11.12Z"/><path class="cls-2" d="M263.65,51.13c0,1,0,1,1.16,1.1v.37c-.58,0-1.16-.06-1.76-.06s-1.17,0-1.72.06v-.37c1.18-.06,1.16-.15,1.16-1.1V48.29h-4.89v2.83c0,1,0,1,1.16,1.1v.37c-.59,0-1.16-.06-1.76-.06s-1.17,0-1.72.06v-.37c1.17-.06,1.16-.15,1.16-1.1V45.52c0-1,0-1-1.16-1.1v-.37c.55,0,1.12.06,1.72.06s1.17,0,1.76-.06v.37c-1.17.06-1.16.15-1.16,1.1v2.26h4.89V45.52c0-1,0-1-1.16-1.1v-.37c.55,0,1.13.06,1.72.06s1.18,0,1.76-.06v.37c-1.17.06-1.16.15-1.16,1.1Z"/><path class="cls-2" d="M267.65,49.78c-.07,1.74.91,2.24,2.51,2.24a2.47,2.47,0,0,0,2.08-.85,3.58,3.58,0,0,0,.49-2V45.25c0-.71-.22-.82-1-.82h-.2v-.37c.49,0,1,.06,1.46.06s1,0,1.46-.06v.37h-.2c-.77,0-1,.11-1,.82v4.51a3.14,3.14,0,0,1-.54,1.79,2.74,2.74,0,0,1-1.27,1,5.84,5.84,0,0,1-1.65.26c-1.12,0-2.45-.17-3-1.26a2.91,2.91,0,0,1-.3-1.6v-4.4c0-1,0-1-1.16-1.1v-.37c.55,0,1.12.06,1.72.06s1.18,0,1.76-.06v.37c-1.18.06-1.16.15-1.16,1.1Z"/><path class="cls-2" d="M279.68,46.11a2.12,2.12,0,0,0-.12-1,2.27,2.27,0,0,0-1.78-.7,1.77,1.77,0,0,0-1.86,1.75c0,2.65,4.87.45,4.87,3.52,0,2.09-1.87,3.1-3.69,3.1a5.34,5.34,0,0,1-2.09-.47c.05-.46.07-1.05.08-1.53v-.34h.41V51a.84.84,0,0,0,.17.64,3,3,0,0,0,1.9.56,2,2,0,0,0,2.18-1.86c0-3-4.84-.19-4.84-3.75a2.82,2.82,0,0,1,3-2.74,6.58,6.58,0,0,1,2.37.57,4.49,4.49,0,0,0-.09.59c0,.36-.07.72-.09,1.09Z"/><path class="cls-2" d="M283.71,50.92a6.71,6.71,0,0,0,.05,1.05,15.22,15.22,0,0,0,1.66.06,7.13,7.13,0,0,0,2-.21,3.26,3.26,0,0,0,.15-.62l.11-.67h.4a5.37,5.37,0,0,0-.12,1v1c-.45.06-1.27,0-2,.06s-1.45-.06-2.19-.06-1.47,0-2.22.06v-.37a1,1,0,0,0,1-1.1V45.52c0-1,0-1-1.16-1.1v-.37c.74,0,1.48.06,2.24.06s1.51,0,2.24-.06,1.61,0,2,.06a4.09,4.09,0,0,0-.19,1.19c0,.26,0,.46,0,.72h-.37a6.51,6.51,0,0,0-.17-1.2,6.12,6.12,0,0,0-1.82-.21,11,11,0,0,0-1.52.06,6.12,6.12,0,0,0-.05,1V48c2.66,0,2.83.17,2.85-1h.4v2.83h-.4c0-1.38-.09-1.31-2.85-1.21Z"/><path class="cls-2" d="M291.69,45.9c0-.46,0-.86-.05-1.22l-1.89.06c-.25,0-.4.05-.43.37a7,7,0,0,0-.14.94h-.36c0-.23,0-.45,0-.69,0-.43,0-.85-.06-1.31,1.16,0,2.32.06,3.52.06s2.35,0,3.54-.06c0,.45,0,.88-.06,1.31,0,.23,0,.45,0,.69h-.37a7.83,7.83,0,0,0-.13-.94c0-.31-.17-.36-.43-.37l-1.91-.06c0,.36,0,.76,0,1.22v5.23c0,1,0,1,1.16,1.1v.37c-.58,0-1.16-.06-1.76-.06s-1.17,0-1.72.06v-.37c1.17-.06,1.16-.15,1.16-1.1Z"/><path class="cls-2" d="M299.19,45.9c0-.46,0-.86-.05-1.22l-1.89.06c-.25,0-.4.05-.43.37a6.66,6.66,0,0,0-.13.94h-.37c0-.23,0-.45,0-.69,0-.43,0-.85-.06-1.31,1.16,0,2.32.06,3.52.06s2.35,0,3.54-.06c0,.45,0,.88-.06,1.31,0,.23,0,.45,0,.69h-.37a7.69,7.69,0,0,0-.13-.94c0-.31-.17-.36-.43-.37l-1.91-.06c0,.36,0,.76,0,1.22v5.23c0,1,0,1,1.16,1.1v.37c-.59,0-1.16-.06-1.76-.06s-1.18,0-1.73.06v-.37c1.17-.06,1.17-.15,1.17-1.1Z"/><path class="cls-2" d="M308.56,46.11a2.17,2.17,0,0,0-.12-1,2.25,2.25,0,0,0-1.77-.7,1.77,1.77,0,0,0-1.86,1.75c0,2.65,4.87.45,4.87,3.52,0,2.09-1.87,3.1-3.69,3.1a5.34,5.34,0,0,1-2.09-.47c0-.46.07-1.05.08-1.53v-.34h.42V51a.86.86,0,0,0,.17.64,3,3,0,0,0,1.9.56,2,2,0,0,0,2.17-1.86c0-3-4.85-.19-4.85-3.75a2.82,2.82,0,0,1,3-2.74,6.64,6.64,0,0,1,2.38.57,3.48,3.48,0,0,0-.1.59c0,.36-.08.72-.09,1.09Z"/><path class="cls-2" d="M321.84,49.23v.31c-.6.09-.49.7-.46,1.48l0,1.15-.57.16a10.43,10.43,0,0,1-2.67.47c-2.72,0-4.93-1.42-4.93-4.44,0-2.78,2.08-4.48,5-4.48a11.73,11.73,0,0,1,3.18.55c-.13.61-.2,1.22-.27,1.83h-.35c0-.78.16-1.06-.57-1.41a4.17,4.17,0,0,0-2-.46,3.46,3.46,0,0,0-3.73,3.68c0,2.46,1.41,4.2,3.93,4.2.94,0,1.63-.18,1.72-.49a9.13,9.13,0,0,0,0-1.89c0-.26-.52-.25-1.39-.28v-.37Z"/><path class="cls-2" d="M325,50.92A6.48,6.48,0,0,0,325,52a15.06,15.06,0,0,0,1.66.06,7.14,7.14,0,0,0,2-.21,2.81,2.81,0,0,0,.14-.62l.11-.67h.4a5.18,5.18,0,0,0-.12,1v1c-.45.06-1.28,0-2,.06s-1.45-.06-2.2-.06-1.47,0-2.22.06v-.37a1,1,0,0,0,1.05-1.1V45.52c0-1,0-1-1.16-1.1v-.37c.75,0,1.48.06,2.24.06s1.51,0,2.24-.06,1.62,0,2,.06a4.21,4.21,0,0,0-.2,1.19c0,.26,0,.46,0,.72h-.37a5.75,5.75,0,0,0-.17-1.2,6.12,6.12,0,0,0-1.82-.21,10.92,10.92,0,0,0-1.51.06,5.9,5.9,0,0,0-.06,1V48c2.66,0,2.83.17,2.84-1h.41v2.83h-.41c0-1.38-.08-1.31-2.84-1.21Z"/><path class="cls-2" d="M337.93,51.33V45.25c0-.71-.22-.82-1-.82h-.19v-.37c.49,0,1,.06,1.47.06s1,0,1.46-.06v.37h-.2c-.77,0-1,.11-1,.82v7.08l0,.46-1-.17-5.91-7.18v6c0,.71.23.82,1,.82h.2v.37c-.48,0-1-.06-1.46-.06s-1,0-1.46.06v-.37h.19c.75,0,1-.11,1-.82V45.25c0-.71-.2-.82-.88-.83H330v-.37a10.15,10.15,0,0,0,1.07.06,10,10,0,0,0,1.05-.06Z"/><path class="cls-2" d="M342.6,50.92a6.25,6.25,0,0,0,.06,1.05,15.21,15.21,0,0,0,1.66.06,7.13,7.13,0,0,0,2-.21,3,3,0,0,0,.15-.62l.11-.67h.4a5,5,0,0,0-.12,1v1c-.45.06-1.27,0-2,.06s-1.46-.06-2.21-.06-1.47,0-2.21.06v-.37a1,1,0,0,0,1.05-1.1V45.52c0-1,0-1-1.16-1.1v-.37c.74,0,1.48.06,2.24.06s1.5,0,2.23-.06,1.62,0,2,.06a4,4,0,0,0-.19,1.19c0,.26,0,.46,0,.72h-.38a5.7,5.7,0,0,0-.17-1.2,6.1,6.1,0,0,0-1.82-.21,10.92,10.92,0,0,0-1.52.06,5.69,5.69,0,0,0-.06,1V48c2.67,0,2.84.17,2.85-1h.4v2.83h-.4c0-1.38-.08-1.31-2.85-1.21Z"/><path class="cls-2" d="M348.91,45.52c0-1,0-1-1.16-1.1v-.37c.68,0,1.39.06,2.11.06s1.44,0,2.14-.06c1.69-.08,2.47.83,2.47,1.86a2.62,2.62,0,0,1-2.38,2.36l2.77,3.62a1,1,0,0,0,.7.34v.37a5.82,5.82,0,0,0-.83-.06,6,6,0,0,0-.83.06c-.19-.26-.33-.48-.5-.68l-2.91-3.74.05-.18a5,5,0,0,0,1.12-.05,1.81,1.81,0,0,0,1.59-1.71,1.66,1.66,0,0,0-1.89-1.72,4.59,4.59,0,0,0-1.22.16,2.62,2.62,0,0,0-.07.84v5.61c0,1,0,1,1.16,1.1v.37c-.59,0-1.16-.06-1.76-.06s-1.17,0-1.72.06v-.37c1.18-.06,1.16-.15,1.16-1.1Z"/><path class="cls-2" d="M363.55,50.93a3,3,0,0,0,.62,1.09,1.14,1.14,0,0,0,.67.21v.37c-.54,0-1.07-.06-1.62-.06s-1.09,0-1.63.06v-.37a2.11,2.11,0,0,0,.92-.17c.17-.08.18-.28.08-.5l-.75-1.79h-3.47a14.59,14.59,0,0,0-.82,2.05c0,.4.6.34,1,.4v.37c-.47,0-.93-.06-1.41-.06s-.94,0-1.41.06v-.37c.69-.13.78,0,1.07-.66l.6-1.26,1.65-3.69c.39-.87.8-1.76,1.12-2.64h.39Zm-1.92-1.68L360.1,45.6l-1.53,3.65Z"/><path class="cls-2" d="M367.76,51.52l0,.46c.51.05,1.14.05,1.73.05a7.17,7.17,0,0,0,2-.2,3.23,3.23,0,0,0,.12-.4l.28-1,.4,0c0,.17-.08.49-.13.82L372,52.54c-.4.06-1.18,0-1.9.06s-1.38-.06-2.09-.06-1.39,0-2.1.06v-.37c.58-.1.66-.46.66-1.43V45.52c0-1,0-1-1.16-1.1V44c.54,0,1.12.06,1.72.06s1.18,0,1.76-.06v.37c-1.18.06-1.16.15-1.16,1.1Z"/><path class="cls-2" d="M384.33,51.13c0,1,0,1,1.17,1.1v.37c-.59,0-1.17-.06-1.77-.06s-1.17,0-1.72.06v-.37c1.17-.06,1.16-.15,1.16-1.1V48.29h-4.89v2.83c0,1,0,1,1.16,1.1v.37c-.58,0-1.16-.06-1.76-.06s-1.17,0-1.72.06v-.37c1.18-.06,1.16-.15,1.16-1.1V45.52c0-1,0-1-1.16-1.1v-.37c.55,0,1.12.06,1.72.06s1.18,0,1.76-.06v.37c-1.17.06-1.16.15-1.16,1.1v2.26h4.89V45.52c0-1,0-1-1.16-1.1v-.37c.55,0,1.12.06,1.72.06s1.18,0,1.77-.06v.37c-1.18.06-1.17.15-1.17,1.1Z"/><path class="cls-2" d="M395.16,48a4.69,4.69,0,0,1-4.74,4.74,4.2,4.2,0,0,1-4.33-4.5,4.28,4.28,0,0,1,4.6-4.42c2.62,0,4.48,1.47,4.48,4.18m-1.31.38c0-2.42-1.09-4-3.36-4-2.13,0-3.09,1.48-3.09,3.49s1,4.38,3.42,4.38c2-.13,3-1.58,3-3.83"/><path class="cls-2" d="M400.46,46.11a2,2,0,0,0-.13-1,2.25,2.25,0,0,0-1.77-.7,1.77,1.77,0,0,0-1.86,1.75c0,2.65,4.87.45,4.87,3.52,0,2.09-1.87,3.1-3.69,3.1a5.35,5.35,0,0,1-2.09-.47c0-.46.07-1.05.09-1.53v-.34h.41V51a.84.84,0,0,0,.17.64,3,3,0,0,0,1.9.56,2,2,0,0,0,2.17-1.86c0-3-4.84-.19-4.84-3.75a2.82,2.82,0,0,1,3-2.74,6.57,6.57,0,0,1,2.37.57A4.86,4.86,0,0,0,401,45c0,.36-.08.72-.09,1.09Z"/><path class="cls-2" d="M403.32,45.52c0-1,0-1-1.16-1.1v-.37c.7,0,1.41.06,2.15.06s1.44,0,2.14-.06c1.18,0,2.53.52,2.53,1.9a3,3,0,0,1-3.64,2.52L405.2,48a4.15,4.15,0,0,0,.79.11,1.7,1.7,0,0,0,1.78-1.76c0-1.27-.78-1.86-2-1.86a6.59,6.59,0,0,0-1.21.17,2.84,2.84,0,0,0-.07.84v5.61c0,1,0,1,1.16,1.1v.37c-.59,0-1.16-.06-1.76-.06s-1.17,0-1.72.06v-.37c1.17-.06,1.16-.15,1.16-1.1Z"/><path class="cls-2" d="M411.87,51.13c0,1,0,1,1.16,1.1v.37c-.58,0-1.16-.06-1.76-.06s-1.18,0-1.73.06v-.37c1.17-.06,1.16-.15,1.16-1.1V45.52c0-1,0-1-1.16-1.1v-.37c.55,0,1.12.06,1.73.06s1.18,0,1.76-.06v.37c-1.17.06-1.16.15-1.16,1.1Z"/><path class="cls-2" d="M416.5,45.9c0-.46,0-.86,0-1.22l-1.88.06c-.26,0-.4.05-.43.37A7.67,7.67,0,0,0,414,46h-.37c0-.23,0-.45,0-.69,0-.43,0-.85-.06-1.31,1.16,0,2.32.06,3.52.06s2.35,0,3.53-.06c0,.45,0,.88-.06,1.31,0,.23,0,.45,0,.69h-.37a6.66,6.66,0,0,0-.13-.94c0-.31-.17-.36-.43-.37l-1.91-.06c0,.36,0,.76,0,1.22v5.23c0,1,0,1,1.16,1.1v.37c-.59,0-1.16-.06-1.76-.06s-1.18,0-1.73.06v-.37c1.18-.06,1.16-.15,1.16-1.1Z"/><path class="cls-2" d="M428.8,50.93a2.91,2.91,0,0,0,.62,1.09,1.12,1.12,0,0,0,.67.21v.37c-.54,0-1.08-.06-1.62-.06s-1.09,0-1.63.06v-.37a2.1,2.1,0,0,0,.92-.17c.17-.08.18-.28.08-.5l-.74-1.79h-3.48a14.21,14.21,0,0,0-.82,2.05c0,.4.6.34,1,.4v.37c-.46,0-.93-.06-1.41-.06s-.93,0-1.41.06v-.37c.68-.13.77,0,1.07-.66l.6-1.26,1.65-3.69c.39-.87.79-1.76,1.11-2.64h.39Zm-1.92-1.68-1.53-3.65-1.53,3.65Z"/><path class="cls-2" d="M433,51.52l0,.46a17.15,17.15,0,0,0,1.72.05,7.24,7.24,0,0,0,2-.2,2.48,2.48,0,0,0,.12-.4l.28-1,.39,0c0,.17-.07.49-.12.82l-.13,1.28c-.39.06-1.18,0-1.9.06s-1.38-.06-2.09-.06-1.4,0-2.1.06v-.37c.57-.1.66-.46.66-1.43V45.52c0-1,0-1-1.16-1.1V44c.55,0,1.12.06,1.72.06s1.18,0,1.76-.06v.37c-1.18.06-1.16.15-1.16,1.1Z"/><path class="cls-2" d="M172.51,29.53c0-1,0-1-1.16-1.1v-.37c.74,0,1.48.06,2.23.06s1.51,0,2.24-.06,1.61,0,2,.06a4.06,4.06,0,0,0-.2,1.19c0,.26,0,.46,0,.72h-.38a6,6,0,0,0-.17-1.2,6.29,6.29,0,0,0-1.82-.2,11.64,11.64,0,0,0-1.51.06,4.12,4.12,0,0,0-.06.8V32c2.67,0,2.84.17,2.85-1h.4v2.83h-.4c0-1.39-.08-1.31-2.85-1.21v2.57c0,1,0,1,1.16,1.1v.37c-.59,0-1.16-.06-1.76-.06s-1.17,0-1.72.06v-.37c1.17-.06,1.16-.14,1.16-1.1Z"/><path class="cls-2" d="M187.17,32.06a4.68,4.68,0,0,1-4.73,4.73,4.19,4.19,0,0,1-4.34-4.5,4.28,4.28,0,0,1,4.59-4.41c2.62,0,4.48,1.47,4.48,4.19m-1.31.38c0-2.42-1.09-4-3.36-4s-3.09,1.48-3.09,3.48,1,4.38,3.43,4.38c2-.14,3-1.58,3-3.83"/><path class="cls-2" d="M190,33.79c-.08,1.73.9,2.24,2.51,2.24a2.49,2.49,0,0,0,2.08-.84,3.65,3.65,0,0,0,.48-2V29.26c0-.71-.22-.82-1-.82h-.2v-.37c.49,0,1,.06,1.47.06s1,0,1.46-.06v.37h-.19c-.77,0-1,.11-1,.82v4.51a3.11,3.11,0,0,1-.54,1.79,2.76,2.76,0,0,1-1.27,1,5.76,5.76,0,0,1-1.65.26c-1.11,0-2.45-.17-3-1.26a2.88,2.88,0,0,1-.31-1.6v-4.4c0-1,0-1-1.16-1.1v-.37c.55,0,1.13.06,1.72.06s1.17,0,1.76-.06v.37c-1.17.06-1.16.15-1.16,1.1Z"/><path class="cls-2" d="M205.09,35.33V29.26c0-.71-.22-.82-1-.82h-.19v-.37c.49,0,1,.06,1.47.06s1,0,1.45-.06v.37h-.2c-.77,0-1,.11-1,.82v7.08l0,.45-1-.17-5.91-7.18v6c0,.71.23.82,1,.82H200v.37c-.48,0-1-.06-1.45-.06s-1,0-1.47.06v-.37h.19c.75,0,1-.11,1-.82V29.26c0-.71-.19-.82-.88-.83h-.17v-.37c.35,0,.7.06,1.06.06s.7,0,1.05-.06Z"/><path class="cls-2" d="M208.5,29.67c0-1.15-.11-1.22-1.07-1.24v-.38c.78,0,1.57.06,2.37.06s1.59,0,2.37-.06c2.27,0,4.13,1.38,4.13,3.75a4.68,4.68,0,0,1-5.2,4.79c-.54,0-1.08-.06-1.63-.06s-1.09,0-1.63.06v-.37c.45-.08.65-.21.65-.73Zm1.15,5.26a6.88,6.88,0,0,0,.05,1,10.14,10.14,0,0,0,1.15.08c3.12.09,4.17-1.65,4.17-3.89,0-2.58-1.58-3.57-3.69-3.57-.54,0-1.08.05-1.62.07a7.64,7.64,0,0,0-.05,1Z"/><path class="cls-2" d="M219.22,34.93a6.35,6.35,0,0,0,.06,1.05,14.21,14.21,0,0,0,1.66.06,7.19,7.19,0,0,0,2-.21,3,3,0,0,0,.15-.62l.11-.67h.4a4.79,4.79,0,0,0-.12,1v1c-.45.06-1.28,0-2,.06s-1.46-.06-2.2-.06-1.47,0-2.21.06v-.37a1,1,0,0,0,1.05-1.1V29.53c0-1,0-1-1.16-1.1v-.37c.75,0,1.48.06,2.24.06s1.5,0,2.24-.06,1.61,0,2,.06a4,4,0,0,0-.2,1.19c0,.26,0,.47,0,.72h-.38a5.4,5.4,0,0,0-.17-1.2,6.24,6.24,0,0,0-1.82-.2,11.72,11.72,0,0,0-1.52.06,5.84,5.84,0,0,0-.06,1V32c2.66,0,2.84.17,2.85-1h.4v2.83h-.4c0-1.38-.09-1.31-2.85-1.21Z"/><path class="cls-2" d="M225.43,29.67c0-1.15-.11-1.22-1.08-1.24v-.38c.78,0,1.57.06,2.37.06s1.59,0,2.37-.06c2.28,0,4.14,1.38,4.14,3.75a4.68,4.68,0,0,1-5.2,4.79c-.54,0-1.08-.06-1.63-.06s-1.09,0-1.62.06v-.37c.44-.08.65-.21.65-.73Zm1.15,5.26a7,7,0,0,0,0,1,10.17,10.17,0,0,0,1.14.08c3.12.09,4.18-1.65,4.18-3.89,0-2.58-1.59-3.57-3.7-3.57-.54,0-1.08.05-1.62.07a7.49,7.49,0,0,0,0,1Z"/><path class="cls-2" d="M238,29.53c0-1-.22-1.08-1.08-1.1v-.37c.68,0,1.38.06,2.07.06s1.4,0,2.08-.06c1.14,0,2.17.42,2.17,1.71a2.24,2.24,0,0,1-2,2c1.25.05,2.46.56,2.46,2a3.16,3.16,0,0,1-3.6,2.84c-.44,0-.88-.06-1.32-.06s-.9,0-1.34.06v-.37c.52-.13.59-.4.59-.86Zm1.16,2.08a6.87,6.87,0,0,0,.86,0c1.07,0,2-.43,2-1.64s-.82-1.47-1.85-1.47a3.09,3.09,0,0,0-1,.14,5.43,5.43,0,0,0-.06.9Zm0,4.38a6.31,6.31,0,0,0,1.1.11A2,2,0,0,0,242.36,34c0-1.35-.86-1.87-2.42-1.87h-.82Z"/><path class="cls-2" d="M248.48,32.38l1.26-2c.47-.79.92-1.54,1.32-2.32h1v.18a24.58,24.58,0,0,0-3,4.34,2.08,2.08,0,0,0-.17.91v1.64c0,1,0,1,1.16,1.1v.37c-.59,0-1.16-.06-1.76-.06s-1.17,0-1.73.06v-.37c1.18-.06,1.16-.14,1.16-1.1v-1.8a.92.92,0,0,0-.06-.38l-1.47-2.56c-.4-.7-1.15-1.9-2-1.8v-.35l1.29-.26c.35-.06.54.15.75.4s.36.51.54.79Z"/><path class="cls-2" d="M256.65,29.53c0-1-.22-1.08-1.08-1.1v-.37c.68,0,1.39.06,2.08.06s1.39,0,2.08-.06c1.14,0,2.17.42,2.17,1.71a2.24,2.24,0,0,1-2,2c1.25.05,2.46.56,2.46,2a3.16,3.16,0,0,1-3.59,2.84c-.44,0-.88-.06-1.32-.06s-.9,0-1.33.06v-.37c.51-.13.59-.4.59-.86Zm1.16,2.08a7,7,0,0,0,.87,0c1.06,0,2-.43,2-1.64s-.82-1.47-1.85-1.47a3.08,3.08,0,0,0-1,.14,5,5,0,0,0-.06.9Zm0,4.38a6.42,6.42,0,0,0,1.1.11A2,2,0,0,0,261,34c0-1.35-.86-1.87-2.42-1.87h-.82Z"/><path class="cls-2" d="M264.2,29.53c0-1,0-1-1.16-1.1v-.37c.68,0,1.4.06,2.11.06s1.43,0,2.14-.06c1.69-.09,2.47.83,2.47,1.86a2.62,2.62,0,0,1-2.38,2.36l2.78,3.62a1,1,0,0,0,.69.34v.37a5.82,5.82,0,0,0-.83-.06,6,6,0,0,0-.83.06c-.19-.26-.33-.48-.5-.68l-2.91-3.74,0-.19a4.61,4.61,0,0,0,1.12,0,1.8,1.8,0,0,0,1.59-1.71,1.65,1.65,0,0,0-1.88-1.71,4.59,4.59,0,0,0-1.22.16,2.75,2.75,0,0,0-.07.84v5.61c0,1,0,1,1.16,1.1v.37c-.58,0-1.16-.06-1.76-.06s-1.18,0-1.72.06v-.37c1.17-.06,1.16-.14,1.16-1.1Z"/><path class="cls-2" d="M273.53,35.14c0,1,0,1,1.16,1.1v.37c-.59,0-1.16-.06-1.76-.06s-1.18,0-1.73.06v-.37c1.18-.06,1.16-.14,1.16-1.1V29.53c0-1,0-1-1.16-1.1v-.37c.55,0,1.13.06,1.73.06s1.17,0,1.76-.06v.37c-1.18.06-1.16.15-1.16,1.1Z"/><path class="cls-2" d="M283.85,33.23v.31c-.6.09-.49.7-.45,1.48l0,1.15-.57.16a10.45,10.45,0,0,1-2.66.46c-2.74,0-4.93-1.42-4.93-4.44,0-2.78,2.08-4.48,5-4.48a11.83,11.83,0,0,1,3.18.55c-.12.61-.2,1.22-.27,1.83h-.35c0-.78.16-1.06-.56-1.42a4.22,4.22,0,0,0-2-.45,3.46,3.46,0,0,0-3.73,3.68c0,2.46,1.42,4.19,3.94,4.19.94,0,1.63-.18,1.72-.49a8.56,8.56,0,0,0,0-1.9c0-.25-.53-.24-1.39-.28v-.37Z"/><path class="cls-2" d="M293,35.14c0,1,0,1,1.16,1.1v.37c-.59,0-1.16-.06-1.76-.06s-1.17,0-1.72.06v-.37c1.17-.06,1.16-.14,1.16-1.1V32.3H287v2.84c0,1,0,1,1.16,1.1v.37c-.59,0-1.16-.06-1.76-.06s-1.18,0-1.72.06v-.37c1.17-.06,1.16-.14,1.16-1.1V29.53c0-1,0-1-1.16-1.1v-.37c.54,0,1.13.06,1.72.06s1.17,0,1.76-.06v.37c-1.17.06-1.16.15-1.16,1.1v2.26h4.89V29.53c0-1,0-1-1.16-1.1v-.37c.55,0,1.12.06,1.72.06s1.18,0,1.76-.06v.37c-1.17.06-1.16.15-1.16,1.1Z"/><path class="cls-2" d="M302.46,34.94a3.12,3.12,0,0,0,.62,1.09,1.14,1.14,0,0,0,.68.2v.37c-.54,0-1.08-.06-1.63-.06s-1.09,0-1.63.06v-.37a2.07,2.07,0,0,0,.92-.17c.17-.09.18-.28.08-.5l-.74-1.78h-3.48a14.19,14.19,0,0,0-.82,2c0,.4.6.34,1,.4v.37c-.47,0-.93-.06-1.4-.06s-.94,0-1.41.06v-.37c.68-.13.77,0,1.06-.66l.6-1.26L298,30.63c.39-.87.79-1.76,1.11-2.64h.39Zm-1.92-1.69L299,29.61l-1.53,3.64Z"/><path class="cls-2" d="M309.6,36.7h-.25l-3.41-7.17v5.88c0,.71.24.82,1,.82h.2v.37c-.48,0-1-.06-1.45-.06s-1,0-1.47.06v-.37h.2c.74,0,1-.11,1-.82V29.26c0-.71-.22-.82-1-.82h-.2v-.37c.38,0,.77.06,1.16.06s.79,0,1.16-.06l3.23,6.81,2.52-5.18a10.94,10.94,0,0,0,.65-1.63c.38,0,.78.06,1.16.06s.78,0,1.16-.06v.37h-.18c-.74,0-1,.12-1,.83v5.88c0,1,0,1,1.16,1.1v.37c-.59,0-1.16-.06-1.77-.06s-1.17,0-1.72.06v-.37c1.17-.06,1.16-.14,1.16-1.1V29.53Z"/><path class="cls-2" d="M326.59,34.94a3.15,3.15,0,0,0,.63,1.09,1.12,1.12,0,0,0,.68.2v.37c-.54,0-1.08-.06-1.63-.06s-1.09,0-1.63.06v-.37a2.09,2.09,0,0,0,.92-.17c.17-.09.18-.28.08-.5l-.74-1.78h-3.48a14.53,14.53,0,0,0-.82,2c0,.4.59.34,1,.4v.37c-.47,0-.93-.06-1.4-.06s-.94,0-1.41.06v-.37c.68-.13.77,0,1.06-.66l.59-1.26,1.66-3.69c.39-.87.79-1.76,1.11-2.64h.4Zm-1.91-1.69-1.53-3.64-1.53,3.64Z"/><path class="cls-2" d="M336.29,35.33V29.26c0-.71-.22-.82-1-.82h-.19v-.37c.49,0,1,.06,1.46.06s1,0,1.46-.06v.37h-.2c-.77,0-1,.11-1,.82v7.08l0,.45-1-.17L330,29.44v6c0,.71.23.82,1,.82h.2v.37c-.48,0-1-.06-1.46-.06s-1,0-1.46.06v-.37h.19c.75,0,1-.11,1-.82V29.26c0-.71-.19-.82-.88-.83h-.17v-.37c.36,0,.7.06,1.07.06s.69,0,1-.06Z"/><path class="cls-2" d="M339.71,29.67c0-1.15-.11-1.22-1.08-1.24v-.38c.79,0,1.57.06,2.37.06s1.59,0,2.37-.06c2.27,0,4.14,1.38,4.14,3.75a4.68,4.68,0,0,1-5.2,4.79c-.54,0-1.07-.06-1.63-.06s-1.09,0-1.62.06v-.37c.44-.08.65-.21.65-.73Zm1.15,5.26a7.16,7.16,0,0,0,0,1,10.32,10.32,0,0,0,1.15.08c3.11.09,4.17-1.65,4.17-3.89,0-2.58-1.58-3.57-3.69-3.57-.54,0-1.07.05-1.63.07a8,8,0,0,0,0,1Z"/><path class="cls-2" d="M352,29.38l-.07-.28c-.15-.56-.26-.62-.83-.66h-.12v-.37c.52,0,1,.06,1.54.06s1,0,1.54-.06v.37c-1.18-.07-1,.4-.92.87l.26,1.21,1,4.24,1.52-3.82L357,28h.39l.37,1.14,2,5.71,1-3.45.56-2.18c.12-.49.28-.85-1-.78v-.37c.43,0,.84.06,1.28.06s.85,0,1.28-.06v.37c-.51,0-.6,0-.77.46l-1.79,5.87-.48,1.89h-.62l-.87-2.52L356.81,30l-2.13,5.4-.44,1.26h-.61c-.1-.42-.18-.83-.28-1.26Z"/><path class="cls-2" d="M372.41,32.06a4.68,4.68,0,0,1-4.73,4.73,4.2,4.2,0,0,1-4.34-4.5,4.28,4.28,0,0,1,4.6-4.41c2.62,0,4.47,1.47,4.47,4.19m-1.31.38c0-2.42-1.09-4-3.36-4-2.12,0-3.09,1.48-3.09,3.48s1,4.38,3.43,4.38c2-.14,3-1.58,3-3.83"/><path class="cls-2" d="M378.26,36.7H378l-3.41-7.17v5.88c0,.71.23.82,1,.82h.2v.37c-.48,0-1-.06-1.45-.06s-1,0-1.47.06v-.37h.19c.75,0,1-.11,1-.82V29.26c0-.71-.22-.82-1-.82h-.19v-.37c.38,0,.77.06,1.16.06s.78,0,1.16-.06l3.23,6.81,2.52-5.18a10.6,10.6,0,0,0,.66-1.63c.38,0,.77.06,1.17.06s.78,0,1.16-.06v.37h-.18c-.74,0-1,.12-1,.83v5.88c0,1,0,1,1.16,1.1v.37c-.59,0-1.16-.06-1.76-.06s-1.18,0-1.72.06v-.37c1.17-.06,1.16-.14,1.16-1.1V29.53Z"/><path class="cls-2" d="M386.89,34.93A6.54,6.54,0,0,0,387,36a14.09,14.09,0,0,0,1.66.06,7.19,7.19,0,0,0,2-.21,3.52,3.52,0,0,0,.15-.62l.11-.67h.4a5.18,5.18,0,0,0-.12,1v1c-.46.06-1.27,0-2,.06s-1.45-.06-2.2-.06-1.47,0-2.22.06v-.37a1,1,0,0,0,1.05-1.1V29.53c0-1,0-1-1.16-1.1v-.37c.75,0,1.47.06,2.24.06s1.5,0,2.24-.06,1.61,0,2,.06a4.31,4.31,0,0,0-.2,1.19c0,.26,0,.47,0,.72h-.38a5.9,5.9,0,0,0-.17-1.2,6.23,6.23,0,0,0-1.82-.2,11.66,11.66,0,0,0-1.51.06,6,6,0,0,0-.06,1V32c2.67,0,2.84.17,2.85-1h.4v2.83h-.4c0-1.38-.09-1.31-2.85-1.21Z"/><path class="cls-2" d="M399.85,35.33V29.26c0-.71-.22-.82-1-.82h-.19v-.37c.49,0,1,.06,1.46.06s1,0,1.46-.06v.37h-.19c-.77,0-1,.11-1,.82v7.08l0,.45-1-.17-5.91-7.18v6c0,.71.24.82,1,.82h.2v.37c-.47,0-1-.06-1.46-.06s-1,0-1.46.06v-.37H392c.75,0,1-.11,1-.82V29.26c0-.71-.19-.82-.88-.83H392v-.37c.35,0,.7.06,1.06.06s.7,0,1.05-.06Z"/><path class="cls-2" d="M402.33,31.27l-.18-.12a5.81,5.81,0,0,0,1-2.73,9.1,9.1,0,0,0,.88-.27l.3-.1.16.15A10.6,10.6,0,0,1,402.87,31Z"/><path class="cls-2" d="M410.31,30.11a2.12,2.12,0,0,0-.12-1,2.25,2.25,0,0,0-1.77-.71,1.77,1.77,0,0,0-1.86,1.75c0,2.65,4.86.45,4.86,3.52,0,2.1-1.87,3.1-3.69,3.1a5.37,5.37,0,0,1-2.09-.46c0-.47.08-1.05.09-1.53v-.34h.41V35a.87.87,0,0,0,.17.64,3,3,0,0,0,1.9.56,2,2,0,0,0,2.18-1.86c0-3-4.84-.2-4.84-3.75a2.82,2.82,0,0,1,3-2.74,6.69,6.69,0,0,1,2.37.56,5.29,5.29,0,0,0-.1.59c0,.36-.07.72-.09,1.09Z"/><path class="cls-2" d="M423.45,35.14c0,1,0,1,1.16,1.1v.37c-.58,0-1.16-.06-1.76-.06s-1.18,0-1.73.06v-.37c1.17-.06,1.16-.14,1.16-1.1V32.3H417.4v2.84c0,1,0,1,1.16,1.1v.37c-.59,0-1.16-.06-1.76-.06s-1.17,0-1.72.06v-.37c1.18-.06,1.16-.14,1.16-1.1V29.53c0-1,0-1-1.16-1.1v-.37c.55,0,1.13.06,1.72.06s1.17,0,1.76-.06v.37c-1.17.06-1.16.15-1.16,1.1v2.26h4.89V29.53c0-1,0-1-1.16-1.1v-.37c.55,0,1.13.06,1.73.06s1.17,0,1.76-.06v.37c-1.17.06-1.16.15-1.16,1.1Z"/><path class="cls-2" d="M434.27,32.06a4.68,4.68,0,0,1-4.73,4.73,4.19,4.19,0,0,1-4.34-4.5,4.28,4.28,0,0,1,4.6-4.41c2.61,0,4.47,1.47,4.47,4.19m-1.31.38c0-2.42-1.09-4-3.36-4s-3.1,1.48-3.1,3.48,1,4.38,3.43,4.38c2-.14,3-1.58,3-3.83"/><path class="cls-2" d="M439.58,30.11a2.09,2.09,0,0,0-.12-1,2.27,2.27,0,0,0-1.77-.71,1.77,1.77,0,0,0-1.86,1.75c0,2.65,4.87.45,4.87,3.52,0,2.1-1.87,3.1-3.69,3.1a5.42,5.42,0,0,1-2.1-.46c.05-.47.08-1.05.09-1.53v-.34h.42V35a.86.86,0,0,0,.17.64,3,3,0,0,0,1.9.56,2,2,0,0,0,2.17-1.86c0-3-4.84-.2-4.84-3.75a2.82,2.82,0,0,1,3-2.74,6.68,6.68,0,0,1,2.37.56,5,5,0,0,0-.1.59c0,.36-.07.72-.08,1.09Z"/><path class="cls-2" d="M442.44,29.53c0-1,0-1-1.16-1.1v-.37c.7,0,1.41.06,2.15.06s1.43,0,2.14-.06c1.18,0,2.53.51,2.53,1.89a2.74,2.74,0,0,1-2.85,2.59,2.67,2.67,0,0,1-.79-.07l-.14-.45a3.63,3.63,0,0,0,.79.11,1.69,1.69,0,0,0,1.77-1.76c0-1.27-.77-1.85-2-1.85a6.43,6.43,0,0,0-1.21.17,2.79,2.79,0,0,0-.07.84v5.61c0,1,0,1,1.16,1.1v.37c-.59,0-1.16-.06-1.77-.06s-1.17,0-1.71.06v-.37c1.17-.06,1.16-.14,1.16-1.1Z"/><path class="cls-2" d="M451,35.14c0,1,0,1,1.16,1.1v.37c-.59,0-1.16-.06-1.76-.06s-1.18,0-1.72.06v-.37c1.17-.06,1.16-.14,1.16-1.1V29.53c0-1,0-1-1.16-1.1v-.37c.55,0,1.12.06,1.72.06s1.17,0,1.76-.06v.37c-1.17.06-1.16.15-1.16,1.1Z"/><path class="cls-2" d="M455.62,29.9c0-.46,0-.85-.05-1.22l-1.88.06c-.26,0-.4.05-.43.37a8.31,8.31,0,0,0-.14.94h-.36c0-.23,0-.45,0-.68,0-.43,0-.86-.06-1.31,1.16,0,2.33.06,3.52.06s2.35,0,3.53-.06c0,.45,0,.88-.06,1.31,0,.23,0,.45,0,.68h-.36a5.77,5.77,0,0,0-.14-.94c0-.32-.17-.36-.42-.37l-1.91-.06c0,.37,0,.76,0,1.22v5.24c0,1,0,1,1.16,1.1v.37c-.59,0-1.16-.06-1.76-.06s-1.17,0-1.72.06v-.37c1.18-.06,1.17-.14,1.17-1.1Z"/><path class="cls-2" d="M467.91,34.94a3,3,0,0,0,.62,1.09,1.11,1.11,0,0,0,.67.2v.37c-.54,0-1.07-.06-1.62-.06s-1.09,0-1.63.06v-.37a2.06,2.06,0,0,0,.92-.17c.17-.09.18-.28.09-.5l-.75-1.78h-3.47a14.41,14.41,0,0,0-.81,2c0,.4.6.34,1,.4v.37c-.47,0-.93-.06-1.41-.06s-.94,0-1.4.06v-.37c.69-.13.77,0,1.07-.66l.6-1.26,1.65-3.69c.4-.87.8-1.76,1.11-2.64H465ZM466,33.25l-1.52-3.64-1.53,3.64Z"/><path class="cls-2" d="M472.12,35.53l0,.46a15.66,15.66,0,0,0,1.72.06,7.25,7.25,0,0,0,2-.21,2.77,2.77,0,0,0,.12-.39l.28-1,.39,0c0,.17-.07.49-.12.82l-.13,1.28c-.39.06-1.18,0-1.9.06s-1.39-.06-2.1-.06-1.39,0-2.1.06v-.37c.58-.1.66-.45.66-1.43V29.53c0-1,0-1-1.16-1.1v-.37c.55,0,1.12.06,1.72.06s1.18,0,1.76-.06v.37c-1.18.06-1.16.15-1.16,1.1Z"/><path class="cls-1" d="M85.44,7.16a85.26,85.26,0,0,1,28.09,4.67c.52.16.54-.08.15-.27-12-4.39-18.34-5.78-28.24-5.71S69.16,7.17,57.19,11.55c-.39.19-.37.43.15.27A85.27,85.27,0,0,1,85.44,7.16"/><path class="cls-1" d="M47.23,34.07H41l3.16-7.46ZM37.84,40.9q1,0,3.13.12v-.84a8.84,8.84,0,0,1-1.61-.12.72.72,0,0,1-.42-.22.42.42,0,0,1-.1-.29,3.71,3.71,0,0,1,.36-1.25l1.35-3.18h7.17l1.52,3.79a2,2,0,0,1,.17.71.42.42,0,0,1-.11.29.78.78,0,0,1-.4.18,14.61,14.61,0,0,1-1.68.09V41l4-.13c.51,0,1.41,0,2.7.13v-.84A3.65,3.65,0,0,1,52.66,40a1.28,1.28,0,0,1-.51-.57q-.42-.77-1.71-3.79L45.15,23.25h-.8c-1.11,2.65-1.83,4.36-2.17,5.13l-3.09,7q-1.39,3-1.61,3.48a4,4,0,0,1-.59,1,1,1,0,0,1-.44.26,5.85,5.85,0,0,1-1.22.09V41c1-.07,1.83-.12,2.63-.12"/><path class="cls-1" d="M51.77,24.21v-.79l1.48,0,2.37.06c.47,0,1.21,0,2.19,0l2.24-.07a10.48,10.48,0,0,1,3.45.42,3.37,3.37,0,0,1,1.68,1.37,3.83,3.83,0,0,1,.59,2.06,4.31,4.31,0,0,1-.56,2.07A4.62,4.62,0,0,1,63.6,31a8.4,8.4,0,0,1-2.76,1.06c.21.29.7.93,1.46,1.93l3.12,4.11Q66.76,39.84,67,40a.77.77,0,0,0,.23.13,3.53,3.53,0,0,0,.82.06V41c-.63-.05-1.18-.08-1.65-.08s-1.08,0-1.79.08q-.81-.94-2.7-3.63c-.7-1-1.32-1.83-1.86-2.5-.86-1.11-1.69-2.11-2.48-3l.13-.37,1,0a4.87,4.87,0,0,0,3.42-1.07,3.61,3.61,0,0,0,1.16-2.81,3.09,3.09,0,0,0-1-2.42,4.42,4.42,0,0,0-3-.9,8.28,8.28,0,0,0-2.5.38c0,.45-.06.86-.07,1.25q0,.18-.09,3.6v5.5c0,1.12,0,2.21.05,3.28a3.82,3.82,0,0,0,.17,1.4.78.78,0,0,0,.46.32,8.14,8.14,0,0,0,1.78.13V41c-1.17-.07-2.25-.1-3.23-.1-.79,0-2.12,0-4,.1v-.8a8.2,8.2,0,0,0,1.79-.13A.79.79,0,0,0,54,39.8a3,3,0,0,0,.19-1.2c0-.17,0-1.35,0-3.51V29.35c0-1.12,0-2.21,0-3.29A3.88,3.88,0,0,0,54,24.67a.84.84,0,0,0-.46-.32,9.2,9.2,0,0,0-1.79-.13"/><path class="cls-1" d="M68.19,26.27l-.14,1.25h-.77c0-2,0-3.34-.12-4.1q1.35.06,4.23.12l3.12,0q.84,0,3.9-.07c1.48,0,2.55-.06,3.23-.1-.1.92-.17,2.29-.2,4.1h-.79l-.1-1.19c-.07-.72-.11-1.12-.14-1.22a.4.4,0,0,0-.11-.21.46.46,0,0,0-.2-.1q-.17,0-1.24-.1c-.71,0-1.27-.07-1.68-.07H75.68a32.14,32.14,0,0,0-.12,3.21v7.24c0,1.12,0,2.21,0,3.28a4.18,4.18,0,0,0,.18,1.4.82.82,0,0,0,.46.32,8.13,8.13,0,0,0,1.79.13V41c-1.48-.07-2.59-.1-3.33-.1-.32,0-1.61,0-3.86.1v-.8a8.27,8.27,0,0,0,1.79-.13.73.73,0,0,0,.43-.29,2.94,2.94,0,0,0,.2-1.2q0-.26,0-3.51V27.87c0-.35,0-.73,0-1.14l-.08-2.1H71.36a20.74,20.74,0,0,0-2.54.13.54.54,0,0,0-.38.16,4.27,4.27,0,0,0-.25,1.35"/><path class="cls-1" d="M81.16,41v-.79a4,4,0,0,0,1.55-.2.42.42,0,0,0,.22-.24,4.67,4.67,0,0,0,.16-1.3c.05-1.09.07-2,.07-2.83V25.59a2,2,0,0,0,0-.53,1.8,1.8,0,0,0-.41-.53.88.88,0,0,0-.47-.25,8.06,8.06,0,0,0-1.18-.07v-.78l2.37.05c.54,0,1.09,0,1.63-.05l1.41,2,2.33,3.16,3.4,4.51c1.09,1.43,2,2.57,2.63,3.39.42.55.78,1,1.06,1.29V28.74c0-.81,0-1.76-.08-2.85a5.47,5.47,0,0,0-.14-1.27.48.48,0,0,0-.24-.23,4.5,4.5,0,0,0-1.54-.19v-.78c.89,0,1.79.05,2.69.05s1.64,0,2.33-.05v.78a4.48,4.48,0,0,0-1.54.19.42.42,0,0,0-.23.24A4.72,4.72,0,0,0,97,25.93c0,1.09-.07,2-.07,2.81v6q0,1.81.06,6.74l-1.16-.37L95.54,41l-.12-.07a5.19,5.19,0,0,1-.43-.5q-.94-1.16-1.37-1.76l-1.46-2-8-10.49v9.49c0,.81,0,1.76.08,2.86a4.93,4.93,0,0,0,.15,1.26.48.48,0,0,0,.24.25,4.34,4.34,0,0,0,1.54.18V41c-.66-.06-1.39-.09-2.19-.09s-1.81,0-2.83.09"/><path class="cls-1" d="M99.18,41v-.79a4.84,4.84,0,0,0,1.71-.2.47.47,0,0,0,.25-.24,4.5,4.5,0,0,0,.17-1.3c0-1.09.07-2,.07-2.83V29.35c0-1.12,0-2.21,0-3.29a3.92,3.92,0,0,0-.18-1.39.85.85,0,0,0-.46-.32,9.18,9.18,0,0,0-1.79-.13v-.79l3.53.08,3.74-.07,3.9,0a18.78,18.78,0,0,1,2.31.13,8.62,8.62,0,0,0-.27,1.22q0,.12-.23,2.58h-.78A13.56,13.56,0,0,0,111,25a5.72,5.72,0,0,0-1.5-.38,23.32,23.32,0,0,0-2.78-.17c-.2,0-.64,0-1.32.05l-1.48.09c0,.92-.06,1.77-.07,2.58l-.05,4.19c1,0,1.85.07,2.66.07a20.11,20.11,0,0,0,2.51-.13.78.78,0,0,0,.51-.2,3,3,0,0,0,.2-1l.08-.87h.74v.24L110.41,32l.06,2.88h-.87l0-.83a2.79,2.79,0,0,0-.16-1.14.8.8,0,0,0-.54-.31,15.86,15.86,0,0,0-2.74-.15q-.83,0-2.35.07c0,.82-.06,2.05-.06,3.68s0,2.69.06,3.48q1.79.13,4,.13a16.67,16.67,0,0,0,2.24-.1,5,5,0,0,0,1.23-.33,6.9,6.9,0,0,0,.3-1c.18-.74.3-1.29.36-1.67h.82a33.51,33.51,0,0,0-.32,4.15,17.05,17.05,0,0,1-2.59.17l-7.39-.1-3.24.1"/><path class="cls-1" d="M113.84,24.21v-.79l1.47,0,2.38.06c.47,0,1.2,0,2.19,0l2.24-.07a10.48,10.48,0,0,1,3.45.42,3.37,3.37,0,0,1,1.67,1.37,3.82,3.82,0,0,1,.6,2.06,4.29,4.29,0,0,1-.56,2.07A4.67,4.67,0,0,1,125.67,31a8.36,8.36,0,0,1-2.75,1.06c.21.29.7.93,1.46,1.93l3.12,4.11q1.34,1.72,1.56,1.92a.82.82,0,0,0,.22.13,3.55,3.55,0,0,0,.82.06V41c-.63-.05-1.18-.08-1.65-.08s-1.08,0-1.79.08q-.81-.94-2.7-3.63-1.05-1.5-1.86-2.5c-.86-1.11-1.69-2.11-2.47-3l.13-.37,1,0a4.87,4.87,0,0,0,3.42-1.07,3.61,3.61,0,0,0,1.16-2.81,3.08,3.08,0,0,0-1-2.42,4.41,4.41,0,0,0-3-.9,8.23,8.23,0,0,0-2.5.38c0,.45-.06.86-.07,1.25,0,.12,0,1.32-.09,3.6v5.5c0,1.12,0,2.21.05,3.28a3.82,3.82,0,0,0,.17,1.4.8.8,0,0,0,.47.32,8.09,8.09,0,0,0,1.78.13V41c-1.17-.07-2.25-.1-3.23-.1-.79,0-2.13,0-4,.1v-.8a8.16,8.16,0,0,0,1.78-.13.81.81,0,0,0,.45-.29,3.26,3.26,0,0,0,.19-1.2q0-.26,0-3.51V29.35q0-1.68,0-3.29a3.82,3.82,0,0,0-.18-1.39.86.86,0,0,0-.46-.32,9.2,9.2,0,0,0-1.79-.13"/><path class="cls-1" d="M85.44,13.83c11.71-.22,27.63,1.41,40.47,7.33.43.23.54-.09.15-.27-13.55-6.59-30.72-8.72-40.62-8.45-9.9-.27-27.08,1.87-40.62,8.45-.4.18-.29.5.15.27,12.84-5.93,28.76-7.55,40.48-7.33"/><path class="cls-1" d="M85.44,10.61c8.82,0,23.57.91,35,6,.46.25.59-.07.15-.27C109,10.89,95.36,9.1,85.45,9.19c-9.91-.09-23.55,1.7-35.16,7.13-.43.21-.31.53.15.27,11.41-5.08,26.17-6,35-6"/><path class="cls-1" d="M29,26.24c0-2,0-2.15-2.4-2.28V23.2c1.46.08,2.93.13,4.45.13s3,0,4.43-.12c2.45,0,5.24,1.06,5.24,3.92,0,3.16-2.73,5.24-5.89,5.37a5.72,5.72,0,0,1-1.64-.15l-.28-.94a8.38,8.38,0,0,0,1.62.23A3.5,3.5,0,0,0,38.22,28c0-2.63-1.59-3.85-4.12-3.85a13.6,13.6,0,0,0-2.51.36,5.65,5.65,0,0,0-.15,1.74V37.85c0,2,0,2.15,2.4,2.28v.76c-1.21-.08-2.4-.13-3.64-.13s-2.43.05-3.57.13v-.76c2.43-.13,2.4-.3,2.4-2.28Z"/><path class="cls-1" d="M139.93,27.61a4.25,4.25,0,0,0-.25-2c-.68-1.06-2.48-1.47-3.67-1.47a3.66,3.66,0,0,0-3.85,3.62c0,5.49,10.07.94,10.07,7.28,0,4.33-3.87,6.4-7.64,6.4a11.13,11.13,0,0,1-4.33-1c.1-1,.15-2.18.18-3.16v-.71h.86v1.19a1.75,1.75,0,0,0,.35,1.32,6.19,6.19,0,0,0,3.92,1.16c2.28,0,4.5-1.34,4.5-3.84,0-6.12-10-.4-10-7.77,0-3.47,2.93-5.67,6.2-5.67a13.8,13.8,0,0,1,4.91,1.17,10,10,0,0,0-.2,1.21c-.05.76-.16,1.49-.18,2.25Z"/><path class="cls-1" d="M34.1,51.8c0,.67,0,.73.81.77v.26c-.41,0-.81,0-1.23,0s-.82,0-1.21,0v-.26c.82,0,.81-.1.81-.77v-2H29.86v2c0,.67,0,.73.81.77v.26c-.41,0-.81,0-1.23,0s-.82,0-1.21,0v-.26c.82,0,.82-.1.82-.77V47.87c0-.67,0-.73-.82-.77v-.25c.39,0,.79,0,1.21,0s.82,0,1.23,0v.25c-.82,0-.81.1-.81.77v1.58h3.42V47.87c0-.67,0-.73-.81-.77v-.25c.39,0,.78,0,1.21,0s.82,0,1.23,0v.25c-.82,0-.81.1-.81.77Z"/><path class="cls-1" d="M42.89,51.65a4.61,4.61,0,0,0,0,.74,9.7,9.7,0,0,0,1.16,0,5,5,0,0,0,1.38-.14,2,2,0,0,0,.1-.43l.08-.47h.29a3.57,3.57,0,0,0-.09.7v.71c-.32,0-.89,0-1.42,0s-1,0-1.54,0-1,0-1.55,0v-.26a.67.67,0,0,0,.73-.77V47.87c0-.67,0-.73-.81-.77v-.25c.52,0,1,0,1.57,0s1.05,0,1.57,0,1.13,0,1.42,0a3,3,0,0,0-.14.83c0,.18,0,.32,0,.51h-.26a3.82,3.82,0,0,0-.12-.84A4.14,4.14,0,0,0,44,47.24a7.47,7.47,0,0,0-1.06,0,4.24,4.24,0,0,0,0,.71v1.6c1.87,0,2,.12,2-.72h.28v2h-.28c0-1-.06-.91-2-.85Z"/><path class="cls-1" d="M57.74,51.66a2.11,2.11,0,0,0,.43.76.81.81,0,0,0,.47.15v.26c-.37,0-.75,0-1.14,0s-.76,0-1.14,0v-.26a1.5,1.5,0,0,0,.64-.12c.12-.06.13-.2.06-.35l-.52-1.25H54.11a10.71,10.71,0,0,0-.57,1.44c0,.28.42.24.73.28v.26c-.33,0-.65,0-1,0s-.66,0-1,0v-.26c.48-.1.54,0,.74-.46l.42-.89,1.15-2.58c.27-.6.56-1.23.78-1.85h.28Zm-1.35-1.19-1.07-2.55-1.07,2.55Z"/><path class="cls-1" d="M66.59,52.07l0,.32a11.11,11.11,0,0,0,1.21,0,4.92,4.92,0,0,0,1.38-.14,1.89,1.89,0,0,0,.09-.28l.19-.72.27,0c0,.12-.05.34-.08.58l-.09.9c-.27,0-.82,0-1.33,0s-1,0-1.46,0-1,0-1.47,0v-.26c.4-.07.46-.32.46-1v-3.7c0-.67,0-.73-.81-.77v-.25c.39,0,.79,0,1.21,0s.82,0,1.23,0v.25c-.82,0-.81.11-.81.77Z"/><path class="cls-1" d="M77.45,48.14c0-.33,0-.6,0-.85l-1.32,0c-.18,0-.29,0-.3.26a4.69,4.69,0,0,0-.09.66h-.26c0-.17,0-.31,0-.48s0-.6,0-.91c.81,0,1.63,0,2.46,0s1.64,0,2.47,0c0,.31,0,.61,0,.91s0,.31,0,.48H80a5.75,5.75,0,0,0-.09-.66c0-.22-.12-.25-.3-.26l-1.33,0c0,.25,0,.53,0,.85V51.8c0,.67,0,.73.82.77v.26c-.41,0-.82,0-1.24,0s-.82,0-1.21,0v-.26c.82,0,.81-.11.81-.77Z"/><path class="cls-1" d="M92.48,51.8c0,.67,0,.73.81.77v.26c-.41,0-.81,0-1.23,0s-.82,0-1.21,0v-.26c.82,0,.82-.1.82-.77v-2H88.24v2c0,.67,0,.73.81.77v.26c-.41,0-.81,0-1.23,0s-.83,0-1.21,0v-.26c.82,0,.81-.1.81-.77V47.87c0-.67,0-.73-.81-.77v-.25c.38,0,.79,0,1.21,0s.82,0,1.23,0v.25c-.82,0-.81.1-.81.77v1.58h3.43V47.87c0-.67,0-.73-.82-.77v-.25c.39,0,.79,0,1.21,0s.82,0,1.23,0v.25c-.82,0-.81.1-.81.77Z"/><path class="cls-1" d="M105,52.45a4.56,4.56,0,0,1-1.94.5,3.15,3.15,0,0,1-3.46-3.14,3.1,3.1,0,0,1,3.29-3.1,8.26,8.26,0,0,1,2.23.38c-.09.43-.14.86-.19,1.29h-.25c0-.55.11-.75-.39-1a2.93,2.93,0,0,0-1.38-.32,2.34,2.34,0,0,0-2.39,2.55,2.71,2.71,0,0,0,2.84,2.89A3.17,3.17,0,0,0,105.1,52l.08.09Z"/><path class="cls-1" d="M117,51.66a2.1,2.1,0,0,0,.44.76.79.79,0,0,0,.47.15v.26c-.38,0-.75,0-1.14,0s-.76,0-1.14,0v-.26a1.5,1.5,0,0,0,.64-.12c.12-.06.13-.2.06-.35l-.52-1.25h-2.43a10.09,10.09,0,0,0-.57,1.44c0,.28.42.24.73.28v.26c-.32,0-.65,0-1,0s-.66,0-1,0v-.26c.48-.1.54,0,.75-.46l.42-.89,1.15-2.58c.28-.6.56-1.23.78-1.85h.27Zm-1.34-1.19-1.07-2.55-1.07,2.55Z"/><path class="cls-1" d="M125,47.87c0-.67,0-.73-.81-.77v-.25c.48,0,1,0,1.48,0s1,0,1.5,0c1.18-.06,1.73.58,1.73,1.3a1.83,1.83,0,0,1-1.67,1.65l1.94,2.54a.76.76,0,0,0,.49.24v.26a4,4,0,0,0-.58,0,4.1,4.1,0,0,0-.58,0c-.14-.18-.23-.34-.35-.48l-2-2.62,0-.13a3.28,3.28,0,0,0,.79,0,1.27,1.27,0,0,0,1.11-1.2,1.16,1.16,0,0,0-1.32-1.2,3.07,3.07,0,0,0-.86.11,1.87,1.87,0,0,0-.05.59V51.8c0,.67,0,.73.81.77v.26c-.41,0-.81,0-1.23,0s-.82,0-1.21,0v-.26c.82,0,.81-.1.81-.77Z"/><path class="cls-1" d="M137.43,51.65a4.18,4.18,0,0,0,0,.74,9.68,9.68,0,0,0,1.16,0,5,5,0,0,0,1.38-.14,2.54,2.54,0,0,0,.1-.43l.08-.47h.28a3.44,3.44,0,0,0-.09.7v.71c-.32,0-.89,0-1.42,0s-1,0-1.54,0-1,0-1.55,0v-.26a.68.68,0,0,0,.74-.77V47.87c0-.67,0-.73-.82-.77v-.25c.52,0,1,0,1.57,0s1.05,0,1.57,0,1.13,0,1.42,0a2.94,2.94,0,0,0-.14.83c0,.18,0,.32,0,.51h-.27a3.93,3.93,0,0,0-.12-.84,4.15,4.15,0,0,0-1.28-.15,7.43,7.43,0,0,0-1.06,0,3.85,3.85,0,0,0,0,.71v1.6c1.86,0,2,.12,2-.72h.28v2h-.28c0-1-.06-.91-2-.85Z"/><polygon class="cls-1" points="47.23 41.02 59 41.02 58.8 40.87 47.6 40.7 47.23 41.02"/><rect class="cls-2" x="159.3" y="12.32" width="0.95" height="48.07"/></g></svg>