<svg id="Layer_1" data-name="Layer 1" xmlns="http://www.w3.org/2000/svg" viewBox="0 0 430 96"><defs><style>.cls-1{fill:#fff;}</style></defs><title>partners-international</title><path class="cls-1" d="M187.15,55.6l.33,0c.52,0,.86-.12,1-.36a1.27,1.27,0,0,0,.23-.77,1,1,0,0,0-.26-.75,1,1,0,0,0-.73-.28h-.27l-.21.05a.19.19,0,0,0-.06.1.32.32,0,0,0,0,.16Zm-1.48,2.62V58h.09a.85.85,0,0,0,.32,0,.24.24,0,0,0,.13-.1,1,1,0,0,0,0-.29V54a1.1,1.1,0,0,0,0-.35.26.26,0,0,0-.11-.14,1.28,1.28,0,0,0-.3,0h-.13v-.28h2.25a2.56,2.56,0,0,1,1.05.18,1,1,0,0,1,.52.49,1.43,1.43,0,0,1,.15.61,1.12,1.12,0,0,1-.13.52,1.29,1.29,0,0,1-.39.47,2,2,0,0,1-.78.31,1.45,1.45,0,0,1,.32.15,1.43,1.43,0,0,1,.24.24,2,2,0,0,1,.21.3,5,5,0,0,1,.24.47c.14.29.25.51.34.67a1.19,1.19,0,0,0,.24.31.52.52,0,0,0,.27.06v.26h-.76a.79.79,0,0,1-.47-.11,4.61,4.61,0,0,1-.55-1.05c-.16-.37-.28-.61-.36-.75a1,1,0,0,0-.24-.29.77.77,0,0,0-.4-.08l-.3,0v1.51a.91.91,0,0,0,0,.35.19.19,0,0,0,.12.11l.39,0v.26ZM187.8,52a3.83,3.83,0,0,0-1.91.51A3.64,3.64,0,0,0,184.45,54a3.79,3.79,0,0,0-.54,2,3.85,3.85,0,0,0,.52,2,3.86,3.86,0,0,0,5.3,1.42A3.88,3.88,0,0,0,191.16,54a3.64,3.64,0,0,0-1.45-1.43,3.92,3.92,0,0,0-1.9-.49m0-.72a4.7,4.7,0,0,1,2.25.59,4.27,4.27,0,0,1,1.73,1.68,4.61,4.61,0,0,1,.63,2.32,4.6,4.6,0,0,1-6.91,4,4.6,4.6,0,0,1-1.67-6.31,4.42,4.42,0,0,1,1.71-1.69,4.68,4.68,0,0,1,2.27-.6"/><path class="cls-1" d="M92.57,7.13c14,.15,25.93,1.43,44.22,7.35.82.26.86-.12.24-.43-18.85-6.91-28.88-9.1-44.47-9C77,5,66.95,7.14,48.1,14.05c-.62.3-.58.68.24.43,18.3-5.92,30.22-7.2,44.23-7.35"/><path class="cls-1" d="M17.65,60.26c1.09,0,2.73.06,4.93.17V59.11A14.21,14.21,0,0,1,20,58.93a1.14,1.14,0,0,1-.66-.35.64.64,0,0,1-.15-.45,5.87,5.87,0,0,1,.56-2l2.13-5H33.2l2.39,6a3.11,3.11,0,0,1,.28,1.11.66.66,0,0,1-.17.45,1.21,1.21,0,0,1-.63.29,22.12,22.12,0,0,1-2.65.14v1.32l6.27-.19q1.21,0,4.25.19V59.11a5.86,5.86,0,0,1-2-.23,2,2,0,0,1-.81-.89c-.44-.81-1.34-2.8-2.7-6L29.15,32.46H27.88q-2.62,6.25-3.42,8.08l-4.87,11Q17.41,56.28,17.06,57a6.21,6.21,0,0,1-.93,1.57,1.65,1.65,0,0,1-.7.41,9.85,9.85,0,0,1-1.93.13v1.32c1.5-.11,2.88-.17,4.14-.17M32.43,49.5H22.58l5-11.74Z"/><path class="cls-1" d="M39.57,34V32.74l2.32.06,3.74.1c.74,0,1.9,0,3.45-.08q3-.12,3.53-.12a16.48,16.48,0,0,1,5.43.65,5.33,5.33,0,0,1,2.64,2.16,6,6,0,0,1,.93,3.25A6.76,6.76,0,0,1,60.74,42a7.29,7.29,0,0,1-2.54,2.69,13.36,13.36,0,0,1-4.34,1.66q.49.68,2.3,3l4.91,6.48q2.1,2.71,2.45,3a1.37,1.37,0,0,0,.36.2,5.5,5.5,0,0,0,1.28.09v1.25c-1-.08-1.85-.11-2.59-.11s-1.7,0-2.82.11c-.85-1-2.26-2.87-4.25-5.71-1.1-1.57-2.07-2.88-2.93-3.94-1.36-1.75-2.66-3.32-3.9-4.74l.2-.58c.67,0,1.19.06,1.54.06a7.68,7.68,0,0,0,5.38-1.69,5.7,5.7,0,0,0,1.83-4.42A4.85,4.85,0,0,0,56,35.62a6.94,6.94,0,0,0-4.78-1.42,13.13,13.13,0,0,0-3.94.6c0,.7-.09,1.36-.11,2,0,.18-.06,2.07-.14,5.67V51.1q0,2.65.08,5.16a6,6,0,0,0,.27,2.21,1.27,1.27,0,0,0,.73.51,13.46,13.46,0,0,0,2.81.2v1.25c-1.85-.1-3.54-.15-5.09-.15q-1.87,0-6.3.15V59.18a13.59,13.59,0,0,0,2.81-.2,1.24,1.24,0,0,0,.7-.45,4.78,4.78,0,0,0,.3-1.89c0-.27,0-2.12.08-5.53v-9c0-1.76,0-3.49-.06-5.18a6.12,6.12,0,0,0-.28-2.19,1.32,1.32,0,0,0-.72-.51,14,14,0,0,0-2.82-.2"/><path class="cls-1" d="M65.41,37.22l-.21,2H64c0-3.1-.08-5.25-.19-6.45q2.12.08,6.67.19c2.45.06,4.09.08,4.91.08s2.93,0,6.14-.11c2.32-.06,4-.1,5.09-.15-.16,1.45-.26,3.61-.31,6.45H85l-.16-1.87q-.15-1.69-.21-1.93a.59.59,0,0,0-.16-.33.77.77,0,0,0-.32-.16c-.18,0-.83-.09-1.95-.15s-2-.1-2.65-.1H77.21c-.13,1.25-.19,2.94-.19,5.06V51.1q0,2.65.05,5.17a6.56,6.56,0,0,0,.28,2.21,1.32,1.32,0,0,0,.73.51,13.68,13.68,0,0,0,2.81.2v1.25c-2.32-.1-4.07-.15-5.24-.15q-.76,0-6.08.15V59.18A14,14,0,0,0,72.4,59a1.18,1.18,0,0,0,.68-.45,4.68,4.68,0,0,0,.31-1.89q0-.41.08-5.53V39.74c0-.55,0-1.15,0-1.8l-.12-3.3h-2.9a33.18,33.18,0,0,0-4,.19.88.88,0,0,0-.6.26,6.84,6.84,0,0,0-.4,2.12"/><path class="cls-1" d="M85.84,60.43V59.2a6.65,6.65,0,0,0,2.45-.3.71.71,0,0,0,.35-.37,7.45,7.45,0,0,0,.25-2.06C89,54.76,89,53.28,89,52V36.15a3.21,3.21,0,0,0-.07-.84,2.77,2.77,0,0,0-.64-.84,1.4,1.4,0,0,0-.74-.4A12.68,12.68,0,0,0,85.69,34V32.74c2,.06,3.21.08,3.73.08.86,0,1.72,0,2.57-.08l2.22,3.19,3.67,5L103.24,48c1.71,2.25,3.09,4,4.13,5.33.66.87,1.22,1.54,1.67,2V41.12c0-1.28,0-2.76-.13-4.48a8.69,8.69,0,0,0-.23-2,.75.75,0,0,0-.37-.36,7,7,0,0,0-2.43-.31V32.74c1.4.06,2.81.08,4.23.08s2.58,0,3.68-.08V34a7,7,0,0,0-2.43.31.67.67,0,0,0-.35.37,7.43,7.43,0,0,0-.25,2.06c-.07,1.71-.1,3.19-.1,4.42v9.38q0,2.85.09,10.62l-1.83-.58-.43-.1a.74.74,0,0,1-.19-.11,8.25,8.25,0,0,1-.67-.78q-1.47-1.84-2.16-2.77l-2.29-3.18L90.59,37.08V52c0,1.27,0,2.77.12,4.5a8.07,8.07,0,0,0,.23,2,.77.77,0,0,0,.37.39,7,7,0,0,0,2.43.29v1.23c-1-.09-2.19-.13-3.44-.13s-2.86,0-4.47.13"/><path class="cls-1" d="M114.21,60.43V59.2a8,8,0,0,0,2.69-.3.78.78,0,0,0,.39-.37,7.19,7.19,0,0,0,.27-2.06c.08-1.71.12-3.19.12-4.44v-10q0-2.64-.06-5.18a6.17,6.17,0,0,0-.28-2.19,1.31,1.31,0,0,0-.72-.51,14.06,14.06,0,0,0-2.82-.2V32.74l5.56.12,5.88-.1c2.83,0,4.87-.06,6.14-.06a28.54,28.54,0,0,1,3.64.22,13.86,13.86,0,0,0-.43,1.92c0,.13-.14,1.48-.35,4.06H133a21.42,21.42,0,0,0-.25-3.63,9,9,0,0,0-2.36-.61,36.78,36.78,0,0,0-4.37-.27c-.31,0-1,0-2.08.08s-1.86.1-2.33.13c-.06,1.44-.09,2.79-.12,4.06l-.08,6.59c1.53.08,2.92.11,4.19.11a31.72,31.72,0,0,0,4-.21,1.23,1.23,0,0,0,.8-.31,4.61,4.61,0,0,0,.31-1.59l.12-1.36H132v.37l-.1,4.05.1,4.54h-1.37l-.06-1.32a4.38,4.38,0,0,0-.26-1.8,1.25,1.25,0,0,0-.85-.49,25.75,25.75,0,0,0-4.31-.23q-1.3,0-3.7.1c-.06,1.3-.09,3.24-.09,5.8,0,2.41,0,4.23.09,5.48q2.81.21,6.3.21a26.09,26.09,0,0,0,3.53-.16,8.06,8.06,0,0,0,1.94-.52,10.72,10.72,0,0,0,.47-1.64c.29-1.16.48-2,.56-2.62h1.29a52.57,52.57,0,0,0-.51,6.53,27,27,0,0,1-4.07.26l-11.64-.15-5.1.15"/><path class="cls-1" d="M137.28,34V32.74l2.32.06,3.74.1c.74,0,1.89,0,3.45-.08q3-.12,3.53-.12a16.51,16.51,0,0,1,5.43.65,5.33,5.33,0,0,1,2.64,2.16,6,6,0,0,1,.94,3.25,6.76,6.76,0,0,1-.88,3.25,7.39,7.39,0,0,1-2.54,2.69,13.35,13.35,0,0,1-4.34,1.66q.49.68,2.3,3l4.92,6.48c1.4,1.81,2.22,2.81,2.45,3a1.47,1.47,0,0,0,.36.2,5.52,5.52,0,0,0,1.29.09v1.25c-1-.08-1.85-.11-2.6-.11s-1.71,0-2.82.11c-.85-1-2.27-2.87-4.25-5.71-1.1-1.57-2.08-2.88-2.93-3.94-1.36-1.75-2.66-3.32-3.89-4.74l.2-.58c.67,0,1.19.06,1.54.06a7.69,7.69,0,0,0,5.38-1.69,5.7,5.7,0,0,0,1.83-4.42,4.85,4.85,0,0,0-1.58-3.81A6.94,6.94,0,0,0,149,34.2a13,13,0,0,0-3.94.6c-.06.7-.09,1.36-.12,2,0,.18-.06,2.07-.14,5.67V51.1q0,2.65.08,5.16a6,6,0,0,0,.27,2.21,1.27,1.27,0,0,0,.73.51,13.4,13.4,0,0,0,2.8.2v1.25c-1.84-.1-3.54-.15-5.09-.15-1.25,0-3.35,0-6.3.15V59.18a13.5,13.5,0,0,0,2.81-.2,1.26,1.26,0,0,0,.71-.45,5.08,5.08,0,0,0,.29-1.89q0-.41.08-5.53v-9q0-2.64-.06-5.18a6,6,0,0,0-.28-2.19,1.35,1.35,0,0,0-.72-.51,14.07,14.07,0,0,0-2.82-.2"/><path class="cls-1" d="M92.57,17.64c18.44-.35,43.51,2.21,63.72,11.54.68.37.85-.15.23-.43C135.2,18.38,108.16,15,92.57,15.44,77,15,49.94,18.38,28.62,28.75c-.62.28-.45.79.24.43,20.21-9.33,45.27-11.89,63.72-11.54"/><path class="cls-1" d="M92.57,12.57c13.89,0,37.11,1.43,55.09,9.43.72.4.92-.1.24-.43C129.62,13,108.19,10.2,92.6,10.34,77,10.2,55.52,13,37.24,21.57c-.69.32-.48.82.24.43,18-8,41.21-9.46,55.09-9.43"/><path class="cls-1" d="M3.78,37.17c0-3.1,0-3.38-3.78-3.58v-1.2c2.31.12,4.62.2,7,.2s4.66-.08,7-.2c3.86,0,8.24,1.67,8.24,6.17,0,5-4.3,8.25-9.28,8.44a9,9,0,0,1-2.59-.24l-.44-1.48a13.06,13.06,0,0,0,2.55.37,5.52,5.52,0,0,0,5.77-5.74c0-4.14-2.51-6.06-6.49-6.06a21.61,21.61,0,0,0-3.95.56,8.85,8.85,0,0,0-.23,2.74V55.45c0,3.11,0,3.39,3.78,3.58v1.2c-1.91-.12-3.78-.2-5.74-.2s-3.83.08-5.61.2V59c3.83-.2,3.78-.47,3.78-3.58Z"/><path class="cls-1" d="M178.37,39.33a6.69,6.69,0,0,0-.4-3.18c-1.08-1.67-3.91-2.31-5.78-2.31a5.76,5.76,0,0,0-6.06,5.7C166.14,48.17,182,41,182,51c0,6.82-6.1,10.08-12,10.08a17.58,17.58,0,0,1-6.81-1.51c.16-1.52.24-3.43.29-5V53.47h1.35v1.87a2.75,2.75,0,0,0,.56,2.07c1.59,1.4,4.15,1.83,6.18,1.83,3.58,0,7.08-2.11,7.08-6.05,0-9.64-15.77-.63-15.77-12.23,0-5.46,4.62-8.93,9.76-8.93a21.62,21.62,0,0,1,7.72,1.84,15.8,15.8,0,0,0-.32,1.91c-.08,1.19-.24,2.35-.28,3.54Z"/><path class="cls-1" d="M11.75,77.41c0,1.06,0,1.15,1.28,1.22V79c-.64,0-1.28-.06-1.94-.06S9.8,79,9.19,79v-.41c1.29-.07,1.28-.16,1.28-1.22V74.29H5.08v3.13c0,1.06,0,1.15,1.28,1.22V79C5.71,79,5.08,79,4.42,79s-1.29,0-1.9.06v-.41c1.29-.07,1.28-.16,1.28-1.22V71.23c0-1.05,0-1.14-1.28-1.21v-.4c.61,0,1.24.06,1.9.06s1.29,0,1.94-.06V70c-1.29.07-1.28.16-1.28,1.21v2.5h5.39v-2.5c0-1.05,0-1.14-1.28-1.21v-.4c.61,0,1.24.06,1.9.06s1.3,0,1.94-.06V70c-1.29.07-1.28.16-1.28,1.21Z"/><path class="cls-1" d="M25.59,77.19a7.62,7.62,0,0,0,.07,1.15,14.84,14.84,0,0,0,1.83.07,7.88,7.88,0,0,0,2.17-.23,3.29,3.29,0,0,0,.16-.68l.12-.75h.45a5.41,5.41,0,0,0-.14,1.09V79c-.5.06-1.4,0-2.24.06S26.41,79,25.59,79,24,79,23.15,79v-.41a1.06,1.06,0,0,0,1.16-1.22V71.23c0-1.05,0-1.14-1.28-1.21v-.4c.82,0,1.63.06,2.47.06s1.66,0,2.47-.06,1.78,0,2.23.06A4.7,4.7,0,0,0,30,71c0,.29,0,.51,0,.8h-.42a6.23,6.23,0,0,0-.18-1.32,6.53,6.53,0,0,0-2-.23,12.22,12.22,0,0,0-1.67.07,7,7,0,0,0-.07,1.11v2.52c2.94,0,3.13.19,3.14-1.13h.44v3.11h-.44c0-1.52-.1-1.44-3.14-1.34Z"/><path class="cls-1" d="M46.85,75.34l-1.68-4-1.68,4ZM49,77.2a3.36,3.36,0,0,0,.68,1.2,1.28,1.28,0,0,0,.74.23V79Q49.51,79,48.6,79c-.61,0-1.2,0-1.79.06v-.4a2.31,2.31,0,0,0,1-.19c.19-.1.2-.31.1-.55l-.83-2H43.26a16.62,16.62,0,0,0-.9,2.26c0,.45.66.38,1.15.45V79C43,79,42.48,79,42,79s-1,0-1.55.06v-.4c.76-.15.85,0,1.17-.73l.66-1.38,1.82-4.07c.43-1,.88-1.93,1.22-2.9h.43Z"/><path class="cls-1" d="M62.89,77.85l0,.49a16.55,16.55,0,0,0,1.9.07A7.82,7.82,0,0,0,67,78.19a3.2,3.2,0,0,0,.14-.43l.3-1.13.43,0c0,.19-.08.54-.13.91L67.6,79c-.43.06-1.29,0-2.09.06S64,79,63.21,79s-1.53,0-2.32.06v-.41c.64-.11.73-.5.73-1.58V71.23c0-1.05,0-1.14-1.28-1.21v-.4c.61,0,1.24.06,1.9.06s1.29,0,1.94-.06V70c-1.29.07-1.28.16-1.28,1.21Z"/><path class="cls-1" d="M80,71.66c0-.52,0-.95-.05-1.35l-2.07.06c-.29,0-.45.06-.48.4a7.39,7.39,0,0,0-.15,1h-.4c0-.26,0-.49,0-.75,0-.47,0-.95-.07-1.43,1.28,0,2.56.06,3.88.06s2.58,0,3.89-.06c0,.49-.05,1-.07,1.43,0,.26,0,.49,0,.75h-.4a9.88,9.88,0,0,0-.15-1c0-.35-.19-.39-.48-.4l-2.1-.06c0,.4,0,.83-.06,1.35v5.76c0,1.06,0,1.15,1.28,1.22V79c-.65,0-1.28-.06-1.94-.06s-1.29,0-1.9.06v-.41C80,78.56,80,78.47,80,77.41Z"/><path class="cls-1" d="M103.66,77.41c0,1.06,0,1.15,1.28,1.22V79c-.65,0-1.28-.06-1.94-.06s-1.29,0-1.9.06v-.41c1.29-.07,1.28-.16,1.28-1.22V74.29H97v3.13c0,1.06,0,1.15,1.28,1.22V79C97.62,79,97,79,96.33,79s-1.3,0-1.9.06v-.41c1.29-.07,1.28-.16,1.28-1.22V71.23c0-1.05,0-1.14-1.28-1.21v-.4c.6,0,1.24.06,1.9.06s1.29,0,1.94-.06V70C97,70.09,97,70.18,97,71.23v2.5h5.39v-2.5c0-1.05,0-1.14-1.28-1.21v-.4c.61,0,1.24.06,1.9.06s1.29,0,1.94-.06V70c-1.29.07-1.28.16-1.28,1.21Z"/><path class="cls-1" d="M123.38,78.44a7.18,7.18,0,0,1-3,.79c-3,0-5.46-1.75-5.46-4.95a4.89,4.89,0,0,1,5.19-4.88,13,13,0,0,1,3.51.61c-.14.67-.22,1.34-.29,2h-.39c0-.87.17-1.17-.62-1.57a4.65,4.65,0,0,0-2.17-.5,3.68,3.68,0,0,0-3.76,4,4.26,4.26,0,0,0,4.47,4.55,5,5,0,0,0,2.74-.85l.12.14Z"/><path class="cls-1" d="M140.08,75.34l-1.69-4-1.68,4Zm2.11,1.87a3.29,3.29,0,0,0,.69,1.2,1.26,1.26,0,0,0,.74.23V79c-.6,0-1.19-.06-1.79-.06s-1.2,0-1.79.06v-.4a2.32,2.32,0,0,0,1-.19c.19-.1.2-.31.09-.55l-.82-2h-3.83a15.71,15.71,0,0,0-.9,2.26c0,.45.66.38,1.15.45V79c-.51,0-1-.06-1.55-.06s-1,0-1.55.06v-.4c.76-.15.85,0,1.17-.73l.66-1.38,1.82-4.07c.43-1,.88-1.93,1.23-2.9h.43Z"/><path class="cls-1" d="M154.85,71.23c0-1.05,0-1.14-1.28-1.21v-.39c.75,0,1.53.06,2.33.06s1.58,0,2.36-.06c1.87-.1,2.73.91,2.73,2a2.88,2.88,0,0,1-2.63,2.59l3.06,4a1.19,1.19,0,0,0,.77.37V79a6.38,6.38,0,0,0-.92-.06,6.59,6.59,0,0,0-.91.06c-.21-.29-.36-.53-.55-.75l-3.21-4.13.06-.2a5.7,5.7,0,0,0,1.24,0A2,2,0,0,0,159.63,72a1.83,1.83,0,0,0-2.07-1.89,5.06,5.06,0,0,0-1.35.18,3,3,0,0,0-.08.93v6.18c0,1.06,0,1.15,1.28,1.22V79c-.65,0-1.28-.06-1.94-.06s-1.29,0-1.9.06v-.41c1.29-.07,1.28-.16,1.28-1.22Z"/><path class="cls-1" d="M174.42,77.19a7,7,0,0,0,.07,1.15,14.8,14.8,0,0,0,1.83.07,7.87,7.87,0,0,0,2.17-.23,3.55,3.55,0,0,0,.16-.68l.13-.75h.44a5.42,5.42,0,0,0-.14,1.09V79c-.5.06-1.4,0-2.23.06s-1.61-.06-2.43-.06-1.62,0-2.44.06v-.41a1.07,1.07,0,0,0,1.17-1.22V71.23c0-1.05,0-1.14-1.28-1.21v-.4c.82,0,1.63.06,2.46.06s1.66,0,2.47-.06,1.78,0,2.23.06a4.51,4.51,0,0,0-.22,1.3c0,.29,0,.51,0,.8h-.42a6.1,6.1,0,0,0-.19-1.32,6.51,6.51,0,0,0-2-.23,12.18,12.18,0,0,0-1.67.07,6.46,6.46,0,0,0-.07,1.11v2.52c2.93,0,3.12.19,3.14-1.13H178v3.11h-.44c0-1.52-.1-1.44-3.14-1.34Z"/><rect class="cls-1" x="208.86" y="15.27" width="1.49" height="75.68"/><rect class="cls-1" x="227.19" y="46.45" width="2.46" height="18.62"/><polygon class="cls-1" points="233.97 65.07 233.97 46.45 236.5 46.45 246.27 61.07 246.27 46.45 248.64 46.45 248.64 65.07 246.11 65.07 236.33 50.44 236.33 65.07 233.97 65.07"/><polygon class="cls-1" points="257.51 65.07 257.51 48.65 251.38 48.65 251.38 46.45 266.14 46.45 266.14 48.65 259.98 48.65 259.98 65.07 257.51 65.07"/><polygon class="cls-1" points="268.72 65.07 268.72 46.45 282.18 46.45 282.18 48.65 271.18 48.65 271.18 54.35 281.48 54.35 281.48 56.53 271.18 56.53 271.18 62.87 282.61 62.87 282.61 65.07 268.72 65.07"/><path class="cls-1" d="M288.52,54.67h5.29a7.92,7.92,0,0,0,2.64-.35,2.81,2.81,0,0,0,1.45-1.12,3,3,0,0,0,.49-1.67,2.77,2.77,0,0,0-1-2.17,4.48,4.48,0,0,0-3-.85h-5.89Zm-2.47,10.4V46.45h8.26a11,11,0,0,1,3.78.5,4.15,4.15,0,0,1,2.07,1.77,5.29,5.29,0,0,1,.77,2.81,4.68,4.68,0,0,1-1.28,3.34,6.48,6.48,0,0,1-4,1.73,6.4,6.4,0,0,1,1.49.93,12.9,12.9,0,0,1,2,2.48l3.24,5.07h-3.1L296.9,61.2q-1.08-1.68-1.78-2.57a5.57,5.57,0,0,0-1.25-1.24,3.65,3.65,0,0,0-1.12-.5,7.36,7.36,0,0,0-1.37-.09h-2.86v8.27Z"/><polygon class="cls-1" points="304.77 65.07 304.77 46.45 307.3 46.45 317.07 61.07 317.07 46.45 319.44 46.45 319.44 65.07 316.91 65.07 307.13 50.44 307.13 65.07 304.77 65.07"/><path class="cls-1" d="M326.91,57.42h6.31l-1.94-5.16q-.89-2.35-1.32-3.86A24,24,0,0,1,329,52Zm-5.37,7.64,7.15-18.62h2.65L339,65.07h-2.81L334,59.43h-7.78l-2,5.64Z"/><polygon class="cls-1" points="343.73 65.07 343.73 48.65 337.6 48.65 337.6 46.45 352.36 46.45 352.36 48.65 346.2 48.65 346.2 65.07 343.73 65.07"/><rect class="cls-1" x="355.3" y="46.45" width="2.46" height="18.62"/><path class="cls-1" d="M363.9,56a7.46,7.46,0,0,0,1.81,5.3,6.31,6.31,0,0,0,9.12,0,7.91,7.91,0,0,0,1.8-5.55,9.52,9.52,0,0,0-.77-4,5.91,5.91,0,0,0-2.25-2.63,6.11,6.11,0,0,0-3.32-.93,6.3,6.3,0,0,0-4.5,1.8q-1.89,1.8-1.89,6m-2.54,0a10.12,10.12,0,0,1,2.49-7.26,8.47,8.47,0,0,1,6.43-2.62,8.91,8.91,0,0,1,4.65,1.23,8.06,8.06,0,0,1,3.16,3.44,11.17,11.17,0,0,1,1.08,5A11,11,0,0,1,378,60.85a7.8,7.8,0,0,1-3.24,3.38,9.24,9.24,0,0,1-4.52,1.15,8.8,8.8,0,0,1-4.7-1.27,8.16,8.16,0,0,1-3.14-3.47A10.5,10.5,0,0,1,361.36,56"/><polygon class="cls-1" points="382.31 65.07 382.31 46.45 384.84 46.45 394.62 61.07 394.62 46.45 396.98 46.45 396.98 65.07 394.45 65.07 384.67 50.44 384.67 65.07 382.31 65.07"/><path class="cls-1" d="M404.45,57.42h6.31l-1.94-5.16q-.89-2.35-1.32-3.86a24,24,0,0,1-1,3.56Zm-5.37,7.64,7.15-18.62h2.65l7.62,18.62h-2.8l-2.17-5.64h-7.78l-2,5.64Z"/><polygon class="cls-1" points="418.37 65.07 418.37 46.45 420.83 46.45 420.83 62.87 430 62.87 430 65.07 418.37 65.07"/></svg>