<svg xmlns="http://www.w3.org/2000/svg" viewBox="0 0 423 89.63"><defs><style>.cls-1{fill:#455560;}.cls-2{fill:#fff;}.cls-3{fill:#0084a8;}</style></defs><title>Asset 1</title><g id="Layer_2" data-name="Layer 2"><g id="Layer_1-2" data-name="Layer 1"><path class="cls-1" d="M290,54.83l1.3-3.78h0l1.27,3.78Zm2.13-5.76h-1.55l-3.3,9.36h1.47l.77-2.21H293l.76,2.21h1.61Z"/><polygon class="cls-1" points="297.52 58.43 299.1 58.43 299.1 54.46 302.21 54.46 302.21 53.06 299.1 53.06 299.1 50.56 303.4 50.56 303.4 49.1 297.52 49.1 297.52 58.43"/><polygon class="cls-1" points="305.56 58.43 307.14 58.43 307.14 54.46 310.25 54.46 310.25 53.06 307.14 53.06 307.14 50.56 311.44 50.56 311.44 49.1 305.56 49.1 305.56 58.43"/><rect class="cls-1" x="313.7" y="49.11" width="1.59" height="9.32"/><polygon class="cls-1" points="318.26 58.43 324.14 58.43 324.14 56.99 319.84 56.99 319.84 49.1 318.26 49.1 318.26 58.43"/><rect class="cls-1" x="326.41" y="49.11" width="1.59" height="9.32"/><path class="cls-1" d="M332.95,54.83l1.3-3.78h0l1.27,3.78Zm2.13-5.76h-1.55l-3.31,9.36h1.47l.77-2.21H336l.76,2.21h1.61Z"/><polygon class="cls-1" points="341.52 58.43 343.1 58.43 343.1 50.56 345.98 50.56 345.98 49.1 338.65 49.1 338.65 50.56 341.52 50.56 341.52 58.43"/><polygon class="cls-1" points="348.13 58.43 354.4 58.43 354.4 56.99 349.7 56.99 349.7 54.29 352.97 54.29 352.97 52.88 349.7 52.88 349.7 50.56 354.15 50.56 354.15 49.1 348.13 49.1 348.13 58.43"/><polygon class="cls-1" points="90.04 58.41 91.61 58.41 91.61 54.26 95.85 54.26 95.85 58.41 97.42 58.41 97.42 49.09 95.85 49.09 95.85 52.8 91.61 52.8 91.61 49.09 90.04 49.09 90.04 58.41"/><path class="cls-1" d="M102.27,54.8l1.3-3.78h0l1.27,3.78ZM104.41,49h-1.55l-3.3,9.36H101l.77-2.22h3.54l.76,2.22h1.61Z"/><path class="cls-1" d="M111.39,53.36V50.52h1.71c1.33,0,2,.33,2,1.4s-.71,1.44-2,1.44Zm3.22,1.17a2.48,2.48,0,0,0,2.07-2.65c0-1.9-1.28-2.8-3.5-2.8h-3.34v9.32h1.55V54.73H113l2.09,3.67h1.69Z"/><polygon class="cls-1" points="121.48 58.45 122.97 58.45 126.21 49.09 124.72 49.09 122.27 56.36 122.25 56.36 119.84 49.09 118.24 49.09 121.48 58.45"/><path class="cls-1" d="M129.56,54.8l1.3-3.78h0l1.27,3.78ZM131.69,49h-1.55l-3.3,9.36h1.48l.77-2.22h3.54l.75,2.22H135Z"/><path class="cls-1" d="M138.67,53.36V50.52h1.71c1.34,0,2,.33,2,1.4s-.71,1.44-2,1.44Zm3.22,1.17A2.48,2.48,0,0,0,144,51.88c0-1.9-1.28-2.8-3.5-2.8h-3.34v9.32h1.55V54.73h1.63l2.1,3.67h1.69Z"/><path class="cls-1" d="M149.38,57h-1.22V50.55h1.19c2.15,0,3.15.92,3.15,3.16s-1,3.29-3.13,3.29m-.14-7.91h-2.66v9.32h2.66c2.89,0,4.84-1.37,4.84-4.7s-1.91-4.62-4.84-4.62"/><path class="cls-1" d="M160.43,58.41h1.43v-7h0a16.36,16.36,0,0,0,.57,2l1.8,5.05h1.4l1.82-5.05c.21-.65.41-1.26.56-1.9h0v7h1.52V49.09h-2.12L165,56.48h0l-2.5-7.39h-2.08Z"/><polygon class="cls-1" points="172.44 58.41 178.72 58.41 178.72 56.98 174.02 56.98 174.02 54.26 177.28 54.26 177.28 52.86 174.02 52.86 174.02 50.55 178.47 50.55 178.47 49.09 172.44 49.09 172.44 58.41"/><path class="cls-1" d="M183.82,57H182.6V50.55h1.2c2.14,0,3.15.92,3.15,3.16S186,57,183.82,57m-.14-7.91H181v9.32h2.66c2.89,0,4.84-1.37,4.84-4.7s-1.91-4.62-4.84-4.62"/><rect class="cls-1" x="191.06" y="49.09" width="1.59" height="9.32"/><path class="cls-1" d="M199.26,58.59a3.62,3.62,0,0,0,3.76-3.1l-1.5-.34c-.35,1.4-1,2-2.24,2-1.58,0-2.52-1.22-2.52-3.44s.92-3.34,2.49-3.34c1.23,0,1.77.63,2.13,1.87l1.5-.43a3.41,3.41,0,0,0-3.61-2.9c-2.35,0-4.1,1.69-4.1,4.81s1.7,4.87,4.1,4.87"/><path class="cls-1" d="M207,54.8,208.3,51h0l1.27,3.78ZM209.14,49h-1.55l-3.3,9.36h1.47l.77-2.22h3.54l.76,2.22h1.62Z"/><polygon class="cls-1" points="214.57 58.41 220.44 58.41 220.44 56.98 216.15 56.98 216.15 49.09 214.57 49.09 214.57 58.41"/><path class="cls-1" d="M229.28,58.59c2.22,0,3.52-1.2,3.52-2.72,0-1.75-1.41-2.33-3.18-2.85-1.52-.46-2.19-.74-2.19-1.62,0-.68.59-1.06,1.62-1.06a2.58,2.58,0,0,1,2.36,1.36l1.15-.79a3.68,3.68,0,0,0-3.5-2c-1.89,0-3.19,1-3.19,2.64,0,1.78,1.45,2.27,3.25,2.8,1.54.46,2.12.83,2.12,1.64s-.77,1.21-1.91,1.21a2.7,2.7,0,0,1-2.57-1.63l-1.25.66a3.88,3.88,0,0,0,3.76,2.37"/><path class="cls-1" d="M238.79,58.59a3.62,3.62,0,0,0,3.76-3.1l-1.5-.34c-.35,1.4-1,2-2.24,2-1.58,0-2.52-1.22-2.52-3.44s.92-3.34,2.5-3.34c1.23,0,1.77.63,2.13,1.87l1.5-.43a3.41,3.41,0,0,0-3.62-2.9c-2.34,0-4.09,1.69-4.09,4.81s1.7,4.87,4.09,4.87"/><polygon class="cls-1" points="244.93 58.41 246.51 58.41 246.51 54.26 250.75 54.26 250.75 58.41 252.32 58.41 252.32 49.09 250.75 49.09 250.75 52.8 246.51 52.8 246.51 49.09 244.93 49.09 244.93 58.41"/><path class="cls-1" d="M259,57.16c-1.59,0-2.64-1.22-2.64-3.42s1-3.39,2.64-3.39,2.61,1.2,2.61,3.39-1,3.42-2.61,3.42m0-8.25c-2.37,0-4.22,1.7-4.22,4.84s1.85,4.84,4.22,4.84,4.2-1.7,4.2-4.84-1.84-4.84-4.2-4.84"/><path class="cls-1" d="M269.34,57.16c-1.59,0-2.64-1.22-2.64-3.42s1-3.39,2.64-3.39,2.61,1.2,2.61,3.39-1,3.42-2.61,3.42m0-8.25c-2.37,0-4.22,1.7-4.22,4.84s1.85,4.84,4.22,4.84,4.19-1.7,4.19-4.84-1.84-4.84-4.19-4.84"/><polygon class="cls-1" points="275.96 58.41 281.83 58.41 281.83 56.98 277.54 56.98 277.54 49.09 275.96 49.09 275.96 58.41"/><path class="cls-1" d="M124.8,37.1a37.71,37.71,0,0,0-5.39-.26h-.69a37.2,37.2,0,0,0-5.34.26.81.81,0,0,1-.79-.9.86.86,0,0,1,.79-1c.53,0,1.06.05,3.59.05V10.1L106.62,37.36c-.16.37-.32.53-.9.53a.82.82,0,0,1-.9-.53l-10-27.42V35.3c2.54,0,3.07-.05,3.59-.05a.86.86,0,0,1,.79,1,.81.81,0,0,1-.79.9,40.47,40.47,0,0,0-4.54-.26,41,41,0,0,0-4.6.26.84.84,0,0,1-.79-.9.89.89,0,0,1,.79-1c.53,0,1.06.05,3.59.05V4.66c-2.54,0-3.07.05-3.59.05a.89.89,0,0,1-.79-1,.87.87,0,0,1,.79-.9,39.19,39.19,0,0,0,4.6.27h2.27c1.16,0,.95.74,1.21,1.53l9.57,26.52L117,4.66c.26-.69.21-1.48,1.11-1.53h1.32a37.23,37.23,0,0,0,5.39-.27.87.87,0,0,1,.79.9.89.89,0,0,1-.79,1c-.53,0-1.06-.05-3.65-.05V35.3c2.59,0,3.12-.05,3.65-.05a.89.89,0,0,1,.79,1,.84.84,0,0,1-.79.9"/><path class="cls-1" d="M138.27,17.07c-3.91,0-6,2.54-6,9.51s2.43,9.41,6,9.41c2.8,0,4.54-1.54,5.55-4.39.11-.37.32-.84.84-.84a.78.78,0,0,1,.79.79,3.37,3.37,0,0,1-.21,1c-1.74,4.07-4.54,5.28-7.66,5.28-5.71,0-9.56-4.54-9.56-11.25s3.86-11.2,9.56-11.2c4.07,0,7.61,2.53,7.61,5.86A2.51,2.51,0,0,1,142.82,24a2.34,2.34,0,0,1-2.32-2.32,2.29,2.29,0,0,1,1.9-2.33,4.41,4.41,0,0,0-4.12-2.27"/><path class="cls-1" d="M166,35c3,0,4.33-2.54,4.33-6.76a.81.81,0,0,1,.9-.79.76.76,0,0,1,.84.79c0,.53-.26,4.23-.26,6.39v1.64a.88.88,0,0,1-.79.9c-.53,0-1.85-.21-3-.21-4.65,0-12.1-.11-14-.11a37.71,37.71,0,0,0-5.39.26.84.84,0,0,1-.79-.9.89.89,0,0,1,.79-1c.53,0,1.06.05,3.59.05V4.66c-2.54,0-3.07.05-3.59.05a.89.89,0,0,1-.79-1,.87.87,0,0,1,.79-.9,37.23,37.23,0,0,0,5.39.27h.63a37.17,37.17,0,0,0,5.39-.27.87.87,0,0,1,.79.9.89.89,0,0,1-.79,1c-.53,0-1.06-.05-3.59-.05V35Z"/><path class="cls-1" d="M188.69,22.78A6.43,6.43,0,0,0,189,21a3.69,3.69,0,0,0-4-3.91c-2.54,0-4.86,1.06-5.65,5.71ZM179,26.58c0,6.34,2.27,9.46,6.08,9.46a6.21,6.21,0,0,0,6.34-4.44c.16-.37.37-.85.84-.85a.79.79,0,0,1,.85.79,3.37,3.37,0,0,1-.21,1,8.72,8.72,0,0,1-8.46,5.28c-4.59,0-9.67-4.17-9.67-11.25,0-6.71,4.7-11.2,9.72-11.2,5.6,0,8.93,4.17,8.4,9.24H179.07c-.05.58-.05,1.27-.05,2"/><path class="cls-1" d="M209.3,27.22c-5.76,0-8,1.75-8,4.86a3,3,0,0,0,2.85,3.22c1.11,0,2.69-.37,5.13-2.54ZM203.43,20a2.19,2.19,0,0,1-2.17,2.22A2.15,2.15,0,0,1,199.1,20c0-2.54,3.59-4.65,6.76-4.65,4.49,0,7.18,2.11,7.18,7.13V34.09c0,1.48.32,1.91,1,1.91s.74-.64,1.32-1.11a.86.86,0,0,1,1.22.11c.32.37.05,1.06-.27,1.32a5.14,5.14,0,0,1-3.59,1.22,3.38,3.38,0,0,1-3.33-3.07c-2.54,2.32-4.86,3.17-6.92,3.17-2.8,0-5.13-1.69-5.13-4.86,0-5,5.87-7.08,11.94-7.08V20.51C209.3,18,208,17,205.86,17a4.07,4.07,0,0,0-3.38,1.27,2.07,2.07,0,0,1,.95,1.8"/><path class="cls-1" d="M234.92,15.38c4.7,0,6.55,3.33,6.55,7.82V35.3c2.54,0,2.85-.05,3.38-.05a.89.89,0,0,1,.79,1,.84.84,0,0,1-.79.9,32.37,32.37,0,0,0-5.18-.26h-.21a31.87,31.87,0,0,0-5.12.26.81.81,0,0,1-.79-.9.86.86,0,0,1,.79-1c.53,0,.84.05,3.38.05V21.41c0-2.85-.85-4-3.17-4-3.59,0-7.29,4.65-7.29,10V35.3c2.54,0,2.85-.05,3.38-.05a.89.89,0,0,1,.79,1,.84.84,0,0,1-.79.9,32.32,32.32,0,0,0-5.18-.26h-.21a31.1,31.1,0,0,0-5.13.26.81.81,0,0,1-.79-.9.86.86,0,0,1,.79-1c.53,0,.79.05,3.38.05V17.87a31.49,31.49,0,0,0-3.38.16.86.86,0,0,1-.79-1,.81.81,0,0,1,.79-.9c.53,0,.79.05,3.38.05.85,0,2.43-.21,3-.21a.89.89,0,0,1,.79,1v4.38c1.06-2.8,4.13-6,7.66-6"/><path class="cls-1" d="M262.72,26.58V35.3c1.69,0,2-.05,2.48-.05a.86.86,0,0,1,.79.95.81.81,0,0,1-.79.9,29.34,29.34,0,0,0-4.22-.26h-.26a32.09,32.09,0,0,0-5.13.26.81.81,0,0,1-.79-.9.86.86,0,0,1,.79-.95c.53,0,.85.05,3.38.05V17c-2.53,0-2.85,0-3.38,0a.81.81,0,0,1-.79-.9.86.86,0,0,1,.79-.95,31.68,31.68,0,0,0,5.13.27H261a24.08,24.08,0,0,0,4.22-.27.86.86,0,0,1,.79.95.81.81,0,0,1-.79.9c-.53,0-1.06,0-2.48,0v7.76h9.35V17c-1.63,0-2,0-2.48,0a.81.81,0,0,1-.79-.9.86.86,0,0,1,.79-.95,24.38,24.38,0,0,0,4.28.27h.22a30.68,30.68,0,0,0,5.12-.27.86.86,0,0,1,.79.95.81.81,0,0,1-.79.9c-.53,0-.79,0-3.38,0V35.3c2.59,0,2.85-.05,3.38-.05a.85.85,0,0,1,.79.95.81.81,0,0,1-.79.9,31.07,31.07,0,0,0-5.12-.26h-.22a25.49,25.49,0,0,0-4.28.26.81.81,0,0,1-.79-.9.86.86,0,0,1,.79-.95c.53,0,.9.05,2.48.05V26.58Z"/><path class="cls-1" d="M291.78,16.65c-3.85,0-5.92,2.32-5.92,9.51s2.06,9.51,5.92,9.51,5.92-2.33,5.92-9.51-2.07-9.51-5.92-9.51m0,20.71c-5.5,0-10.15-4.49-10.15-11.2s4.65-11.25,10.15-11.25,10.15,4.54,10.15,11.25-4.6,11.2-10.15,11.2"/><path class="cls-1" d="M313.67,37.36a9.94,9.94,0,0,1-5.5-1.85,1.42,1.42,0,0,0-.37.9c0,.69-.16,1-.79,1s-.9-.37-.9-.9v-6c0-.53.16-.95.84-.95s.85.52.85.95c0,3.28,3.33,5.28,5.6,5.28,2.48,0,4.81-.85,4.81-3.75,0-1.85-1.37-2.91-4.23-3.75l-2.11-.63c-2.75-.84-6-2.59-6-6.39,0-4.22,3.59-6.28,7.24-6.28a7.65,7.65,0,0,1,4.49,1.43.44.44,0,0,0,.32-.48c0-.48.16-.95.79-.95s.85.42.85.9V21c0,.42-.16.9-.79.9a.78.78,0,0,1-.85-.9,4.53,4.53,0,0,0-4.81-4.49c-2.27,0-4.49,1.06-4.49,3.54,0,1.74,1.48,2.9,3.28,3.38l2.48.63c4.12,1.11,6.71,3.22,6.71,6.87,0,4.33-3.59,6.39-7.4,6.39"/><path class="cls-1" d="M332.79,26.85h2c3.8,0,5.18-1.38,5.18-5s-1.37-4.91-5.18-4.91h-2Zm0,8.45c2.54,0,2.85-.05,3.38-.05a.86.86,0,0,1,.79,1,.81.81,0,0,1-.79.9,31.87,31.87,0,0,0-5.12-.26h-.27a32,32,0,0,0-5.13.26.81.81,0,0,1-.79-.9.86.86,0,0,1,.79-1c.53,0,.85.05,3.38.05V17c-2.54,0-2.85.05-3.38.05a.81.81,0,0,1-.79-.9.86.86,0,0,1,.79-.95,27.88,27.88,0,0,0,4.6.26c1.8,0,2.64-.05,4.54-.05,5.81,0,8.93,2.7,8.93,6.45s-3.12,6.5-8.93,6.5h-2Z"/><path class="cls-1" d="M355.95,35.25a.86.86,0,0,1,.79,1,.81.81,0,0,1-.79.9,31.87,31.87,0,0,0-5.12-.26h-.26a32,32,0,0,0-5.13.26.81.81,0,0,1-.79-.9.86.86,0,0,1,.79-1c.53,0,.85.05,3.38.05V17c-2.54,0-2.85.05-3.38.05a.81.81,0,0,1-.79-.9.86.86,0,0,1,.79-.95,32,32,0,0,0,5.13.26h.26a31.87,31.87,0,0,0,5.12-.26.86.86,0,0,1,.79.95.81.81,0,0,1-.79.9c-.53,0-.84-.05-3.38-.05V35.3c2.54,0,2.85-.05,3.38-.05"/><path class="cls-1" d="M378.77,22.46a.84.84,0,0,1-.9-.79c0-3.81-.84-4.76-3.86-4.76H371.8V35.3c2.54,0,2.85-.05,3.38-.05a.86.86,0,0,1,.79,1,.81.81,0,0,1-.79.9,32,32,0,0,0-5.13-.26h-.21a32.32,32.32,0,0,0-5.18.26.84.84,0,0,1-.79-.9.89.89,0,0,1,.79-1c.53,0,.84.05,3.38.05V16.91h-2.17c-3.06,0-3.91,1-3.91,4.76a.82.82,0,0,1-.84.79.79.79,0,0,1-.85-.79c0-.53.21-2,.21-4.18V16.07a.86.86,0,0,1,.79-1c.48,0,2.11.26,3,.26h11.41c.79,0,2.43-.26,2.91-.26a.86.86,0,0,1,.79,1v1.43c0,2.17.26,3.65.26,4.18a.79.79,0,0,1-.85.79"/><path class="cls-1" d="M393,28.91,389.5,20.4l-3.7,8.51Zm-8,1.85-2,4.54c1.32,0,2-.05,2.48-.05a.89.89,0,0,1,.79,1,.84.84,0,0,1-.79.9,19.3,19.3,0,0,0-3.43-.26,18.07,18.07,0,0,0-3.33.26.81.81,0,0,1-.79-.9.86.86,0,0,1,.79-1c.53,0,.95.05,2.38.05l8.56-19.65c.15-.48.32-.74.84-.74s.63.21.85.74l8.3,19.65c1.69,0,1.85-.05,2.38-.05a.89.89,0,0,1,.79,1,.84.84,0,0,1-.79.9,23.28,23.28,0,0,0-4.28-.26h-.05a25.15,25.15,0,0,0-4.23.26.84.84,0,0,1-.79-.9.89.89,0,0,1,.79-1c.53,0,.69.05,2.22.05l-1.9-4.54Z"/><path class="cls-1" d="M417.45,35.41c3,0,3.85-1,3.85-4.75a.81.81,0,0,1,.9-.79.75.75,0,0,1,.79.79c0,.53-.21,2-.21,4.12v1.48a.84.84,0,0,1-.79.9c-.48,0-2.11-.21-3-.21l-9-.11a31.9,31.9,0,0,0-5.13.26.81.81,0,0,1-.79-.9.86.86,0,0,1,.79-.95c.53,0,.84.05,3.38.05V17c-2.54,0-2.85.05-3.38.05a.81.81,0,0,1-.79-.9.86.86,0,0,1,.79-.95,31.9,31.9,0,0,0,5.13.26h.26a32,32,0,0,0,5.13-.26.86.86,0,0,1,.79.95.81.81,0,0,1-.79.9c-.53,0-.85-.05-3.38-.05V35.41Z"/><path class="cls-2" d="M66.67.57V0L.13,0V.53S0,7.54,0,16.37c0,11.48.2,26,1.13,32.4,4.42,30.14,32,40.74,32.1,40.76l.23.09.22-.12S61.34,74.89,65.55,50c1-6.2,1.25-21.21,1.25-33.11C66.8,7.8,66.67.58,66.67.57"/><path class="cls-3" d="M64.47,49.82c-2,12.09-9.83,21.78-17.16,28.45A79.6,79.6,0,0,1,33.38,88.43a54.77,54.77,0,0,1-13.85-8.8,49.87,49.87,0,0,1-17.32-31c-.91-6.24-1.12-20.8-1.12-32.25,0-7.39.09-13.48.11-15.28l64.38,0c0,1.83.12,8.14.12,15.76,0,11.87-.23,26.93-1.23,32.93M66.67.57V0L.13,0V.53S0,7.54,0,16.37c0,11.48.2,26,1.13,32.4,4.42,30.14,32,40.74,32.1,40.76l.23.09.22-.12S61.34,74.89,65.55,50c1-6.2,1.25-21.21,1.25-33.11C66.8,7.8,66.67.58,66.67.57"/><path class="cls-3" d="M53.68,27.09a7.08,7.08,0,0,0,7.06,7.06,6.9,6.9,0,0,0,2.33-.42c.1-4.34.14-9,.15-13.23a7,7,0,0,0-9.55,6.6"/><path class="cls-3" d="M56.08,39.23l4.47,16.14A36.54,36.54,0,0,0,62.1,49.3a89.05,89.05,0,0,0,.77-9.38,12.53,12.53,0,0,1-6.79-.69"/><path class="cls-3" d="M29.73,10.45l3.71,16.08,3.71-16.18H48.08l2.42,8.73a12.89,12.89,0,0,1,12.72-4.77c0-6.15-.11-10.57-.11-10.57l-59.46,0s-.57,34.14.91,44.46a47.64,47.64,0,0,0,1.6,7.18L19,10.45Z"/><path class="cls-3" d="M30.44,66.09a2.18,2.18,0,0,0,.93-1.87,1.62,1.62,0,0,0-1.77-1.65A1.38,1.38,0,0,0,28.11,64c0,1,.91,1.56,2.33,2.07"/><path class="cls-3" d="M29,67.44a2.18,2.18,0,0,1-.33-.12,2.22,2.22,0,0,0-1,1.84,1.89,1.89,0,0,0,2,1.91,1.56,1.56,0,0,0,1.75-1.61c0-.9-.6-1.41-2.42-2"/><path class="cls-3" d="M46.56,71.46H41.11v-.59c1.31,0,1.73-.15,1.73-.56v-6.4c0-.72-.32-1-1.8-1v-.56l3.78-.27v8.23c0,.41.42.52,1.74.56Zm-6-15.59H26.79V50H40.6ZM40,71.46H34.58v-.59c1.3,0,1.72-.15,1.72-.56v-6.4c0-.72-.32-1-1.8-1v-.56l3.78-.27v8.23c0,.41.42.52,1.74.56Zm-10.27.24c-2.47,0-3.68-1-3.68-2.4A2.58,2.58,0,0,1,28,67a2.64,2.64,0,0,1-1.64-2.32c0-1.58,1.25-2.76,3.33-2.76S33,63,33,64.14c0,1-.69,1.65-1.92,2.16,1.41.59,2.21,1.37,2.21,2.6,0,1.59-1.51,2.8-3.48,2.8M25,71.46H19.59v-.59c1.31,0,1.72-.15,1.72-.56v-6.4c0-.72-.32-1-1.8-1v-.56l3.78-.27v8.23c0,.41.42.52,1.74.56ZM45.2,55.87V50h7.57L42.9,15.16,33.51,47l-9-31.62L14.49,50h7.7v5.9H6.32C13.22,77.53,33.4,85.42,33.4,85.42s20.18-10.89,27-29.55Z"/></g></g></svg>