<svg xmlns="http://www.w3.org/2000/svg" viewBox="0 0 201.64 40.99"><defs><style>.cls-1,.cls-3{fill:#fff;}.cls-1{stroke:#008ba7;stroke-miterlimit:3.86;stroke-width:0.41px;}.cls-2{fill:#008ba7;}.cls-4{fill:#41535d;}</style></defs><title>Asset 1</title><g id="Layer_2" data-name="Layer 2"><g id="Layer_1-2" data-name="Layer 1"><path class="cls-1" d="M17.58,40.75C.34,31.68.2,19.38.2.21H34.95C34.95,19.39,34.89,31.68,17.58,40.75Z"/><path class="cls-2" d="M33.77,1.58v-.1H1.34V3.14c0,7.2,0,14,2,20.23a25.22,25.22,0,0,0,4.82,8.75,30.05,30.05,0,0,0,9.39,7.2l0,0,0,0A30.05,30.05,0,0,0,27,32.09a25.32,25.32,0,0,0,4.8-8.77c2-6.26,2-13.12,2-20.39Z"/><path class="cls-3" d="M16.69,5.2h2.13c0-.69-.58-1.21-1.08-1.63A2.32,2.32,0,0,0,16.69,5.2Z"/><polygon class="cls-3" points="13.04 9.51 13.04 7.42 22.52 7.42 22.52 9.57 17.74 8.05 13.04 9.51"/><polygon class="cls-3" points="10.34 11.06 25.18 11.06 17.74 8.75 10.34 11.06"/><path class="cls-3" d="M14.14,7.11h7.26a3.72,3.72,0,0,0-2.46-1.6H16.6A3.85,3.85,0,0,0,14.14,7.11Z"/><path class="cls-3" d="M11.84,24.75c.1,0,.1.1.1.24v2.85c0,.22-.16.29-.37.3l-.46,0v.24l1.31,0,1.14,0v-.24l-.4,0c-.21,0-.37-.09-.37-.3V25.77c0-.77,0-1.33.07-1.64l-.08-.06a18,18,0,0,1-1.93.65,1,1,0,0,0,.09.45Z"/><path class="cls-3" d="M15.89,26.62c.37.16.67.36.67.81a.71.71,0,0,1-.69.73.82.82,0,0,1-.82-.86,1,1,0,0,1,.44-.86Zm0-.88c-.3-.13-.62-.3-.62-.69a.56.56,0,0,1,.62-.57.64.64,0,0,1,.66.7.87.87,0,0,1-.38.68Zm.08-1.6c-.87,0-1.37.49-1.37,1.2a1.07,1.07,0,0,0,.64,1,1.19,1.19,0,0,0-.75,1,1.15,1.15,0,0,0,1.29,1.13,1.43,1.43,0,0,0,1.5-1.43,1.14,1.14,0,0,0-.8-1.11,1.09,1.09,0,0,0,.61-.88C17.08,24.42,16.55,24.13,16,24.13Z"/><path class="cls-3" d="M19.12,24.75c.1,0,.1.1.1.24v2.85c0,.22-.16.29-.37.3l-.46,0v.24l1.31,0,1.14,0v-.24l-.4,0c-.21,0-.37-.09-.37-.3V25.77c0-.77,0-1.33.06-1.64l-.08-.06a17.8,17.8,0,0,1-1.93.65,1,1,0,0,0,.09.45Z"/><path class="cls-3" d="M22.52,24.75c.1,0,.1.1.1.24v2.85c0,.22-.16.29-.37.3l-.46,0v.24l1.31,0,1.14,0v-.24l-.4,0c-.21,0-.37-.09-.37-.3V25.77c0-.77,0-1.33.07-1.64l-.08-.06a18,18,0,0,1-1.93.65,1,1,0,0,0,.09.45Z"/><path class="cls-3" d="M21.5,17.68l-1.08,0-.94,0h-.6v.58H19l.52,0c.36,0,.48.08.48.28v1.24A3.31,3.31,0,0,1,18.8,20c-1.89,0-2.57-1.67-2.57-3.11a2.35,2.35,0,0,1,2.42-2.63,2.9,2.9,0,0,1,2,.64l0,.81v.08h.54v-.2a12,12,0,0,1,.21-1.38v0l0,0L21.4,14v0h0a7,7,0,0,0-2.74-.47c-2,0-4,1.08-4,3.49a3.54,3.54,0,0,0,1.14,2.76,4.24,4.24,0,0,0,2.85.95,7.9,7.9,0,0,0,2.91-.6l.05,0V18.44c0-.16.08-.2.44-.27H22v-.49H21.5Zm-7.92-4H12.47l-.58,0h-.06l0,.05-.13.32c-.11.26-.22.54-.35.79L9.6,18.4,8.12,15.31,8,15c-.2-.42-.45-.94-.58-1.26l0-.05H6.91l-.79,0-.79,0H4.85v.53h.08l.37,0c.26,0,.31.07.33.12a2.6,2.6,0,0,1,.06.76v4a2.61,2.61,0,0,1-.06.76c0,.05-.07.1-.33.12l-.37,0H4.85v.53h.46l.76,0,.75,0h.46v-.53H7.2l-.37,0c-.26,0-.31-.07-.33-.12a2.57,2.57,0,0,1-.06-.76V15.41l2.11,4.39.06.13c.11.23.21.45.29.68l0,.06h.45l0-.05c.13-.34.33-.77.59-1.3l1.87-3.89v3.73a2.61,2.61,0,0,1-.06.76s-.13.08-.34.09l-.36,0H11v.56h.38l1.25,0,1.23,0h.38V20h-.08l-.36,0c-.2,0-.31,0-.33-.09a2.54,2.54,0,0,1-.06-.76v-4a2.54,2.54,0,0,1,.06-.76c0-.05.07-.1.34-.12l.36,0h.08v-.53h-.09Zm15.92.67s.13-.08.34-.09l.37,0h.08v-.56H29.9l-1.25,0-1.26,0H27v.56h.08l.37,0c.21,0,.32,0,.34.09a2.57,2.57,0,0,1,.06.76V16.6H25V15.12a2.54,2.54,0,0,1,.06-.76s.13-.08.34-.09l.37,0h.08v-.56h-.38l-1.25,0-1.26,0h-.38v.56h.08l.37,0c.21,0,.32,0,.34.09a2.54,2.54,0,0,1,.06.76v4a2.56,2.56,0,0,1-.06.76S23.2,20,23,20l-.37,0h-.08v.56h.38l1.26,0,1.25,0h.38V20h-.08l-.37,0c-.21,0-.32,0-.34-.09a2.53,2.53,0,0,1-.06-.76V17.35h2.9v1.79a2.57,2.57,0,0,1-.06.76s-.13.08-.34.09l-.37,0H27v.56h.38l1.26,0,1.25,0h.38V20H30.2l-.37,0c-.21,0-.32,0-.34-.09a2.54,2.54,0,0,1-.06-.76v-4A2.55,2.55,0,0,1,29.5,14.36Z"/><path class="cls-4" d="M51.93,26.92a1.49,1.49,0,0,1-.08.63c-.09.28-1,.54-2.16.54-3.17,0-5-2.2-5-5.26,0-2.74,1.53-4.67,4.45-4.67a6.61,6.61,0,0,1,2.16.28c.72.26,1.28.51,1.28,1.23v.82h.48a9.61,9.61,0,0,1,.31-2.34,12.18,12.18,0,0,0-3.82-.63c-3.71,0-6.5,2.19-6.5,5.57,0,3.86,2.77,5.65,6.2,5.65a17.29,17.29,0,0,0,4-.79V25.36c0-.45,0-.51.17-.57l.45-.16-.06-.38c-.63,0-1.26,0-1.89,0s-1.25,0-1.88,0v.46l1.28.11c.4,0,.52.19.52.54Z"/><path class="cls-4" d="M56.61,26.58a2.73,2.73,0,0,1-.14,1.15c-.09.15-.28.2-.65.23l-.55,0v.46c.55,0,1.06,0,1.65,0,1,0,2.17,0,3.36,0s2.36,0,3,0a13.21,13.21,0,0,1,.25-2.52H63c-.11.92-.31,1.6-.54,1.72a14,14,0,0,1-3.11.2,5.34,5.34,0,0,1-1.29-.12V23.39c.48,0,1,0,1.79,0a3.84,3.84,0,0,1,1.63.19c.08,0,.11.19.12.38l.08.91h.46c0-.55,0-1.14,0-1.71s0-1.15,0-1.79h-.46l-.08.8a.59.59,0,0,1-.12.4,4.28,4.28,0,0,1-1.63.17c-.74,0-1.29,0-1.79,0V18.54a5.35,5.35,0,0,1,1.29-.12,9.51,9.51,0,0,1,3,.32c.12,0,.14.21.14.42v1h.54a10.26,10.26,0,0,1,.25-2.34c-.6,0-1.29,0-2,0-.88,0-2.29,0-3.63,0-.88,0-1.76,0-2.6,0v.46l.74,0c.37,0,.55.08.65.23a2.72,2.72,0,0,1,.14,1.15Z"/><path class="cls-4" d="M66.4,26.58a2.72,2.72,0,0,1-.14,1.15c-.09.15-.28.2-.65.23l-.68,0v.46c.62,0,1.23,0,1.79,0s1.17,0,1.85,0V28l-.68,0c-.37,0-.55-.08-.65-.23a2.71,2.71,0,0,1-.14-1.15v-7.1h0l7.25,9,1.38.25c0-.19,0-.38,0-.57v-8.5a2.72,2.72,0,0,1,.14-1.15c.09-.15.28-.2.65-.23l.68,0v-.46c-.68,0-1.23,0-1.85,0s-1.17,0-1.79,0v.46l.68,0c.37,0,.55.08.65.23A2.72,2.72,0,0,1,75,19.67v7.19h0l-7.36-9.08c-.28,0-.55,0-.83,0-.55,0-1.17,0-1.85,0v.46l.68,0c.37,0,.55.08.65.23a2.7,2.7,0,0,1,.14,1.15Z"/><path class="cls-4" d="M79.89,26.58a2.71,2.71,0,0,1-.14,1.15c-.09.15-.28.2-.65.23l-.55,0v.46c.55,0,1.06,0,1.65,0,1,0,2.17,0,3.36,0s2.36,0,3,0a13.21,13.21,0,0,1,.25-2.52H86.3c-.11.92-.31,1.6-.54,1.72a14,14,0,0,1-3.11.2,5.35,5.35,0,0,1-1.29-.12V23.39c.48,0,1,0,1.79,0a3.84,3.84,0,0,1,1.63.19c.08,0,.11.19.12.38l.08.91h.46c0-.55,0-1.14,0-1.71s0-1.15,0-1.79H85l-.08.8a.59.59,0,0,1-.12.4,4.29,4.29,0,0,1-1.63.17c-.74,0-1.29,0-1.79,0V18.54a5.35,5.35,0,0,1,1.29-.12,9.5,9.5,0,0,1,3,.32c.12,0,.14.21.14.42v1h.54a10.27,10.27,0,0,1,.25-2.34c-.6,0-1.29,0-2,0-.88,0-2.29,0-3.63,0-.88,0-1.75,0-2.6,0v.46l.74,0c.37,0,.55.08.65.23a2.7,2.7,0,0,1,.14,1.15Z"/><path class="cls-4" d="M91.38,18.54A6,6,0,0,1,93,18.36c1.2,0,2.43.46,2.43,2.12a2.27,2.27,0,0,1-2,2.15A6,6,0,0,1,92,22.7l-.09.18c.26.32.55.62.8,1l2.83,3.8c.2.28.43.54.63.83.35,0,.69,0,1,0s.71,0,1.11,0V28a1.19,1.19,0,0,1-.94-.4l-3.49-4.56c1.49-.29,3-1.29,3-3,0-1.11-.65-2.36-3.11-2.31-.89,0-1.79,0-2.69,0s-1.8,0-2.62,0v.46l.63,0c.37,0,.55.08.65.23a2.72,2.72,0,0,1,.14,1.15v6.91a2.73,2.73,0,0,1-.14,1.15c-.09.15-.28.21-.65.23l-.74,0v.46c.8,0,1.52,0,2.28,0s1.43,0,2.23,0V28l-.74,0c-.37,0-.55-.08-.65-.23a2.71,2.71,0,0,1-.14-1.15Z"/><path class="cls-4" d="M104.28,17.65h-.49c-.42,1.11-.94,2.25-1.42,3.33l-2.74,6.23a1.1,1.1,0,0,1-.83.75l-.57,0v.46c.59,0,1.17,0,1.77,0,.45,0,1,0,1.77,0V28l-.57,0c-.48,0-.74-.11-.74-.43a8.93,8.93,0,0,1,.54-1.6l.43-1h4.43l.71,1.77a3.61,3.61,0,0,1,.32,1c0,.18-.31.29-.63.31l-.72,0v.46c.83,0,1.51,0,2,0,.69,0,1.37,0,2,0V28l-.52,0c-.28,0-.45-.23-.62-.52s-.35-.74-.49-1Zm-2.59,6.63,2-4.59,1.94,4.59Z"/><path class="cls-4" d="M113.47,19.67a2.72,2.72,0,0,1,.14-1.15c.09-.15.28-.22.65-.23l.74,0v-.46c-.8,0-1.52,0-2.23,0s-1.48,0-2.28,0v.46l.74,0c.37,0,.55.08.64.23a2.69,2.69,0,0,1,.14,1.15V27a1,1,0,0,1-.38.91l-.48.25v.35c.4,0,.78,0,1.31,0,1,0,2,0,3.36,0,1.14,0,2.36,0,3,0,.12-.77.23-1.8.32-2.65h-.49l-.19.77a2.7,2.7,0,0,1-.32,1,11.21,11.21,0,0,1-3.4.29,5.34,5.34,0,0,1-1.29-.12Z"/><path class="cls-4" d="M134.25,19.67a2.73,2.73,0,0,1,.14-1.15c.09-.15.28-.22.65-.23l.74,0v-.46c-.8,0-1.52,0-2.23,0s-1.48,0-2.28,0v.46l.74,0c.37,0,.55.08.65.23a2.72,2.72,0,0,1,.14,1.15V22.4c-.19,0-.6,0-1.28,0h-3.6c-.68,0-1.09,0-1.28,0V19.67a2.72,2.72,0,0,1,.14-1.15c.09-.15.28-.22.65-.23l.74,0v-.46c-.8,0-1.53,0-2.23,0s-1.48,0-2.28,0v.46l.74,0c.37,0,.55.08.65.23a2.72,2.72,0,0,1,.14,1.15v6.91a2.73,2.73,0,0,1-.14,1.15c-.09.15-.28.21-.65.23l-.74,0v.46c.8,0,1.52,0,2.28,0s1.43,0,2.23,0V28l-.74,0c-.37,0-.55-.08-.65-.23a2.73,2.73,0,0,1-.14-1.15V23.14c.19,0,.6,0,1.28,0h3.6c.68,0,1.09,0,1.28,0v3.43a2.73,2.73,0,0,1-.14,1.15c-.09.15-.28.21-.65.23l-.74,0v.46c.8,0,1.52,0,2.28,0s1.43,0,2.23,0V28L135,28c-.37,0-.55-.08-.65-.23a2.74,2.74,0,0,1-.14-1.15Z"/><path class="cls-4" d="M141.92,28.73a5.89,5.89,0,0,0,6-6c0-3.42-2.34-5.27-5.63-5.27a5.45,5.45,0,0,0-5.79,5.62A5.26,5.26,0,0,0,141.92,28.73ZM142,18.16c2.86,0,4.23,2,4.23,5.1,0,2.83-1.25,4.83-3.82,4.83-3,0-4.31-2.83-4.31-5.53C138.1,20,139.31,18.16,142,18.16Z"/><path class="cls-4" d="M155.82,20.33a10.79,10.79,0,0,1,.22-2.17,7.21,7.21,0,0,0-2.79-.65c-1.85,0-3.94,1.09-3.94,3.48,0,1.6,1,2.36,3.37,2.63,1.57.19,2.71.6,2.71,2.06a2.53,2.53,0,0,1-2.76,2.37c-1.21,0-2.43-.58-2.51-1.23l-.12-1h-.49a13.74,13.74,0,0,1-.11,2.36,6.61,6.61,0,0,0,2.63.58c2.3,0,4.65-1.26,4.65-3.89,0-1.75-1.37-2.29-3.54-2.52-1.92-.22-2.54-.86-2.54-1.91a2.19,2.19,0,0,1,2.28-2.25,3.42,3.42,0,0,1,1.68.37c.57.36.63.51.68.92l.09.88Z"/><path class="cls-4" d="M161.11,18.54a6,6,0,0,1,1.57-.18c1.53,0,2.49.69,2.49,2.29A2.22,2.22,0,0,1,163,22.95a3.28,3.28,0,0,1-1-.16l.15.55a4.62,4.62,0,0,0,.92.09,3.46,3.46,0,0,0,3.69-3.31c0-1.74-1.69-2.38-3.19-2.36-.83,0-1.72,0-2.62,0s-1.76,0-2.77,0v.46l.69,0c.38,0,.56.11.66.26a2.61,2.61,0,0,1,.15,1.12v6.91a2.73,2.73,0,0,1-.14,1.15c-.09.15-.28.21-.65.23l-.74,0v.46c.8,0,1.53,0,2.28,0s1.43,0,2.23,0V28l-.74,0c-.37,0-.55-.08-.65-.23a2.74,2.74,0,0,1-.14-1.15Z"/><path class="cls-4" d="M170.62,19.67a2.69,2.69,0,0,1,.14-1.15c.09-.15.28-.22.65-.23l.74,0v-.46c-.8,0-1.52,0-2.23,0s-1.48,0-2.28,0v.46l.74,0c.37,0,.55.08.65.23a2.69,2.69,0,0,1,.14,1.15v6.91a2.7,2.7,0,0,1-.14,1.15c-.09.15-.28.21-.65.23l-.74,0v.46c.8,0,1.52,0,2.28,0s1.43,0,2.23,0V28l-.74,0c-.37,0-.55-.08-.65-.23a2.7,2.7,0,0,1-.14-1.15Z"/><path class="cls-4" d="M176.81,26.58a2.73,2.73,0,0,1-.14,1.15c-.09.15-.28.21-.65.23l-.74,0v.46c.8,0,1.52,0,2.28,0s1.43,0,2.23,0V28l-.74,0c-.37,0-.55-.08-.64-.23a2.7,2.7,0,0,1-.14-1.15V20.06a15.27,15.27,0,0,1,.06-1.54h2.39c.46,0,.58.14.62.51l.06,1.21h.48c0-.83,0-1.68.11-2.48-1.11,0-2.22,0-3.32,0h-2.23c-1.11,0-2.22,0-3.33,0,.08.8.11,1.65.11,2.48h.48l.06-1.21c0-.37.16-.51.62-.51h2.39c0,.46.06,1,.06,1.54Z"/><path class="cls-4" d="M187.14,17.65h-.49c-.41,1.11-.94,2.25-1.42,3.33l-2.74,6.23a1.11,1.11,0,0,1-.83.75l-.57,0v.46c.58,0,1.17,0,1.77,0,.45,0,1,0,1.77,0V28l-.57,0c-.48,0-.74-.11-.74-.43a8.87,8.87,0,0,1,.54-1.6l.43-1h4.43l.71,1.77a3.56,3.56,0,0,1,.32,1c0,.18-.31.29-.63.31l-.72,0v.46c.83,0,1.51,0,2,0,.69,0,1.37,0,2,0V28L192,28c-.28,0-.45-.23-.62-.52s-.35-.74-.49-1Zm-2.59,6.63,2-4.59,1.94,4.59Z"/><path class="cls-4" d="M195.94,19.67a2.72,2.72,0,0,1,.14-1.15c.09-.15.28-.22.65-.23l.74,0v-.46c-.8,0-1.52,0-2.23,0s-1.48,0-2.28,0v.46l.74,0c.37,0,.55.08.64.23a2.69,2.69,0,0,1,.14,1.15V27a1,1,0,0,1-.38.91l-.48.25v.35c.4,0,.79,0,1.31,0,1,0,2,0,3.36,0,1.14,0,2.36,0,3,0,.12-.77.23-1.8.32-2.65h-.49l-.19.77a2.7,2.7,0,0,1-.32,1,11.2,11.2,0,0,1-3.4.29,5.34,5.34,0,0,1-1.29-.12Z"/><path class="cls-4" d="M55.49,3.46a2.71,2.71,0,0,1,.14-1.15c.09-.15.28-.2.65-.23l.65,0V1.57c-.45,0-.94,0-1.43,0s-1,0-1.46,0l-4,8.56L45.93,1.57c-.48,0-1,0-1.46,0s-1,0-1.46,0V2l.68,0c.37,0,.55.08.65.23a2.74,2.74,0,0,1,.14,1.15v6.91a2.73,2.73,0,0,1-.14,1.15c-.09.15-.28.2-.65.23l-.68,0v.46c.62,0,1.23,0,1.79,0s1.17,0,1.85,0V11.8l-.68,0c-.37,0-.55-.08-.65-.23a2.71,2.71,0,0,1-.14-1.15v-7h0l4.26,9h.31c.28-.64.54-1.32.83-2l2.74-5.82c.2-.42.42-.85.65-1.26h0v7a2.72,2.72,0,0,1-.14,1.15c-.09.15-.28.2-.65.23l-.52,0v.46c.58,0,1.31,0,2.06,0s1.43,0,2.23,0V11.8l-.74,0c-.37,0-.55-.08-.65-.23a2.71,2.71,0,0,1-.14-1.15Z"/><path class="cls-4" d="M63.06,1.44h-.49c-.42,1.11-.94,2.25-1.42,3.33L58.42,11a1.1,1.1,0,0,1-.83.75l-.57,0v.46c.58,0,1.17,0,1.77,0,.45,0,1,0,1.77,0V11.8l-.57,0c-.48,0-.74-.11-.74-.43a8.93,8.93,0,0,1,.54-1.6l.43-1h4.43l.71,1.77a3.62,3.62,0,0,1,.32,1c0,.18-.31.29-.63.31l-.72,0v.46c.83,0,1.51,0,2,0,.69,0,1.37,0,2,0V11.8l-.52,0c-.28,0-.45-.23-.62-.52s-.35-.74-.49-1ZM60.48,8.08l2-4.59,1.94,4.59Z"/><path class="cls-4" d="M75.44,4.12A10.81,10.81,0,0,1,75.65,2a7.21,7.21,0,0,0-2.79-.64c-1.85,0-3.94,1.09-3.94,3.48,0,1.6,1,2.36,3.37,2.63C73.87,7.6,75,8,75,9.48a2.53,2.53,0,0,1-2.75,2.37c-1.22,0-2.43-.59-2.51-1.23l-.12-1h-.49A13.72,13.72,0,0,1,69,11.94a6.6,6.6,0,0,0,2.63.59c2.29,0,4.65-1.26,4.65-3.9,0-1.75-1.37-2.29-3.54-2.52-1.92-.22-2.54-.86-2.54-1.91A2.19,2.19,0,0,1,72.5,2a3.42,3.42,0,0,1,1.68.37c.57.35.63.51.68.92l.09.88Z"/><path class="cls-4" d="M84.19,4.12A10.88,10.88,0,0,1,84.41,2a7.2,7.2,0,0,0-2.79-.64c-1.85,0-3.94,1.09-3.94,3.48,0,1.6,1,2.36,3.37,2.63,1.57.19,2.71.6,2.71,2.06A2.53,2.53,0,0,1,81,11.85c-1.22,0-2.43-.59-2.51-1.23l-.12-1h-.49a13.74,13.74,0,0,1-.11,2.36,6.6,6.6,0,0,0,2.63.59c2.29,0,4.65-1.26,4.65-3.9,0-1.75-1.37-2.29-3.54-2.52C79.59,5.89,79,5.25,79,4.2A2.19,2.19,0,0,1,81.25,2a3.42,3.42,0,0,1,1.68.37c.57.35.63.51.68.92l.09.88Z"/><path class="cls-4" d="M91.17,1.44h-.49c-.42,1.11-.94,2.25-1.42,3.33L86.52,11a1.1,1.1,0,0,1-.83.75l-.57,0v.46c.59,0,1.17,0,1.77,0,.45,0,1,0,1.77,0V11.8l-.57,0c-.48,0-.74-.11-.74-.43a8.93,8.93,0,0,1,.54-1.6l.43-1h4.43l.71,1.77a3.59,3.59,0,0,1,.32,1c0,.18-.31.29-.63.31l-.72,0v.46c.83,0,1.51,0,2,0,.69,0,1.37,0,2,0V11.8l-.52,0c-.28,0-.45-.23-.62-.52s-.35-.74-.49-1ZM88.58,8.08l2-4.59,1.94,4.59Z"/><path class="cls-4" d="M106.49,10.93l-.14-.15a5.85,5.85,0,0,1-3.12.92,4.74,4.74,0,0,1-5.06-5c0-2.62,1.52-4.73,4.42-4.73a5.74,5.74,0,0,1,1.72.26c.71.26,1.32.53,1.32,1V4.28h.48a11.41,11.41,0,0,1,.29-2.34,11.36,11.36,0,0,0-3.56-.63,6.94,6.94,0,0,0-4.45,1.48,5.15,5.15,0,0,0-1.88,4.14c0,3.5,2.5,5.61,6.19,5.61a7.55,7.55,0,0,0,3.35-.83Z"/><path class="cls-4" d="M118.27,3.46a2.74,2.74,0,0,1,.14-1.15c.09-.15.28-.22.65-.23l.74,0V1.57c-.8,0-1.52,0-2.23,0s-1.48,0-2.28,0V2l.74,0c.37,0,.55.08.65.23a2.73,2.73,0,0,1,.14,1.15V6.2c-.19,0-.6,0-1.28,0h-3.6c-.68,0-1.09,0-1.28,0V3.46a2.74,2.74,0,0,1,.14-1.15c.09-.15.28-.22.65-.23l.74,0V1.57c-.8,0-1.52,0-2.23,0s-1.48,0-2.28,0V2l.74,0c.37,0,.55.08.65.23a2.72,2.72,0,0,1,.14,1.15v6.91a2.72,2.72,0,0,1-.14,1.15c-.09.15-.28.21-.65.23l-.74,0v.46c.8,0,1.52,0,2.28,0s1.43,0,2.23,0V11.8l-.74,0c-.37,0-.55-.08-.65-.23a2.73,2.73,0,0,1-.14-1.15V6.94c.19,0,.6,0,1.28,0h3.6c.68,0,1.09,0,1.28,0v3.43a2.72,2.72,0,0,1-.14,1.15c-.09.15-.28.21-.65.23l-.74,0v.46c.8,0,1.52,0,2.28,0s1.43,0,2.23,0V11.8l-.74,0c-.37,0-.55-.08-.65-.23a2.73,2.73,0,0,1-.14-1.15Z"/><path class="cls-4" d="M122.4,8.93c0,2.82,1.54,3.6,4.16,3.6,3.11,0,4.36-1.32,4.36-4.62V3.46A2.72,2.72,0,0,1,131,2.31c.09-.15.28-.2.65-.23l.68,0V1.57c-.68,0-1.23,0-1.85,0s-1.17,0-1.79,0V2l.68,0c.37,0,.55.08.65.23a2.77,2.77,0,0,1,.14,1.15V8.39c0,2.56-1.51,3.19-3.17,3.19-2,0-3.17-.63-3.17-2.82V3.46A2.73,2.73,0,0,1,124,2.31c.09-.15.28-.22.65-.23l.74,0V1.57c-.8,0-1.52,0-2.23,0s-1.48,0-2.28,0V2l.74,0c.37,0,.55.08.65.23a2.77,2.77,0,0,1,.14,1.15Z"/><path class="cls-4" d="M139.9,4.12A11,11,0,0,1,140.11,2a7.2,7.2,0,0,0-2.79-.64c-1.85,0-3.94,1.09-3.94,3.48,0,1.6,1,2.36,3.37,2.63,1.57.19,2.71.6,2.71,2.06a2.53,2.53,0,0,1-2.76,2.37c-1.21,0-2.43-.59-2.51-1.23l-.12-1h-.49a13.73,13.73,0,0,1-.11,2.36,6.6,6.6,0,0,0,2.63.59c2.29,0,4.65-1.26,4.65-3.9,0-1.75-1.37-2.29-3.54-2.52-1.92-.22-2.54-.86-2.54-1.91A2.19,2.19,0,0,1,137,2a3.42,3.42,0,0,1,1.68.37c.57.35.63.51.68.92l.09.88Z"/><path class="cls-4" d="M143.44,10.37a2.73,2.73,0,0,1-.14,1.15c-.09.15-.28.2-.65.23l-.55,0v.46c.55,0,1.06,0,1.65,0,1,0,2.17,0,3.36,0s2.36,0,3,0a13.23,13.23,0,0,1,.25-2.53h-.54c-.11.92-.31,1.6-.54,1.72a14.15,14.15,0,0,1-3.11.2,5.34,5.34,0,0,1-1.29-.12V7.19c.47,0,1,0,1.79,0a3.83,3.83,0,0,1,1.63.19c.08,0,.11.18.12.38l.08.91H149c0-.55,0-1.14,0-1.71s0-1.15,0-1.79h-.46l-.08.8c0,.2,0,.34-.12.4a4.27,4.27,0,0,1-1.63.17c-.74,0-1.29,0-1.79,0V2.34a5.44,5.44,0,0,1,1.29-.12,9.54,9.54,0,0,1,3,.32c.12,0,.14.22.14.42V4h.54a10.12,10.12,0,0,1,.25-2.34c-.6,0-1.29,0-2,0-.88,0-2.29,0-3.63,0-.88,0-1.75,0-2.6,0V2l.74,0c.37,0,.56.08.65.23a2.73,2.73,0,0,1,.14,1.15Z"/><path class="cls-4" d="M155.18,10.37a2.69,2.69,0,0,1-.14,1.15c-.09.15-.28.21-.64.23l-.74,0v.46c.8,0,1.52,0,2.28,0s1.43,0,2.23,0V11.8l-.74,0c-.37,0-.55-.08-.65-.23a2.72,2.72,0,0,1-.14-1.15V3.86a15.21,15.21,0,0,1,.06-1.54h2.39c.46,0,.59.14.62.51L159.77,4h.48c0-.83,0-1.68.11-2.48-1.11,0-2.22,0-3.33,0H154.8c-1.11,0-2.22,0-3.32,0,.08.8.11,1.65.11,2.48h.48l.06-1.22c0-.37.15-.51.62-.51h2.38a15.26,15.26,0,0,1,.06,1.54Z"/><path class="cls-4" d="M165,10.37a2.73,2.73,0,0,1-.14,1.15c-.09.15-.28.21-.65.23l-.74,0v.46c.8,0,1.52,0,2.28,0s1.43,0,2.23,0V11.8l-.74,0c-.37,0-.55-.08-.65-.23a2.72,2.72,0,0,1-.14-1.15V3.86a15.21,15.21,0,0,1,.06-1.54h2.39c.46,0,.59.14.62.51L169.58,4h.48c0-.83,0-1.68.11-2.48-1.11,0-2.22,0-3.33,0h-2.23c-1.11,0-2.22,0-3.33,0,.08.8.11,1.65.11,2.48h.48l.06-1.22c0-.37.15-.51.62-.51h2.38A15.25,15.25,0,0,1,165,3.86Z"/><path class="cls-4" d="M177.7,4.12A10.81,10.81,0,0,1,177.91,2a7.2,7.2,0,0,0-2.79-.64c-1.85,0-3.94,1.09-3.94,3.48,0,1.6,1,2.36,3.37,2.63,1.57.19,2.71.6,2.71,2.06a2.53,2.53,0,0,1-2.76,2.37c-1.22,0-2.43-.59-2.51-1.23l-.12-1h-.49a13.74,13.74,0,0,1-.11,2.36,6.6,6.6,0,0,0,2.63.59c2.29,0,4.65-1.26,4.65-3.9,0-1.75-1.37-2.29-3.54-2.52-1.92-.22-2.54-.86-2.54-1.91A2.19,2.19,0,0,1,174.76,2a3.42,3.42,0,0,1,1.68.37c.57.35.63.51.68.92l.09.88Z"/></g></g></svg>