<svg xmlns="http://www.w3.org/2000/svg" viewBox="0 0 268.85 58.06"><defs><style>.cls-1{fill:#008bb0;}.cls-2,.cls-3{fill:#fff;}.cls-3{stroke:#fff;stroke-miterlimit:3.86;stroke-width:0.08px;}.cls-4{fill:#455560;}</style></defs><title>Asset 1</title><g id="Layer_2" data-name="Layer 2"><g id="Layer_1-2" data-name="Layer 1"><path class="cls-1" d="M24.77,58.06S14.09,52.64,7,42.88,0,16.56,0,0H49.54c0,16.56.16,33.13-7,42.88S24.77,58.06,24.77,58.06Z"/><path class="cls-2" d="M24.76,57.21S14.37,51.94,7.44,42.45.66,16.85.66.73H48.86c0,16.12.15,32.23-6.78,41.72S24.76,57.21,24.76,57.21Z"/><path class="cls-1" d="M24.78,56A52,52,0,0,1,8.42,41.92C1.88,32.88,2,17.53,2,2.17H47.54c0,15.35.14,30.71-6.4,39.74A52,52,0,0,1,24.78,56Z"/><polygon class="cls-2" points="26.24 9.67 48.22 11.61 48.22 7 26.24 9.67"/><path class="cls-2" d="M26.15,40.41c2.37-1.38,3.35-1.77,5.2-1.72a7.23,7.23,0,0,1,3.46,1.25c.13.1.2,0,.1-.1a7.91,7.91,0,0,0-7-2.66,10.7,10.7,0,0,0-4.36,1.46c-2.63,1.44-4.77,2.25-6.24,2.19a4.08,4.08,0,0,1-2.3-.89c-.12-.1-.22,0-.1.1C16.5,41.69,19,42.41,22.05,42A13.11,13.11,0,0,0,26.15,40.41Z"/><path class="cls-2" d="M27.91,43a4.82,4.82,0,0,1,3-1.07,4.12,4.12,0,0,1,2,.76c.07.06.12,0,.06-.06A4.48,4.48,0,0,0,28.93,41a6.12,6.12,0,0,0-2.56.91,7.88,7.88,0,0,1-3.66,1.36,2.31,2.31,0,0,1-1.34-.54c-.07-.06-.13,0-.06.06A4.63,4.63,0,0,0,25.51,44,7.54,7.54,0,0,0,27.91,43Z"/><path class="cls-3" d="M7.45,25.52c0-.88,0-1-1-.95V24c.49,0,.91.06,1.23.06l1.28,0,2.87,3.55,2,2.25.28.31V25.52c0-.88,0-1-1-.95V24c.55,0,1,.06,1.38.06s.82,0,1.44-.06v.53c-1,0-1,.06-1,.95v5.83l0,.92v.31l-.06.06-1-.16L8.17,26V31c0,.88,0,1,1,.95v.53c-.59,0-1-.06-1.41-.06s-.82,0-1.4.06V32c1,0,1-.06,1-.95Z"/><path class="cls-3" d="M17.15,30l0,1.08a2.7,2.7,0,0,0,2,.95,1.71,1.71,0,0,0,1.93-1.67A1.28,1.28,0,0,0,20,29l-1.21-.21c-1.46-.26-2.19-1.14-2.19-2.2,0-2,1.46-2.72,3.25-2.72a6,6,0,0,1,2.3.43l0,.15A11.92,11.92,0,0,0,22,26.24h-.55l0-1a2.14,2.14,0,0,0-1.64-.68A1.57,1.57,0,0,0,18,26c0,1,.65,1.16,1.44,1.29l1,.19c1.38.26,2.2,1,2.2,2.2a2.8,2.8,0,0,1-2,2.73,6.17,6.17,0,0,1-1.65.23,5.53,5.53,0,0,1-2.57-.6A9.93,9.93,0,0,0,16.66,30Z"/><path class="cls-3" d="M32.07,25.72,30.74,28.4l-1.81,3.88-.14.28h-.42c0-.11-.28-.68-.44-1l-2.83-5.84V31c0,.88,0,1,1,.95v.53c-.58,0-1-.06-1.39-.06s-.82,0-1.43.06V32c1,0,1-.06,1-.95V25.52c0-.88,0-1-1-.95V24c.72,0,1.18.06,1.54.06s.81,0,1.42-.06c.22.53.64,1.46.92,2l1.94,4.06c.2-.36.37-.71.54-1.08.9-1.92,2-4.21,2.31-5,.6,0,1.06.06,1.41.06s.81,0,1.43-.06v.53c-1,0-1,.06-1,.95V31c0,.88,0,1,1,.95v.53c-.81,0-1.43-.06-1.91-.06s-1.11,0-1.92.06V32c1,0,1-.07,1-1Z"/><path class="cls-3" d="M42.91,32a5.36,5.36,0,0,1-2.83.68,5.1,5.1,0,0,1-3.49-1.16,4.41,4.41,0,0,1-1.38-3.36c0-2.83,2.3-4.24,4.92-4.24a8.51,8.51,0,0,1,2.8.46c.1,0,.23.06.2.25a18.25,18.25,0,0,0-.2,1.89h-.48c0-.36,0-.7-.07-1.06a2.88,2.88,0,0,0-2.2-.85,3.09,3.09,0,0,0-2.39,1A3.65,3.65,0,0,0,37.07,28a4,4,0,0,0,1,2.8,3.26,3.26,0,0,0,2.64,1.07A5.24,5.24,0,0,0,43,31.23l.15.15Z"/><path class="cls-2" d="M28,11.74a10,10,0,0,0-3.25-.44,10.89,10.89,0,0,0-3.26.45l.55-3.67a6.87,6.87,0,0,1,5.44,0Z"/><path class="cls-2" d="M31.27,14.5a17.43,17.43,0,0,0-6.48-1.2,17.44,17.44,0,0,0-6.53,1.22l1.1-.8a15.27,15.27,0,0,1,10.89,0Z"/><path class="cls-2" d="M31.27,16a18.1,18.1,0,0,0-13,0l1.88,1.28-.72,4.07a15.3,15.3,0,0,1,10.74,0h0l-.67-4.1Z"/><path class="cls-2" d="M21.56,7.25a7.17,7.17,0,0,1,6.54.07L24.78,5.15Z"/><path class="cls-2" d="M25.18,5.41a.37.37,0,0,1-.25-.32A2.07,2.07,0,0,1,25,4.62s.17-.12-.22-.38c-.39.27-.22.38-.22.38a2,2,0,0,1,.06.47.37.37,0,0,1-.25.32"/><path class="cls-4" d="M77.48,15.82V4.17c0-1.36-.42-1.57-1.85-1.57l-.37,0v-.7c.94.07,1.87.12,2.81.12s1.87,0,2.79-.12v.7l-.37,0c-1.48,0-1.92.21-1.92,1.57V17.74l.07.87-1.85-.33L65.46,4.52V16c0,1.36.44,1.57,1.92,1.57l.38,0v.7c-.91-.07-1.85-.12-2.79-.12s-1.87,0-2.81.12v-.7l.37,0c1.43,0,1.85-.21,1.85-1.57V4.17c0-1.36-.37-1.57-1.69-1.59h-.33v-.7a19.41,19.41,0,0,0,2,.12,19.35,19.35,0,0,0,2-.12Z"/><path class="cls-4" d="M98.68,9.54a9,9,0,0,1-9.07,9.07c-4.76,0-8.32-3.28-8.32-8.62,0-4.78,3.37-8.53,8.81-8.46C95.12,1.53,98.68,4.34,98.68,9.54Zm-2.51.73c0-4.64-2.09-7.73-6.44-7.73-4.08,0-5.93,2.84-5.93,6.68,0,4.1,1.92,8.39,6.56,8.39C94.27,17.34,96.17,14.57,96.17,10.26Z"/><path class="cls-4" d="M101.44,4.69c0-1.83,0-2-2.23-2.11v-.7c1.31.07,2.67.12,4.05.12s2.74,0,4.1-.12c3.23-.16,4.73,1.59,4.73,3.56,0,2.55-2.3,4.08-4.57,4.52l5.32,6.93a2,2,0,0,0,1.34.66v.7a11.71,11.71,0,0,0-1.59-.12,12,12,0,0,0-1.59.12c-.38-.49-.63-.91-1-1.31l-5.57-7.17.09-.35a9.48,9.48,0,0,0,2.15-.09,3.46,3.46,0,0,0,3-3.28c0-2.53-1.87-3.28-3.61-3.28a8.86,8.86,0,0,0-2.34.31,5.11,5.11,0,0,0-.14,1.62V15.44c0,1.83,0,2,2.23,2.11v.7c-1.12-.07-2.23-.12-3.37-.12s-2.25,0-3.3.12v-.7c2.25-.12,2.23-.28,2.23-2.11Z"/><path class="cls-4" d="M119.32,5.41c0-.89,0-1.64-.09-2.34l-3.61.12c-.49,0-.77.09-.82.7a13.83,13.83,0,0,0-.26,1.8h-.7c0-.44,0-.87,0-1.31,0-.82,0-1.64-.12-2.51,2.23.07,4.45.12,6.75.12s4.5,0,6.77-.12c-.07.87-.09,1.69-.12,2.51,0,.44,0,.87,0,1.31h-.7a14,14,0,0,0-.26-1.8c0-.61-.33-.68-.82-.7l-3.65-.12c-.07.7-.07,1.45-.09,2.34v10c0,1.83,0,2,2.23,2.11v.7c-1.12-.07-2.23-.12-3.37-.12s-2.25,0-3.3.12v-.7c2.25-.12,2.23-.28,2.23-2.11Z"/><path class="cls-4" d="M144.17,15.44c0,1.83,0,2,2.23,2.11v.7c-1.12-.07-2.23-.12-3.37-.12s-2.25,0-3.3.12v-.7c2.25-.12,2.22-.28,2.22-2.11V10h-9.37v5.43c0,1.83,0,2,2.23,2.11v.7c-1.12-.07-2.23-.12-3.37-.12s-2.25,0-3.3.12v-.7c2.25-.12,2.23-.28,2.23-2.11V4.69c0-1.83,0-2-2.23-2.11v-.7c1.05.07,2.16.12,3.3.12s2.25,0,3.37-.12v.7c-2.25.12-2.23.28-2.23,2.11V9h9.37V4.69c0-1.83,0-2-2.22-2.11v-.7c1.05.07,2.15.12,3.3.12s2.25,0,3.37-.12v.7c-2.25.12-2.23.28-2.23,2.11Z"/><path class="cls-4" d="M162.28,5.81A3.92,3.92,0,0,0,162,3.94c-.63-1-2.29-1.36-3.4-1.36a3.38,3.38,0,0,0-3.56,3.35c0,5.08,9.32.87,9.32,6.74,0,4-3.58,5.93-7.07,5.93a10.3,10.3,0,0,1-4-.89c.09-.89.14-2,.16-2.93v-.66h.8v1.1a1.62,1.62,0,0,0,.33,1.22,5.73,5.73,0,0,0,3.63,1.08c2.11,0,4.17-1.24,4.17-3.56,0-5.67-9.28-.37-9.28-7.19,0-3.21,2.72-5.25,5.74-5.25a12.76,12.76,0,0,1,4.54,1.08,9,9,0,0,0-.19,1.13c0,.7-.14,1.38-.16,2.09Z"/><path class="cls-4" d="M181.47,15.44c0,1.83,0,2,2.22,2.11v.7c-1.12-.07-2.22-.12-3.37-.12s-2.25,0-3.3.12v-.7c2.25-.12,2.22-.28,2.22-2.11V10h-9.37v5.43c0,1.83,0,2,2.22,2.11v.7c-1.12-.07-2.22-.12-3.37-.12s-2.25,0-3.3.12v-.7c2.25-.12,2.23-.28,2.23-2.11V4.69c0-1.83,0-2-2.23-2.11v-.7c1.05.07,2.16.12,3.3.12s2.25,0,3.37-.12v.7c-2.25.12-2.22.28-2.22,2.11V9h9.37V4.69c0-1.83,0-2-2.22-2.11v-.7c1.05.07,2.15.12,3.3.12s2.25,0,3.37-.12v.7c-2.25.12-2.22.28-2.22,2.11Z"/><path class="cls-4" d="M201.62,9.54a9,9,0,0,1-9.07,9.07c-4.76,0-8.32-3.28-8.32-8.62,0-4.78,3.37-8.53,8.81-8.46C198.06,1.53,201.62,4.34,201.62,9.54Zm-2.51.73c0-4.64-2.08-7.73-6.44-7.73-4.08,0-5.93,2.84-5.93,6.68,0,4.1,1.92,8.39,6.56,8.39C197.21,17.34,199.11,14.57,199.11,10.26Z"/><path class="cls-4" d="M203.91,4.69c0-1.83,0-2-2.23-2.11v-.7c1.31.07,2.67.12,4.05.12s2.74,0,4.1-.12c3.23-.16,4.73,1.59,4.73,3.56,0,2.55-2.29,4.08-4.57,4.52l5.32,6.93a2,2,0,0,0,1.34.66v.7a11.71,11.71,0,0,0-1.59-.12,12,12,0,0,0-1.59.12c-.37-.49-.63-.91-1-1.31l-5.57-7.17.09-.35a9.48,9.48,0,0,0,2.15-.09,3.46,3.46,0,0,0,3-3.28c0-2.53-1.87-3.28-3.61-3.28a8.88,8.88,0,0,0-2.34.31,5.13,5.13,0,0,0-.14,1.62V15.44c0,1.83,0,2,2.23,2.11v.7c-1.12-.07-2.23-.12-3.37-.12s-2.25,0-3.3.12v-.7c2.25-.12,2.23-.28,2.23-2.11Z"/><path class="cls-4" d="M221.67,15a12.6,12.6,0,0,0,.12,2,26.68,26.68,0,0,0,3.19.12,13.62,13.62,0,0,0,3.77-.4,6,6,0,0,0,.28-1.19l.21-1.29H230a9.81,9.81,0,0,0-.23,1.9v1.95c-.87.12-2.44.09-3.89.12s-2.79-.12-4.22-.12-2.81,0-4.24.12v-.7a1.84,1.84,0,0,0,2-2.11V4.69c0-1.83,0-2-2.23-2.11v-.7c1.43.07,2.83.12,4.29.12s2.88,0,4.29-.12,3.09,0,3.89.12a7.84,7.84,0,0,0-.37,2.27c0,.49-.07.89-.07,1.38h-.73a10.76,10.76,0,0,0-.33-2.3,11.66,11.66,0,0,0-3.49-.4,21.86,21.86,0,0,0-2.9.12A11.68,11.68,0,0,0,221.67,5V9.4c5.11,0,5.43.33,5.46-2h.77v5.41h-.77c0-2.65-.16-2.51-5.46-2.32Z"/><path class="cls-4" d="M72.58,41.92h-.47L65.58,28.17V39.44C65.58,40.8,66,41,67.5,41l.37,0v.7c-.91-.07-1.85-.12-2.79-.12s-1.87,0-2.81.12V41l.38,0c1.43,0,1.85-.21,1.85-1.57V27.65c0-1.36-.42-1.57-1.85-1.57l-.37,0v-.7c.73.07,1.48.12,2.23.12s1.5,0,2.23-.12l6.19,13,4.83-9.93A21.26,21.26,0,0,0,79,25.36c.73.07,1.48.12,2.23.12s1.5,0,2.23-.12v.7H83.1c-1.41,0-1.83.23-1.83,1.59V38.92c0,1.83,0,2,2.23,2.11v.7c-1.12-.07-2.23-.12-3.37-.12s-2.25,0-3.3.12V41c2.25-.12,2.23-.28,2.23-2.11V28.17Z"/><path class="cls-4" d="M89,38.52a12.6,12.6,0,0,0,.12,2,26.7,26.7,0,0,0,3.18.12,13.56,13.56,0,0,0,3.77-.4,6,6,0,0,0,.28-1.2l.21-1.29h.77a9.69,9.69,0,0,0-.23,1.9v1.94c-.87.12-2.44.09-3.89.12s-2.79-.12-4.22-.12-2.81,0-4.24.12V41a1.84,1.84,0,0,0,2-2.11V28.17c0-1.83,0-2-2.23-2.11v-.7c1.43.07,2.83.12,4.29.12s2.88,0,4.29-.12,3.09,0,3.89.12a7.84,7.84,0,0,0-.37,2.27c0,.49-.07.89-.07,1.38h-.73a10.73,10.73,0,0,0-.33-2.3,11.69,11.69,0,0,0-3.49-.4,22.4,22.4,0,0,0-2.9.12A11.7,11.7,0,0,0,89,28.5v4.38c5.11,0,5.44.33,5.46-2h.77v5.41h-.77c0-2.65-.16-2.51-5.46-2.32Z"/><path class="cls-4" d="M100.79,28.45c0-2.2-.21-2.34-2.06-2.37v-.73c1.5.07,3,.12,4.54.12s3,0,4.54-.12c4.36,0,7.92,2.65,7.92,7.19a9,9,0,0,1-10,9.18c-1-.07-2.06-.12-3.12-.12s-2.08,0-3.11.12V41c.84-.16,1.24-.4,1.24-1.41Zm2.2,10.1a13.68,13.68,0,0,0,.09,2,19.3,19.3,0,0,0,2.2.16c6,.16,8-3.16,8-7.45,0-4.94-3-6.84-7.07-6.84-1,0-2.06.09-3.12.14a15.6,15.6,0,0,0-.09,2Z"/><path class="cls-4" d="M121.21,38.92c0,1.83,0,2,2.23,2.11v.7c-1.12-.07-2.23-.12-3.37-.12s-2.25,0-3.3.12V41c2.25-.12,2.23-.28,2.23-2.11V28.17c0-1.83,0-2-2.23-2.11v-.7c1.05.07,2.16.12,3.3.12s2.25,0,3.37-.12v.7c-2.25.12-2.23.28-2.23,2.11Z"/><path class="cls-4" d="M139.23,40.7a12.38,12.38,0,0,1-5.29,1.38c-5.18,0-9.49-3-9.49-8.6s4.38-8.48,9-8.48a22.47,22.47,0,0,1,6.09,1.05c-.23,1.17-.37,2.34-.52,3.51h-.68c-.07-1.5.3-2-1.08-2.72a8.08,8.08,0,0,0-3.77-.87c-3.86,0-6.54,2.74-6.54,7,0,4.69,3,7.92,7.76,7.92a8.63,8.63,0,0,0,4.75-1.48l.21.23Z"/><path class="cls-4" d="M154.72,38.55a5.77,5.77,0,0,0,1.19,2.08,2.17,2.17,0,0,0,1.29.4v.7c-1-.07-2.06-.12-3.12-.12s-2.08,0-3.12.12V41a4,4,0,0,0,1.76-.33c.33-.16.35-.54.16-1l-1.43-3.42h-6.65a27.32,27.32,0,0,0-1.57,3.93c0,.77,1.15.66,2,.77v.7c-.89-.07-1.78-.12-2.69-.12s-1.8,0-2.69.12V41c1.31-.26,1.48,0,2-1.27L143,37.35l3.16-7.07c.75-1.66,1.52-3.37,2.13-5.06h.75ZM151,35.31l-2.93-7-2.93,7Z"/><path class="cls-4" d="M161.72,39.67l.07.87a29.82,29.82,0,0,0,3.3.12,13.56,13.56,0,0,0,3.77-.4,4.71,4.71,0,0,0,.23-.75l.54-2,.75,0c-.07.33-.14.94-.23,1.57l-.26,2.46c-.75.12-2.25.09-3.63.12s-2.65-.12-4-.12-2.67,0-4,.12V41c1.1-.19,1.26-.87,1.26-2.74V28.17c0-1.83,0-2-2.22-2.11v-.7c1.05.07,2.16.12,3.3.12s2.25,0,3.37-.12v.7c-2.25.12-2.23.28-2.23,2.11Z"/><path class="cls-4" d="M191,40.7a12.38,12.38,0,0,1-5.29,1.38c-5.18,0-9.49-3-9.49-8.6s4.38-8.48,9-8.48a22.47,22.47,0,0,1,6.09,1.05c-.23,1.17-.37,2.34-.52,3.51h-.68c-.07-1.5.31-2-1.08-2.72a8.07,8.07,0,0,0-3.77-.87c-3.86,0-6.54,2.74-6.54,7,0,4.69,3,7.92,7.75,7.92a8.63,8.63,0,0,0,4.76-1.48l.21.23Z"/><path class="cls-4" d="M196.81,38.52a12.85,12.85,0,0,0,.12,2,26.76,26.76,0,0,0,3.19.12,13.54,13.54,0,0,0,3.77-.4,6,6,0,0,0,.28-1.2l.21-1.29h.77a9.69,9.69,0,0,0-.23,1.9v1.94c-.87.12-2.44.09-3.89.12s-2.79-.12-4.22-.12-2.81,0-4.24.12V41a1.84,1.84,0,0,0,2-2.11V28.17c0-1.83,0-2-2.23-2.11v-.7c1.43.07,2.83.12,4.29.12s2.88,0,4.29-.12,3.09,0,3.89.12a7.85,7.85,0,0,0-.37,2.27c0,.49-.07.89-.07,1.38h-.73a10.83,10.83,0,0,0-.33-2.3,11.69,11.69,0,0,0-3.49-.4,22.44,22.44,0,0,0-2.91.12,11.94,11.94,0,0,0-.12,1.95v4.38c5.11,0,5.44.33,5.46-2H203v5.41h-.77c0-2.65-.16-2.51-5.46-2.32Z"/><path class="cls-4" d="M221.53,39.3V27.65c0-1.36-.42-1.57-1.85-1.57l-.37,0v-.7c.94.07,1.87.12,2.81.12s1.88,0,2.79-.12v.7l-.37,0c-1.48,0-1.92.21-1.92,1.57V41.22l.07.87-1.85-.33L209.51,28V39.44c0,1.36.44,1.57,1.92,1.57l.37,0v.7c-.91-.07-1.85-.12-2.79-.12s-1.87,0-2.81.12V41l.38,0c1.43,0,1.85-.21,1.85-1.57V27.65c0-1.36-.37-1.57-1.69-1.59h-.33v-.7a19.66,19.66,0,0,0,2,.12,19.58,19.58,0,0,0,2-.12Z"/><path class="cls-4" d="M230.88,28.89c0-.89,0-1.64-.09-2.34l-3.61.12c-.49,0-.77.09-.82.7a13.86,13.86,0,0,0-.26,1.8h-.7c0-.45,0-.87,0-1.31,0-.82,0-1.64-.12-2.51,2.23.07,4.45.12,6.75.12s4.5,0,6.77-.12c-.07.87-.09,1.69-.12,2.51,0,.44,0,.87,0,1.31h-.7a14,14,0,0,0-.26-1.8c0-.61-.33-.68-.82-.7l-3.65-.12c-.07.7-.07,1.45-.09,2.34v10c0,1.83,0,2,2.22,2.11v.7c-1.12-.07-2.22-.12-3.37-.12s-2.25,0-3.3.12V41c2.25-.12,2.23-.28,2.23-2.11Z"/><path class="cls-4" d="M244.14,38.52a12.61,12.61,0,0,0,.12,2,26.72,26.72,0,0,0,3.19.12,13.56,13.56,0,0,0,3.77-.4,5.89,5.89,0,0,0,.28-1.2l.21-1.29h.77a9.7,9.7,0,0,0-.23,1.9v1.94c-.87.12-2.44.09-3.89.12s-2.79-.12-4.22-.12-2.81,0-4.24.12V41a1.84,1.84,0,0,0,2-2.11V28.17c0-1.83,0-2-2.22-2.11v-.7c1.43.07,2.83.12,4.29.12s2.88,0,4.29-.12,3.09,0,3.89.12a7.85,7.85,0,0,0-.37,2.27c0,.49-.07.89-.07,1.38H251a10.83,10.83,0,0,0-.33-2.3,11.68,11.68,0,0,0-3.49-.4,22.41,22.41,0,0,0-2.91.12,11.71,11.71,0,0,0-.12,1.95v4.38c5.11,0,5.44.33,5.46-2h.77v5.41h-.77c0-2.65-.16-2.51-5.46-2.32Z"/><path class="cls-4" d="M256.11,28.17c0-1.83,0-2-2.22-2.11v-.7c1.31.07,2.67.12,4.05.12s2.74,0,4.1-.12c3.23-.16,4.73,1.59,4.73,3.56,0,2.55-2.3,4.08-4.57,4.52l5.32,6.94a2,2,0,0,0,1.33.65v.7a11.72,11.72,0,0,0-1.59-.12,12,12,0,0,0-1.59.12c-.37-.49-.63-.92-1-1.31l-5.57-7.17.09-.35a9.55,9.55,0,0,0,2.16-.09,3.46,3.46,0,0,0,3-3.28c0-2.53-1.87-3.28-3.61-3.28a8.92,8.92,0,0,0-2.34.3,5.17,5.17,0,0,0-.14,1.62V38.92c0,1.83,0,2,2.22,2.11v.7c-1.12-.07-2.22-.12-3.37-.12s-2.25,0-3.3.12V41c2.25-.12,2.22-.28,2.22-2.11Z"/></g></g></svg>