<svg xmlns="http://www.w3.org/2000/svg" viewBox="0 0 475.38 89.08"><defs><style>.cls-1{fill:none;stroke:#008bb0;stroke-width:0.94px;}.cls-2{fill:#008bb0;}.cls-3{fill:#6a737b;}</style></defs><title>Asset 1</title><g id="Layer_2" data-name="Layer 2"><g id="Layer_1-2" data-name="Layer 1"><path class="cls-1" d="M75.43.47V26.59a74.34,74.34,0,0,1-6.66,31.11C58.79,79.28,38,88.56,38,88.56S17.13,79.28,7.15,57.71A74.32,74.32,0,0,1,.49,26.59V.47Z"/><path class="cls-2" d="M72.86,23.88V3.26H3.38L3.32,20.7c22.17-10.33,33.85,3.09,33.85,3.09l-4.4,4.52C20.89,15.94,3.35,23.37,3.35,23.37l.12,8.17c22.85-10,33.75,3.39,33.75,3.39l-4.47,4.56C21.13,26.66,3.61,34.32,3.61,34.32,7.38,72.79,38.12,85.48,38.12,85.48c31.61-16.83,34-47.38,34-47.38-23.23,9.54-33.46-3.79-33.46-3.79l4.4-4.52c12.06,12.61,29.26,5.32,29.26,5.32a43.86,43.86,0,0,0,.39-8.55c-23.62,10.34-34-3.31-34-3.31l4.4-4.52C55.37,31.24,72.86,23.88,72.86,23.88ZM27.48,51.47l-.07.07c-.81.13-.92.29-.94.75-.06,1.06-.08,2.86-.08,4.59,0,1.11,0,3.07.09,4.12l-.13.13a10.26,10.26,0,0,0-1.73-.21A42,42,0,0,1,22,57.6c-.43-.56-2.31-3.07-2.71-3.58,0,.51,0,1.22,0,2.29,0,1.63.08,3,.11,3.17.09.5.18.5,1,.6l.06.07v.72l-.06.07c-.2,0-1.36-.07-1.58-.07s-1.45.06-1.62.07l-.07-.07v-.72l.07-.07.59-.13c.39-.07.44-.1.44-2.32V54c0-2.22-.05-2.25-.44-2.32l-.59-.13-.07-.07v-.72l.07-.07c.2,0,1.37.07,1.61.07s1.4-.06,1.64-.07c1.29,1.89,3.25,4.59,4.94,6.66V55.72A25.46,25.46,0,0,0,25.21,52c-.05-.35-.14-.4-.93-.5l-.07-.07v-.72l.07-.07c.2,0,1.35.07,1.57.07s1.4-.06,1.57-.07l.07.07Zm20,8.74.06-.07L48.1,60c.36-.07.41-.1.41-2.32V54.06c0-2.22,0-2.25-.41-2.32l-.58-.13-.06-.07v-.72l.06-.07c.71,0,1.42.07,2.16.07s1.45,0,2.16-.07l.06.07v.72l-.06.07-.58.13c-.36.07-.41.1-.41,2.32v1.12h4.34V54.06c0-2.22,0-2.25-.4-2.32l-.58-.13-.06-.07v-.72l.06-.07c.71,0,1.42.07,2.16.07s1.45,0,2.16-.07l.06.07v.72l-.06.07-.58.13c-.36.07-.41.1-.41,2.32v3.62c0,2.22,0,2.25.41,2.32l.58.13.06.07v.72l-.06.07-2.24-.07L54.2,61l-.06-.07v-.72l.06-.07.58-.13c.36-.07.4-.1.4-2.32V56.23H50.85v1.45c0,2.22,0,2.25.41,2.32l.58.13.06.07v.72l-.06.07c-.71,0-1.43-.07-2.16-.07s-1.45,0-2.16.07l-.06-.07ZM44.6,50.68l.06.07v.72l-.06.07c-.66.07-.74.07-1.11,1.54l-2,7.92H40.3l-2.62-6.9L34.84,61h-1.2l-1.7-8c-.29-1.38-.41-1.38-1-1.44l-.06-.07v-.72l.06-.07c.29,0,1.84.07,2.16.07s2.06-.06,2.34-.07l.06.07v.72l-.06.07c-.7.12-1,.19-1,.53a8.63,8.63,0,0,0,.18,1.26l.73,3.74h0l2.66-6.4H39l2.42,6.4h0l1-4.49a4,4,0,0,0,.09-.66c0-.21-.09-.26-.87-.38l-.07-.07v-.72l.07-.07c.18,0,1.24.07,1.45.07S44.43,50.7,44.6,50.68ZM42.34,40.22l-4.41,4.52-4.41-4.52,4.41-4.53Zm0-11.18L38,33.56,33.56,29,38,24.52Zm-4.45-6.47L33.52,18l4.41-4.52L42.33,18Z"/><path class="cls-3" d="M116.37,24.11V6.53c0-2.06-.64-2.37-2.79-2.37l-.57,0V3.05c1.41.11,2.83.18,4.25.18s2.83-.07,4.21-.18V4.12l-.56,0c-2.23,0-2.9.32-2.9,2.37V27l.1,1.31-2.79-.49L98.22,7.06V24.32c0,2.05.67,2.37,2.9,2.37l.57,0v1.06c-1.38-.11-2.8-.18-4.21-.18s-2.83.07-4.25.18V26.73l.56,0c2.16,0,2.8-.32,2.8-2.37V6.53c0-2.06-.57-2.37-2.55-2.41h-.49V3.05a28.44,28.44,0,0,0,3.08.18,28.35,28.35,0,0,0,3-.18Z"/><path class="cls-3" d="M129.89,22.94a19,19,0,0,0,.18,3,40.34,40.34,0,0,0,4.81.18,20.59,20.59,0,0,0,5.7-.6,9.28,9.28,0,0,0,.42-1.8l.32-1.95h1.17a14.61,14.61,0,0,0-.35,2.87v2.93c-1.31.18-3.68.14-5.87.18s-4.21-.18-6.37-.18-4.25.07-6.4.18V26.73c1.77-.07,3-.81,3-3.19V7.3c0-2.76,0-3-3.36-3.18V3.05c2.16.11,4.28.18,6.47.18s4.35-.07,6.47-.18,4.67,0,5.87.18a11.83,11.83,0,0,0-.57,3.43c0,.74-.11,1.34-.11,2.09h-1.1a16.25,16.25,0,0,0-.5-3.47,17.57,17.57,0,0,0-5.27-.6,33.47,33.47,0,0,0-4.39.18,17.59,17.59,0,0,0-.18,2.93v6.62c7.71.07,8.21.49,8.25-3h1.17v8.18h-1.17c0-4-.25-3.79-8.25-3.5Z"/><path class="cls-3" d="M147.12,6.88l-.21-.81c-.43-1.63-.75-1.8-2.41-1.91l-.35,0V3.05c1.48.11,2.94.18,4.46.18s3-.07,4.46-.18V4.12c-3.43-.21-2.94,1.17-2.65,2.51l.74,3.5,2.79,12.28,4.39-11,3.18-8.53h1.13l1.06,3.29,5.91,16.52,2.79-10L174,6.38c.35-1.41.81-2.48-2.79-2.26V3.05c1.24.11,2.44.18,3.71.18s2.48-.07,3.72-.18V4.12c-1.49.1-1.74,0-2.23,1.34l-5.2,17-1.38,5.49h-1.8l-2.52-7.29-4.42-12L155,24.29l-1.27,3.64h-1.77c-.28-1.2-.53-2.41-.81-3.64Z"/><path class="cls-3" d="M189.46,8.4c0-1.34,0-2.48-.14-3.54L183.87,5c-.74,0-1.17.14-1.24,1.06a20.36,20.36,0,0,0-.39,2.72h-1.06c0-.67,0-1.31,0-2,0-1.24-.07-2.48-.18-3.79,3.36.11,6.72.18,10.19.18s6.79-.07,10.23-.18c-.11,1.31-.14,2.55-.18,3.79,0,.67,0,1.31,0,2h-1.06a21.38,21.38,0,0,0-.39-2.72c-.07-.92-.5-1-1.24-1.06L193,4.86c-.11,1.06-.11,2.19-.14,3.54V23.54c0,2.76,0,3,3.36,3.19v1.06c-1.7-.11-3.36-.18-5.09-.18s-3.4.07-5,.18V26.73c3.39-.18,3.36-.42,3.36-3.19Z"/><path class="cls-3" d="M228.42,14.63a13.55,13.55,0,0,1-13.7,13.69c-7.18,0-12.56-5-12.56-13,0-7.22,5.09-12.88,13.3-12.77C223,2.53,228.42,6.77,228.42,14.63Zm-3.79,1.1c0-7-3.15-11.68-9.73-11.68-6.16,0-9,4.28-9,10.08,0,6.19,2.9,12.67,9.91,12.67C221.77,26.41,224.64,22.23,224.64,15.73Z"/><path class="cls-3" d="M252.72,24.11V6.53c0-2.06-.64-2.37-2.8-2.37l-.57,0V3.05c1.42.11,2.83.18,4.25.18s2.83-.07,4.21-.18V4.12l-.56,0c-2.23,0-2.9.32-2.9,2.37V27l.11,1.31-2.79-.49L234.58,7.06V24.32c0,2.05.67,2.37,2.9,2.37l.56,0v1.06c-1.38-.11-2.79-.18-4.21-.18s-2.83.07-4.25.18V26.73l.56,0c2.16,0,2.79-.32,2.79-2.37V6.53c0-2.06-.57-2.37-2.55-2.41h-.5V3.05a28.52,28.52,0,0,0,3.08.18,28.4,28.4,0,0,0,3-.18Z"/><path class="cls-3" d="M259.37,20l-.18-.18,1-2.37h9.31l.18.17L268.57,20Z"/><path class="cls-3" d="M273.63,6.88l-.21-.81c-.43-1.63-.74-1.8-2.41-1.91l-.35,0V3.05c1.49.11,2.94.18,4.46.18s3-.07,4.46-.18V4.12c-3.43-.21-2.94,1.17-2.65,2.51l.74,3.5,2.79,12.28,4.39-11L288,2.84h1.13l1.06,3.29,5.91,16.52,2.79-10,1.63-6.3c.35-1.41.81-2.48-2.8-2.26V3.05c1.24.11,2.44.18,3.72.18s2.48-.07,3.72-.18V4.12c-1.49.1-1.73,0-2.23,1.34l-5.2,17-1.38,5.49h-1.81l-2.51-7.29-4.43-12-6.15,15.64-1.28,3.64h-1.77c-.28-1.2-.53-2.41-.81-3.64Z"/><path class="cls-3" d="M313.41,22.94a19.47,19.47,0,0,0,.17,3,40.44,40.44,0,0,0,4.82.18,20.57,20.57,0,0,0,5.7-.6,9.11,9.11,0,0,0,.42-1.8l.32-1.95H326a14.46,14.46,0,0,0-.36,2.87v2.93c-1.31.18-3.68.14-5.87.18s-4.21-.18-6.37-.18-4.24.07-6.4.18V26.73c1.77-.07,3-.81,3-3.19V7.3c0-2.76,0-3-3.36-3.18V3.05c2.16.11,4.28.18,6.48.18s4.35-.07,6.47-.18,4.67,0,5.87.18a11.86,11.86,0,0,0-.57,3.43c0,.74-.1,1.34-.1,2.09h-1.1a16.44,16.44,0,0,0-.49-3.47,17.61,17.61,0,0,0-5.28-.6,33.52,33.52,0,0,0-4.39.18,18,18,0,0,0-.17,2.93v6.62c7.71.07,8.2.49,8.24-3h1.17v8.18h-1.17c0-4-.25-3.79-8.24-3.5Z"/><path class="cls-3" d="M335,24.68l.11,1.31a45.1,45.1,0,0,0,5,.18,20.58,20.58,0,0,0,5.7-.6,7,7,0,0,0,.36-1.13l.81-3,1.14.08c-.11.49-.21,1.41-.36,2.37l-.39,3.71c-1.13.18-3.4.14-5.48.18s-4-.18-6.05-.18-4,.07-6.09.18V26.73c1.66-.28,1.91-1.31,1.91-4.14V7.3c0-2.76,0-3-3.36-3.18V3.05c1.59.11,3.25.18,5,.18s3.4-.07,5.09-.18V4.12C335,4.3,335,4.55,335,7.3Z"/><path class="cls-3" d="M355.56,24.68l.1,1.31a45.2,45.2,0,0,0,5,.18,20.57,20.57,0,0,0,5.69-.6,7,7,0,0,0,.35-1.13l.81-3,1.14.08c-.11.49-.22,1.41-.36,2.37l-.39,3.71c-1.13.18-3.4.14-5.48.18s-4-.18-6.05-.18-4,.07-6.09.18V26.73c1.66-.28,1.91-1.31,1.91-4.14V7.3c0-2.76,0-3-3.36-3.18V3.05c1.59.11,3.25.18,5,.18s3.4-.07,5.1-.18V4.12c-3.4.18-3.36.43-3.36,3.18Z"/><path class="cls-3" d="M376.45,22.94a19.48,19.48,0,0,0,.17,3,40.46,40.46,0,0,0,4.81.18,20.59,20.59,0,0,0,5.7-.6,9.25,9.25,0,0,0,.42-1.8l.32-1.95h1.17a14.57,14.57,0,0,0-.35,2.87v2.93c-1.31.18-3.68.14-5.87.18s-4.21-.18-6.37-.18-4.24.07-6.4.18V26.73c1.76-.07,3-.81,3-3.19V7.3c0-2.76,0-3-3.36-3.18V3.05c2.16.11,4.28.18,6.47.18s4.35-.07,6.48-.18,4.67,0,5.87.18A11.86,11.86,0,0,0,388,6.67c0,.74-.1,1.34-.1,2.09h-1.1a16.32,16.32,0,0,0-.49-3.47,17.6,17.6,0,0,0-5.27-.6,33.56,33.56,0,0,0-4.39.18,18,18,0,0,0-.17,2.93v6.62c7.71.07,8.21.49,8.24-3h1.17v8.18H384.7c0-4-.25-3.79-8.24-3.5Z"/><path class="cls-3" d="M405.73,9a5.91,5.91,0,0,0-.36-2.83c-1-1.48-3.47-2.05-5.13-2.05a5.11,5.11,0,0,0-5.38,5.06c0,7.68,14.08,1.31,14.08,10.19,0,6.05-5.42,9-10.69,9a15.53,15.53,0,0,1-6-1.34c.14-1.35.21-3,.24-4.42v-1h1.2v1.66a2.45,2.45,0,0,0,.5,1.84,8.64,8.64,0,0,0,5.48,1.63c3.19,0,6.3-1.87,6.3-5.38,0-8.56-14-.56-14-10.86,0-4.84,4.11-7.92,8.67-7.92a19.26,19.26,0,0,1,6.86,1.62,14,14,0,0,0-.28,1.7c-.07,1.06-.21,2.09-.25,3.15Z"/><path class="cls-3" d="M417.37,24.68l.11,1.31a45.05,45.05,0,0,0,5,.18,20.55,20.55,0,0,0,5.69-.6,6.9,6.9,0,0,0,.36-1.13l.81-3,1.13.08c-.11.49-.21,1.41-.35,2.37l-.39,3.71c-1.13.18-3.4.14-5.49.18s-4-.18-6-.18-4,.07-6.09.18V26.73c1.66-.28,1.91-1.31,1.91-4.14V7.3c0-2.76,0-3-3.36-3.18V3.05c1.59.11,3.26.18,5,.18s3.4-.07,5.09-.18V4.12c-3.39.18-3.36.43-3.36,3.18Z"/><path class="cls-3" d="M438.26,22.94a19.16,19.16,0,0,0,.18,3,40.36,40.36,0,0,0,4.81.18,20.57,20.57,0,0,0,5.7-.6,9,9,0,0,0,.42-1.8l.32-1.95h1.17a14.72,14.72,0,0,0-.35,2.87v2.93c-1.31.18-3.68.14-5.87.18s-4.21-.18-6.37-.18-4.25.07-6.4.18V26.73c1.77-.07,3-.81,3-3.19V7.3c0-2.76,0-3-3.36-3.18V3.05c2.16.11,4.28.18,6.47.18s4.35-.07,6.47-.18,4.67,0,5.87.18a11.73,11.73,0,0,0-.56,3.43c0,.74-.11,1.34-.11,2.09h-1.1a16,16,0,0,0-.5-3.47,17.56,17.56,0,0,0-5.27-.6,33.53,33.53,0,0,0-4.39.18,17.7,17.7,0,0,0-.18,2.93v6.62c7.71.07,8.21.49,8.25-3h1.16v8.18h-1.16c0-4-.25-3.79-8.25-3.5Z"/><path class="cls-3" d="M465.08,15.55l3.64-5.77c1.35-2.26,2.65-4.46,3.82-6.72h2.83v.53c-3,3.43-7.25,9.41-8.7,12.56a6.09,6.09,0,0,0-.5,2.65v4.74c0,2.76,0,3,3.36,3.19v1.06c-1.7-.11-3.36-.18-5.09-.18s-3.4.07-5,.18V26.73c3.39-.18,3.36-.42,3.36-3.19v-5.2a2.64,2.64,0,0,0-.18-1.1L458.4,9.82c-1.17-2-3.33-5.48-5.84-5.2v-1l3.75-.74c1-.18,1.56.42,2.16,1.17A26.58,26.58,0,0,1,460,6.31Z"/><path class="cls-3" d="M118.38,57.65c0,2.76,0,3,3.33,3.19v1.06c-1.68-.11-3.33-.18-5-.18s-3.36.07-4.94.18V60.83c3.36-.18,3.33-.42,3.33-3.19V49.44H101v8.21c0,2.76,0,3,3.33,3.19v1.06c-1.68-.11-3.33-.18-5-.18s-3.36.07-4.94.18V60.83c3.36-.18,3.32-.42,3.32-3.19V41.41c0-2.76,0-3-3.32-3.19V37.16c1.57.11,3.22.18,4.94.18s3.36-.07,5-.18v1.06c-3.36.18-3.33.42-3.33,3.19V48h14V41.41c0-2.76,0-3-3.33-3.19V37.16c1.58.11,3.22.18,4.94.18s3.36-.07,5-.18v1.06c-3.36.18-3.33.42-3.33,3.19Z"/><path class="cls-3" d="M148.64,48.73a13.48,13.48,0,0,1-13.55,13.69c-7.11,0-12.43-5-12.43-13,0-7.22,5-12.88,13.16-12.77C143.32,36.63,148.64,40.87,148.64,48.73Zm-3.75,1.09c0-7-3.12-11.68-9.63-11.68-6.09,0-8.86,4.28-8.86,10.09,0,6.19,2.87,12.67,9.8,12.67C142.06,60.51,144.9,56.34,144.9,49.83Z"/><path class="cls-3" d="M164.92,43.1a6,6,0,0,0-.35-2.83c-.95-1.49-3.43-2.06-5.08-2.06a5.08,5.08,0,0,0-5.32,5.06c0,7.68,13.93,1.31,13.93,10.19,0,6.05-5.35,9-10.57,9a15.25,15.25,0,0,1-6-1.34c.14-1.34.21-3,.25-4.42v-1H153v1.66a2.46,2.46,0,0,0,.49,1.84,8.48,8.48,0,0,0,5.43,1.63c3.15,0,6.23-1.87,6.23-5.38,0-8.57-13.86-.57-13.86-10.87,0-4.85,4.06-7.92,8.58-7.92a18.89,18.89,0,0,1,6.79,1.63,13.92,13.92,0,0,0-.28,1.7c-.07,1.07-.21,2.09-.25,3.15Z"/><path class="cls-3" d="M173.11,41.41c0-2.76,0-3-3.32-3.19V37.16c2,.11,4.06.18,6.16.18s4.1-.07,6.13-.18c3.4,0,7.25,1.49,7.25,5.49,0,4.42-3.78,7.33-8.16,7.5a8,8,0,0,1-2.28-.21l-.38-1.31a11,11,0,0,0,2.24.32,4.87,4.87,0,0,0,5.08-5.09c0-3.68-2.21-5.38-5.71-5.38a18.73,18.73,0,0,0-3.46.5,7.78,7.78,0,0,0-.21,2.44V57.65c0,2.76,0,3,3.33,3.19v1.06c-1.68-.11-3.33-.18-5-.18s-3.36.07-4.94.18V60.83c3.36-.18,3.32-.42,3.32-3.19Z"/><path class="cls-3" d="M197.58,57.65c0,2.76,0,3,3.33,3.19v1.06c-1.68-.11-3.33-.18-5-.18s-3.36.07-4.94.18V60.83c3.36-.18,3.32-.42,3.32-3.19V41.41c0-2.76,0-3-3.32-3.19V37.16c1.57.11,3.22.18,4.94.18s3.36-.07,5-.18v1.06c-3.36.18-3.33.42-3.33,3.19Z"/><path class="cls-3" d="M211.58,42.5c0-1.34,0-2.48-.14-3.54l-5.39.18c-.74,0-1.16.14-1.23,1.06a21.36,21.36,0,0,0-.39,2.73h-1c0-.67,0-1.31,0-2,0-1.24-.07-2.48-.18-3.79,3.33.11,6.65.18,10.09.18s6.72-.07,10.12-.18c-.1,1.31-.14,2.55-.18,3.79,0,.67,0,1.31,0,2h-1.05a21.62,21.62,0,0,0-.38-2.73c-.07-.92-.49-1-1.23-1.06L215,39c-.1,1.06-.1,2.2-.14,3.54V57.65c0,2.76,0,3,3.33,3.19v1.06c-1.68-.11-3.32-.18-5-.18s-3.36.07-4.94.18V60.83c3.36-.18,3.33-.42,3.33-3.19Z"/><path class="cls-3" d="M243.45,57.08a8.77,8.77,0,0,0,1.79,3.15,3.21,3.21,0,0,0,1.93.6v1.06c-1.54-.11-3.08-.18-4.66-.18s-3.11.07-4.65.18V60.83a6,6,0,0,0,2.62-.5c.49-.25.52-.82.25-1.45l-2.14-5.17h-9.94c-.42,1-2.35,5.17-2.35,5.95,0,1.17,1.72,1,3,1.17v1.06c-1.33-.11-2.66-.18-4-.18s-2.69.07-4,.18V60.83c2-.39,2.21-.08,3-1.91L226,55.28l4.73-10.68c1.12-2.51,2.28-5.1,3.18-7.64H235ZM238,52.2l-4.38-10.55L229.2,52.2Z"/><path class="cls-3" d="M254.77,58.78l.11,1.31a45,45,0,0,0,4.93.17,20.23,20.23,0,0,0,5.64-.6,7.53,7.53,0,0,0,.35-1.14l.8-3,1.12.07c-.1.5-.21,1.42-.35,2.37L267,61.72c-1.12.18-3.36.14-5.43.18s-4-.18-6-.18-4,.07-6,.18V60.83c1.65-.29,1.89-1.31,1.89-4.14V41.41c0-2.76,0-3-3.32-3.19V37.16c1.58.11,3.22.18,4.94.18s3.36-.07,5-.18v1.06c-3.36.18-3.33.42-3.33,3.19Z"/></g></g></svg>