<svg xmlns="http://www.w3.org/2000/svg" viewBox="0 0 282.31 53.12"><defs><style>.cls-1{fill:none;stroke:#008bb0;stroke-width:0.4px;}.cls-2{fill:#008bb0;}.cls-3{fill:#fff;}</style></defs><title>Asset 1</title><g id="Layer_2" data-name="Layer 2"><g id="Layer_1-2" data-name="Layer 1"><path class="cls-1" d="M22.8,52.94C.38,41.15.2,25.14.2.2H45.39c0,25-.07,40.94-22.59,52.74"/><path class="cls-2" d="M22.82,50.95C1,39.72,1.81,21,1.81,2H43.73c0,19.22.7,37.73-20.91,49"/><path class="cls-3" d="M24.67,5.52c0,3.14,2.37,4.11,2.37,5.16v6.48c-1.5,0-1.46-1.71-1.67-4a.75.75,0,0,0-.78-.74h0a.82.82,0,0,0-.87.74V20.1a.81.81,0,0,1-.87.74h0A.82.82,0,0,1,22,20.1V14.76a.26.26,0,0,0-.23-.28h0a.26.26,0,0,0-.23.28v5.62a.81.81,0,0,1-.87.74h0a.81.81,0,0,1-.87-.74V14.76a.26.26,0,0,0-.24-.28h0a.26.26,0,0,0-.23.28V20.1a.81.81,0,0,1-.87.74h0a.82.82,0,0,1-.87-.74v-.42a2,2,0,0,0,.68-1.81h-.7l0-3.11a.26.26,0,0,0-.24-.28h0a.26.26,0,0,0-.24.28v3.1H15.32V9.32a9,9,0,0,0,1.44-3.76Z"/><path class="cls-3" d="M6.2,20.65c3.14,0,4-2.37,5.09-2.37h6.48c0,1.5-1.71,1.46-4,1.66a.75.75,0,0,0-.74.79h0a.82.82,0,0,0,.74.87h6.9a.82.82,0,0,1,.74.87h0a.82.82,0,0,1-.74.87H15.37a.26.26,0,0,0-.28.24h0a.26.26,0,0,0,.28.23H21a.82.82,0,0,1,.74.87h0a.81.81,0,0,1-.74.87H15.37a.26.26,0,0,0-.28.24h0a.26.26,0,0,0,.28.23H20.7a.81.81,0,0,1,.74.87h0a.82.82,0,0,1-.74.88h-.46a1.88,1.88,0,0,0-1.77-.68v.68h-3.1a.26.26,0,0,0-.28.24h0a.26.26,0,0,0,.28.24h3.11V30H9.93a9,9,0,0,0-3.76-1.44Z"/><path class="cls-3" d="M21.26,39.14c0-3.14-2.37-4.08-2.37-5.12V27.54c1.5,0,1.46,1.71,1.67,4a.75.75,0,0,0,.78.74h0a.82.82,0,0,0,.87-.74V24.62a.81.81,0,0,1,.87-.74h0a.82.82,0,0,1,.87.74v5.33a.26.26,0,0,0,.24.28h0a.26.26,0,0,0,.23-.28V24.33a.82.82,0,0,1,.87-.74h0a.82.82,0,0,1,.87.74v5.61a.26.26,0,0,0,.24.28h0a.26.26,0,0,0,.23-.28V24.62a.81.81,0,0,1,.87-.74h0a.81.81,0,0,1,.87.74v.46a1.91,1.91,0,0,0-.68,1.76h.66l0,3.11a.26.26,0,0,0,.24.28h0a.26.26,0,0,0,.24-.28v-3.1h1.75v8.54a9,9,0,0,0-1.44,3.76Z"/><path class="cls-3" d="M39.8,24.06c-3.14,0-4.11,2.36-5.16,2.36H28.16c0-1.49,1.71-1.45,4-1.66a.75.75,0,0,0,.74-.79h0a.82.82,0,0,0-.74-.87h-6.9a.82.82,0,0,1-.74-.87h0a.82.82,0,0,1,.74-.87h5.33a.26.26,0,0,0,.28-.24h0a.26.26,0,0,0-.28-.23H24.94A.81.81,0,0,1,24.2,20h0a.82.82,0,0,1,.74-.87h5.62a.26.26,0,0,0,.28-.24h0a.26.26,0,0,0-.28-.23H25.23a.82.82,0,0,1-.74-.87h0a.82.82,0,0,1,.74-.87h.42a2,2,0,0,0,1.81.68V17l3.11,0a.26.26,0,0,0,.28-.24h0a.26.26,0,0,0-.28-.24h-3.1V14.71H36a9,9,0,0,0,3.76,1.44Z"/><path class="cls-2" d="M273.46,22.63h-.18c0-.46,0-.79,0-1l1,0H275l.92,0,.76,0c0,.22,0,.54,0,1h-.19l0-.28c0-.17,0-.27,0-.29a.09.09,0,0,0,0,0l0,0L276,22h-.75c0,.18,0,.44,0,.75v1.71c0,.26,0,.52,0,.78a.91.91,0,0,0,0,.33.2.2,0,0,0,.1.08,2.41,2.41,0,0,0,.42,0v.19l-.78,0-.91,0v-.19a2.39,2.39,0,0,0,.42,0,.19.19,0,0,0,.1-.07.73.73,0,0,0,0-.28s0-.32,0-.83v-1.7c0-.08,0-.17,0-.27l0-.49h-.43a5.12,5.12,0,0,0-.6,0,.13.13,0,0,0-.09,0,1,1,0,0,0-.06.32Z"/><path class="cls-2" d="M276.9,21.85v-.19H278c.17.38.33.73.47,1L279.61,25l1-2.09q.41-.85.55-1.21h1.16v.19a2.07,2.07,0,0,0-.42,0,.19.19,0,0,0-.1.07.63.63,0,0,0,0,.28s0,.31,0,.83v1.35c0,.26,0,.52,0,.78a.92.92,0,0,0,0,.33.21.21,0,0,0,.11.08,2.41,2.41,0,0,0,.42,0v.19l-.83,0-.86,0v-.19a2.42,2.42,0,0,0,.42,0,.19.19,0,0,0,.1-.07.7.7,0,0,0,0-.28s0-.32,0-.83V22.27l-1,2.11-.37.79-.29.69h-.11l-.07-.18-.2-.43-1.4-2.89v2c0,.26,0,.52,0,.78a1,1,0,0,0,0,.33.2.2,0,0,0,.11.08,2.38,2.38,0,0,0,.42,0v.19l-.71,0-.73,0v-.19a2.35,2.35,0,0,0,.42,0,.19.19,0,0,0,.11-.07.77.77,0,0,0,0-.28s0-.32,0-.83V23.06c0-.27,0-.52,0-.78a1,1,0,0,0,0-.33.22.22,0,0,0-.11-.07A2.1,2.1,0,0,0,276.9,21.85Z"/><path class="cls-2" d="M59.64,25A40.65,40.65,0,0,0,60,19.5h1.18a13.13,13.13,0,0,0,.29,3,2.64,2.64,0,0,0,1,1,8,8,0,0,0,2.08.94,8.38,8.38,0,0,0,2.51.41,6.7,6.7,0,0,0,3.27-.82,5.15,5.15,0,0,0,2.18-2.15,6.09,6.09,0,0,0,.69-2.84,5.28,5.28,0,0,0-.35-2,3.1,3.1,0,0,0-1-1.36A4.37,4.37,0,0,0,70,15q-.65-.11-2.6-.36c-1.3-.17-2.41-.35-3.32-.55a7.45,7.45,0,0,1-2.69-1.32,5.45,5.45,0,0,1-1.39-2,6.5,6.5,0,0,1-.54-2.65,7.59,7.59,0,0,1,1.08-3.9,7.22,7.22,0,0,1,3.2-2.85,10.47,10.47,0,0,1,4.6-1,14.93,14.93,0,0,1,3.26.4A14.39,14.39,0,0,1,74.91,1.9,19.06,19.06,0,0,0,74.55,4q-.1,1-.16,2.82H73.22a19.34,19.34,0,0,0-.16-2.95,4.4,4.4,0,0,0-1.2-1.14,7.62,7.62,0,0,0-3.78-1A5.45,5.45,0,0,0,64,3.22a5.48,5.48,0,0,0-1.52,4A4.14,4.14,0,0,0,63,9.55a3.72,3.72,0,0,0,2,1.31,17.79,17.79,0,0,0,3.16.63q2.19.3,4,.63a6.74,6.74,0,0,1,2.44,1.17,5.17,5.17,0,0,1,1.3,1.77,6.15,6.15,0,0,1,.51,2.58,8,8,0,0,1-2.9,6.1,10.8,10.8,0,0,1-7.5,2.6A14.23,14.23,0,0,1,59.64,25Z"/><path class="cls-2" d="M79,2V.88Q82.52,1,84.58,1c.91,0,1.88,0,2.92,0l2.76-.1.84,0a12.63,12.63,0,0,1,4.39.61,5.13,5.13,0,0,1,2.49,2,5.39,5.39,0,0,1,.9,3.06,7,7,0,0,1-.75,3.08A7.12,7.12,0,0,1,96,12.15a9.43,9.43,0,0,1-3,1.52A8.29,8.29,0,0,1,90.6,14a13.15,13.15,0,0,1-2.42-.24l-.37-1.3a11.53,11.53,0,0,0,2.46.37,5.17,5.17,0,0,0,2.5-.64,4.39,4.39,0,0,0,1.85-1.94,6.23,6.23,0,0,0,.66-2.86,5.8,5.8,0,0,0-.64-2.74,4.2,4.2,0,0,0-2-1.86,7.23,7.23,0,0,0-3.17-.63,12.1,12.1,0,0,0-3.58.6q-.16,1.86-.16,5.83v8.85c0,1.59,0,3.14.05,4.65a5.59,5.59,0,0,0,.25,2,1.18,1.18,0,0,0,.65.46,12.78,12.78,0,0,0,2.54.18v1.13Q86,25.7,84.49,25.7l-5.5.13V24.7a12.66,12.66,0,0,0,2.52-.18,1.16,1.16,0,0,0,.63-.41,4.44,4.44,0,0,0,.26-1.7q0-.37.09-5V9.29q0-2.39-.05-4.67a5.55,5.55,0,0,0-.25-2,1.2,1.2,0,0,0-.65-.46A12.62,12.62,0,0,0,79,2Z"/><path class="cls-2" d="M97.83,25.83V24.63a9.52,9.52,0,0,0,1.73-.12,1.52,1.52,0,0,0,.63-.37,5.59,5.59,0,0,0,.84-1.41q.32-.65,2.29-4.94l4.4-9.91q.72-1.63,3.08-7.27h1.12l7.51,17.62q1.83,4.29,2.43,5.37a1.81,1.81,0,0,0,.73.81,5.18,5.18,0,0,0,1.79.21v1.19q-2.75-.18-3.84-.18l-5.66.18V24.63a19.22,19.22,0,0,0,2.39-.12,1,1,0,0,0,.57-.25.59.59,0,0,0,.15-.41,2.9,2.9,0,0,0-.25-1l-2.16-5.37H105.4L103.5,22a5.3,5.3,0,0,0-.51,1.78.58.58,0,0,0,.14.4,1,1,0,0,0,.6.31,12.94,12.94,0,0,0,2.28.16v1.19q-3-.16-4.45-.16C100.42,25.67,99.18,25.72,97.83,25.83ZM106,16h8.85L110.49,5.4Z"/><path class="cls-2" d="M125.74,2V.88c1.91.08,3.69.12,5.32.12s3.31,0,5-.12V2a12.53,12.53,0,0,0-2.52.19,1,1,0,0,0-.61.41,4.16,4.16,0,0,0-.28,1.7q0,.35-.09,5v6.49a16.11,16.11,0,0,0,.48,5,4.63,4.63,0,0,0,1.54,2,6.5,6.5,0,0,0,2.18,1,12,12,0,0,0,3.06.36,11.56,11.56,0,0,0,3.49-.49,6.2,6.2,0,0,0,2.3-1.18,4.58,4.58,0,0,0,1.14-1.55,8.19,8.19,0,0,0,.54-2.36,35.72,35.72,0,0,0,.17-3.8V9.29q0-2.39-.09-4.67a5.36,5.36,0,0,0-.24-2,1.18,1.18,0,0,0-.66-.46A12.52,12.52,0,0,0,143.92,2V.88q2.89.12,4.22.12t4.36-.12V2a12.46,12.46,0,0,0-2.52.19,1.15,1.15,0,0,0-.62.41,4.44,4.44,0,0,0-.26,1.7q0,.34-.07,5v5.88a20.67,20.67,0,0,1-.6,6.06,6.85,6.85,0,0,1-2.22,3,8.64,8.64,0,0,1-3.12,1.53,17,17,0,0,1-8.91-.1,7.36,7.36,0,0,1-3-1.68,5.92,5.92,0,0,1-1.42-2.13,16.69,16.69,0,0,1-.49-4.83V9.29q0-2.39-.06-4.67a5.56,5.56,0,0,0-.25-2,1.2,1.2,0,0,0-.65-.46A12.69,12.69,0,0,0,125.74,2Z"/><path class="cls-2" d="M155.42,25.83v-.92a5.77,5.77,0,0,0,1.37-.8.87.87,0,0,0,.24-.41,9.48,9.48,0,0,0,.21-2.1q.09-2.41.09-2.86V9.29q0-2.39-.05-4.67a5.49,5.49,0,0,0-.25-2,1.18,1.18,0,0,0-.65-.46A12.65,12.65,0,0,0,153.84,2V.88q4.29.12,5.3.12t5-.12V2a12.66,12.66,0,0,0-2.54.19,1.16,1.16,0,0,0-.62.41,4.51,4.51,0,0,0-.26,1.7q0,.35-.09,5V21.09q0,1.84.09,3,2,.12,4,.13a25.89,25.89,0,0,0,6.94-.63,8.49,8.49,0,0,0,.41-1.21l.7-2.91H174q-.38,2.62-.75,6.15a11.27,11.27,0,0,1-1.14.17q-.91.05-2.81.05l-10.4-.13Q157.16,25.7,155.42,25.83Z"/><path class="cls-2" d="M176.77,25.83V25c.67-.39,1.23-.74,1.69-1.05.07-.8.13-1.9.17-3.32q.12-3.61.12-5V8.44q0-1.72-.09-4a6,6,0,0,0-.25-1.81.74.74,0,0,0-.37-.33A7.71,7.71,0,0,0,175.62,2V.88q2.57.09,4.53.09c1,0,2.38,0,4.12-.06s3.09-.06,4-.06a18.2,18.2,0,0,1,6.92,1.09,10.29,10.29,0,0,1,4.45,3.68,10.63,10.63,0,0,1,1.83,6.3,14.37,14.37,0,0,1-.86,5A13.5,13.5,0,0,1,198.32,21a12.84,12.84,0,0,1-3.16,2.77,14.29,14.29,0,0,1-3.54,1.54,19.68,19.68,0,0,1-5.08.52q-1.07,0-2.9-.07l-3.12-.06Q179.45,25.7,176.77,25.83Zm5.43-1.92a24,24,0,0,0,4.07.33,17.82,17.82,0,0,0,3.91-.38,10.37,10.37,0,0,0,2.9-1.09,8.85,8.85,0,0,0,2.33-2.07,9.53,9.53,0,0,0,1.73-3.5,16,16,0,0,0,.61-4.41,12.49,12.49,0,0,0-1.17-5.61A8,8,0,0,0,193,3.59a14,14,0,0,0-6.46-1.25,29.9,29.9,0,0,0-4.39.33q-.05.86-.09,3.06L182,8.27v7l.05,5.44C182.1,21.54,182.13,22.61,182.19,23.91Z"/><path class="cls-2" d="M214.16,24.7v1.13q-3.73-.12-4.91-.13l-5.42.13V24.7a12.65,12.65,0,0,0,2.52-.18,1.16,1.16,0,0,0,.63-.41,4.47,4.47,0,0,0,.27-1.7q0-.37.09-5V9.29q0-2.39-.05-4.67a5.52,5.52,0,0,0-.25-2,1.2,1.2,0,0,0-.65-.46A12.62,12.62,0,0,0,203.83,2V.88Q207.18,1,209,1t5.16-.12V2a12.57,12.57,0,0,0-2.53.19,1.16,1.16,0,0,0-.62.41,4.56,4.56,0,0,0-.26,1.7q0,.34-.09,5v8.13c0,1.59,0,3.14.05,4.65a5.6,5.6,0,0,0,.25,2,1.19,1.19,0,0,0,.65.46A12.78,12.78,0,0,0,214.16,24.7Z"/><path class="cls-2" d="M216.13,25.83V24.7a7.32,7.32,0,0,0,2.44-.28.68.68,0,0,0,.35-.33,6.26,6.26,0,0,0,.25-1.84c.06-1.54.09-2.87.09-4V4a2.44,2.44,0,0,0-.07-.75,2.48,2.48,0,0,0-.63-.76,1.53,1.53,0,0,0-.73-.36A14.29,14.29,0,0,0,216,2V.88q3,.07,3.82.07,1.32,0,2.64-.07l2.17,2.87,3.59,4.47,5.24,6.37q2.51,3.05,4,4.8,1,1.15,1.63,1.82V8.43c0-1.14,0-2.48-.13-4a6.8,6.8,0,0,0-.23-1.8.74.74,0,0,0-.37-.33A7.62,7.62,0,0,0,236,2V.88q2.07.07,4.2.07t3.64-.07V2a7.72,7.72,0,0,0-2.42.27.65.65,0,0,0-.35.35,6,6,0,0,0-.25,1.84c-.06,1.54-.09,2.87-.09,4v8.43q0,2.56.09,9.56L239,25.91l-.42-.09a.67.67,0,0,1-.19-.11,6.81,6.81,0,0,1-.67-.71q-1.46-1.67-2.14-2.52l-2.26-2.89-12.45-15V18.17q0,1.74.12,4.1a6.62,6.62,0,0,0,.23,1.81.73.73,0,0,0,.37.35,7.52,7.52,0,0,0,2.41.27v1.13c-1-.08-2.17-.13-3.41-.13S217.72,25.74,216.13,25.83Z"/><path class="cls-2" d="M270,24.45a30.79,30.79,0,0,1-4.38,1.3,30.22,30.22,0,0,1-5.69.58,15.85,15.85,0,0,1-7.22-1.59,11.66,11.66,0,0,1-4.88-4.46,12.86,12.86,0,0,1-1.72-6.76,12.57,12.57,0,0,1,1.24-5.82,12.54,12.54,0,0,1,3.09-3.94,13.92,13.92,0,0,1,3.7-2.28,19,19,0,0,1,7-1.12,21.88,21.88,0,0,1,4.1.45q2.15.43,4.86,1.18a14.26,14.26,0,0,0-.41,1.76c-.09.57-.22,1.75-.37,3.53h-1.07l-.09-2c0-.3,0-.55,0-.74a2,2,0,0,0-.22-.72,4.16,4.16,0,0,0-1.51-1.14,18.84,18.84,0,0,0-3-.91,14.7,14.7,0,0,0-2.79-.23A11.26,11.26,0,0,0,254.9,3,9.12,9.12,0,0,0,251.2,7a13.4,13.4,0,0,0-1.26,5.8,13.08,13.08,0,0,0,1.47,6.23,10.51,10.51,0,0,0,3.94,4.23,11,11,0,0,0,5.75,1.47,14.73,14.73,0,0,0,3-.3,9.2,9.2,0,0,0,2.45-.82,11.38,11.38,0,0,0,.16-2.25v-2a5.42,5.42,0,0,0-.16-1.81c-.1-.18-.39-.31-.85-.39a26.87,26.87,0,0,0-3.19-.2V16l5.48.12c1.07,0,2.15,0,3.27-.12l.11.84-1.32.77a30.68,30.68,0,0,0-.21,3.46A29.82,29.82,0,0,0,270,24.45Z"/><path class="cls-2" d="M58.21,36.94v-.48l.89,0,1.43,0,1.32,0,1.35,0a6.17,6.17,0,0,1,2.07.25,2,2,0,0,1,1,.82,2.28,2.28,0,0,1,.36,1.24A2.59,2.59,0,0,1,66.3,40a2.8,2.8,0,0,1-1,1,5,5,0,0,1-1.66.63q.18.26.88,1.16l1.88,2.47q.8,1,.94,1.15a.44.44,0,0,0,.13.07,2,2,0,0,0,.49,0V47Q67.43,47,67,47c-.29,0-.65,0-1.07.05q-.49-.56-1.63-2.18-.64-.9-1.12-1.5-.78-1-1.49-1.81l.07-.22.59,0a2.94,2.94,0,0,0,2.05-.64,2.18,2.18,0,0,0,.7-1.69,1.86,1.86,0,0,0-.6-1.46A2.67,2.67,0,0,0,62.68,37a5,5,0,0,0-1.5.23c0,.27,0,.52,0,.75,0,.07,0,.79-.05,2.16v3.3c0,.68,0,1.33,0,2a2.34,2.34,0,0,0,.1.84.5.5,0,0,0,.28.2,5.26,5.26,0,0,0,1.07.08V47Q61.51,47,60.62,47q-.72,0-2.4.05v-.48a5.29,5.29,0,0,0,1.07-.08.49.49,0,0,0,.27-.17,1.9,1.9,0,0,0,.11-.72q0-.16,0-2.11V40q0-1,0-2a2.36,2.36,0,0,0-.11-.84.52.52,0,0,0-.27-.19A5.49,5.49,0,0,0,58.21,36.94Z"/><path class="cls-2" d="M68.59,47v-.48a3,3,0,0,0,1-.12.27.27,0,0,0,.15-.14,2.6,2.6,0,0,0,.1-.78q0-1,0-1.69V40c0-.67,0-1.33,0-2a2.34,2.34,0,0,0-.11-.84.51.51,0,0,0-.28-.19,5.48,5.48,0,0,0-1.08-.08v-.48l2.12,0,2.25,0,2.35,0a11.23,11.23,0,0,1,1.39.08,5.58,5.58,0,0,0-.16.74s-.06.56-.13,1.55h-.47a7.85,7.85,0,0,0-.1-1.38,3.29,3.29,0,0,0-.9-.23,13.26,13.26,0,0,0-1.67-.1l-.8,0-.89.05c0,.55,0,1.06,0,1.54l0,2.51c.58,0,1.11.05,1.6.05a12.08,12.08,0,0,0,1.51-.08.45.45,0,0,0,.3-.12,1.75,1.75,0,0,0,.12-.61l0-.52h.45v.14l0,1.55,0,1.74h-.52l0-.51a1.71,1.71,0,0,0-.1-.69.48.48,0,0,0-.32-.19,9.68,9.68,0,0,0-1.64-.09l-1.42,0q0,.74,0,2.21t0,2.09q1.07.08,2.4.08a10.38,10.38,0,0,0,1.34-.06,3.1,3.1,0,0,0,.74-.2,4.65,4.65,0,0,0,.18-.62q.16-.66.22-1h.5a20.17,20.17,0,0,0-.19,2.49A10.64,10.64,0,0,1,75,47L70.54,47Z"/><path class="cls-2" d="M77.74,36.94v-.48l2.28.05,2.1-.05v.48A5.43,5.43,0,0,0,81,37a.49.49,0,0,0-.26.17,1.9,1.9,0,0,0-.11.72c0,.1,0,.8,0,2.12v1q1.47.05,3.57.05,1.62,0,2.58-.05V40q0-1,0-2a2.38,2.38,0,0,0-.11-.84.51.51,0,0,0-.27-.19,5.4,5.4,0,0,0-1.07-.08v-.48l2.2.05,2.17-.05v.48a5.43,5.43,0,0,0-1.07.08.46.46,0,0,0-.26.17,1.78,1.78,0,0,0-.12.72q0,.15,0,2.11v3.44q0,1,0,2a2.32,2.32,0,0,0,.1.84.5.5,0,0,0,.28.2,5.27,5.27,0,0,0,1.07.08V47Q88.24,47,87.32,47t-2,.05v-.48a5.31,5.31,0,0,0,1.08-.08.49.49,0,0,0,.26-.17,1.7,1.7,0,0,0,.11-.72q0-.16,0-2.11V41.79q-2.08-.05-3.16-.05t-3,.05v1.69q0,1,0,2a2.36,2.36,0,0,0,.11.84.5.5,0,0,0,.28.2,5.31,5.31,0,0,0,1.08.08V47C81.45,47,80.76,47,80,47s-1.54,0-2.31.05v-.48a5.26,5.26,0,0,0,1.07-.08.49.49,0,0,0,.27-.17,1.9,1.9,0,0,0,.11-.72q0-.16,0-2.11V40q0-1,0-2a2.32,2.32,0,0,0-.11-.84.51.51,0,0,0-.28-.19A5.46,5.46,0,0,0,77.74,36.94Z"/><path class="cls-2" d="M89.83,47v-.51a4,4,0,0,0,.73,0,.62.62,0,0,0,.27-.16,2.45,2.45,0,0,0,.35-.6l1-2.09L94,39.44q.3-.69,1.3-3.08h.48L99,43.82q.77,1.82,1,2.28a.77.77,0,0,0,.31.34,2.22,2.22,0,0,0,.76.09V47Q99.92,47,99.46,47l-2.4.07v-.51a8.35,8.35,0,0,0,1-.05.45.45,0,0,0,.24-.11.25.25,0,0,0,.06-.18,1.22,1.22,0,0,0-.1-.42l-.92-2.28H93l-.81,1.91a2.23,2.23,0,0,0-.22.75.25.25,0,0,0,.06.17.44.44,0,0,0,.25.13,5.64,5.64,0,0,0,1,.07V47Q92,47,91.42,47C90.93,47,90.41,47,89.83,47Zm3.47-4.18h3.75L95.2,38.38Z"/><path class="cls-2" d="M102.25,47v-.35a3.36,3.36,0,0,0,.51-.29.43.43,0,0,0,.08-.2,8.47,8.47,0,0,0,.08-.95c0-.48,0-.85,0-1.1V39.67q0-.73,0-1.71a2.52,2.52,0,0,0-.1-.77.32.32,0,0,0-.16-.14,3.25,3.25,0,0,0-1-.11v-.48l.62,0,1.55,0,2.74-.07a4.91,4.91,0,0,1,1.68.22,1.86,1.86,0,0,1,.92.73,2,2,0,0,1,.33,1.12,2.21,2.21,0,0,1-.2.92,2.4,2.4,0,0,1-.53.75,2.86,2.86,0,0,1-.74.51,5.61,5.61,0,0,1-1.06.36,7.51,7.51,0,0,1,1.41.24,2.35,2.35,0,0,1,.9.48,2,2,0,0,1,.55.77,2.64,2.64,0,0,1,.19,1,3,3,0,0,1-.67,1.94,3.93,3.93,0,0,1-1.72,1.24,5.22,5.22,0,0,1-1.86.3L103.59,47C103.35,47,102.91,47,102.25,47Zm2.12-6.18.75,0a5.53,5.53,0,0,0,1.43-.14,2.08,2.08,0,0,0,.78-.37,1.75,1.75,0,0,0,.46-.62,2.18,2.18,0,0,0,.18-.92,1.52,1.52,0,0,0-.59-1.34,3,3,0,0,0-1.73-.41,5.91,5.91,0,0,0-1.2.12q-.07.62-.07,1.91Zm0,5.41a5,5,0,0,0,1.18.13,3.57,3.57,0,0,0,1.59-.3,2.08,2.08,0,0,0,.93-.91,2.93,2.93,0,0,0,.32-1.4,2.59,2.59,0,0,0-.31-1.31,1.85,1.85,0,0,0-.91-.79,5.63,5.63,0,0,0-2-.26l-.82,0v2.82Q104.37,44.7,104.4,46.27Z"/><path class="cls-2" d="M115.48,46.56V47L113.4,47l-2.3.05v-.48a5.27,5.27,0,0,0,1.07-.08.5.5,0,0,0,.27-.17,1.92,1.92,0,0,0,.11-.72q0-.16,0-2.11V40q0-1,0-2a2.31,2.31,0,0,0-.11-.84.52.52,0,0,0-.28-.19,5.46,5.46,0,0,0-1.08-.08v-.48q1.42.05,2.19.05t2.19-.05v.48a5.42,5.42,0,0,0-1.07.08.5.5,0,0,0-.26.17,1.9,1.9,0,0,0-.11.72q0,.15,0,2.11v3.44q0,1,0,2a2.41,2.41,0,0,0,.11.84.5.5,0,0,0,.28.2A5.29,5.29,0,0,0,115.48,46.56Z"/><path class="cls-2" d="M116.84,47v-.39a2.37,2.37,0,0,0,.58-.34.36.36,0,0,0,.1-.17,4.13,4.13,0,0,0,.09-.89q0-1,0-1.21V40q0-1,0-2a2.31,2.31,0,0,0-.11-.84.52.52,0,0,0-.28-.19,5.46,5.46,0,0,0-1.08-.08v-.48l2.25.05,2.14-.05v.48a5.46,5.46,0,0,0-1.08.08.5.5,0,0,0-.26.17,1.9,1.9,0,0,0-.11.72q0,.15,0,2.11v5q0,.78,0,1.27c.56,0,1.13.05,1.68.05a11,11,0,0,0,2.94-.27,3.6,3.6,0,0,0,.17-.51l.3-1.24h.5q-.16,1.11-.32,2.61l-.48.07q-.39,0-1.19,0L118.29,47Q117.57,47,116.84,47Z"/><path class="cls-2" d="M129.93,46.56V47L127.85,47l-2.3.05v-.48a5.26,5.26,0,0,0,1.07-.08.49.49,0,0,0,.27-.17,1.91,1.91,0,0,0,.11-.72q0-.16,0-2.11V40q0-1,0-2a2.37,2.37,0,0,0-.11-.84.52.52,0,0,0-.28-.19,5.44,5.44,0,0,0-1.08-.08v-.48q1.42.05,2.19.05t2.18-.05v.48a5.41,5.41,0,0,0-1.07.08.5.5,0,0,0-.26.17,1.92,1.92,0,0,0-.11.72q0,.15,0,2.11v3.44q0,1,0,2a2.35,2.35,0,0,0,.11.84.5.5,0,0,0,.28.2A5.3,5.3,0,0,0,129.93,46.56Z"/><path class="cls-2" d="M131.2,38.93h-.46q0-1.78-.07-2.46l2.55.08,1.88,0,2.34,0,1.94-.06c-.06.56-.1,1.38-.12,2.46h-.48l-.06-.71c0-.43-.07-.68-.08-.74a.26.26,0,0,0-.06-.13.3.3,0,0,0-.12-.06l-.74-.06-1,0h-.91q-.07.71-.07,1.93v4.35c0,.68,0,1.33,0,2a2.35,2.35,0,0,0,.11.84.5.5,0,0,0,.27.2,5.33,5.33,0,0,0,1.08.08V47q-1.33-.06-2-.06l-2.32.06v-.48a5.34,5.34,0,0,0,1.08-.08.45.45,0,0,0,.26-.17,1.79,1.79,0,0,0,.12-.72q0-.16,0-2.11V39.14c0-.21,0-.44,0-.69l0-1.26h-1.11a12,12,0,0,0-1.53.08.33.33,0,0,0-.23.1,2.59,2.59,0,0,0-.15.81Z"/><path class="cls-2" d="M138.45,47v-.51a4,4,0,0,0,.74,0,.63.63,0,0,0,.27-.16,2.45,2.45,0,0,0,.35-.6q.13-.28,1-2.09l1.86-4.2q.3-.69,1.3-3.08h.48l3.18,7.47q.77,1.82,1,2.28a.77.77,0,0,0,.31.34,2.22,2.22,0,0,0,.76.09V47q-1.16-.07-1.63-.07l-2.4.07v-.51a8.35,8.35,0,0,0,1-.05.45.45,0,0,0,.24-.11.25.25,0,0,0,.06-.18,1.2,1.2,0,0,0-.11-.42L146,43.5h-4.31l-.81,1.91a2.23,2.23,0,0,0-.21.75.25.25,0,0,0,.06.17.44.44,0,0,0,.25.13,5.64,5.64,0,0,0,1,.07V47Q140.66,47,140,47T138.45,47Zm3.47-4.18h3.75l-1.85-4.48Z"/><path class="cls-2" d="M149.43,38.93H149q0-1.78-.08-2.46l2.55.08,1.88,0,2.35,0,1.94-.06c-.06.56-.1,1.38-.12,2.46H157l-.06-.71c0-.43-.07-.68-.08-.74a.25.25,0,0,0-.06-.13.3.3,0,0,0-.12-.06l-.75-.06-1,0H154q-.07.71-.07,1.93v4.35c0,.68,0,1.33,0,2a2.42,2.42,0,0,0,.11.84.5.5,0,0,0,.28.2,5.3,5.3,0,0,0,1.08.08V47q-1.33-.06-2-.06l-2.32.06v-.48a5.33,5.33,0,0,0,1.07-.08.46.46,0,0,0,.26-.17,1.8,1.8,0,0,0,.12-.72q0-.16,0-2.11V39.14c0-.21,0-.44,0-.69l0-1.26h-1.11a12.07,12.07,0,0,0-1.53.08.32.32,0,0,0-.23.1,2.57,2.57,0,0,0-.15.81Z"/><path class="cls-2" d="M162.64,46.56V47L160.56,47l-2.3.05v-.48a5.26,5.26,0,0,0,1.07-.08.49.49,0,0,0,.27-.17,1.88,1.88,0,0,0,.11-.72q0-.16,0-2.11V40q0-1,0-2a2.38,2.38,0,0,0-.11-.84.52.52,0,0,0-.28-.19,5.44,5.44,0,0,0-1.07-.08v-.48c.95,0,1.68.05,2.19.05s1.22,0,2.18-.05v.48a5.42,5.42,0,0,0-1.07.08.5.5,0,0,0-.26.17,1.92,1.92,0,0,0-.11.72q0,.15,0,2.11v3.44q0,1,0,2a2.37,2.37,0,0,0,.11.84.51.51,0,0,0,.28.2A5.31,5.31,0,0,0,162.64,46.56Z"/><path class="cls-2" d="M163.42,41.82a6.47,6.47,0,0,1,.35-2.17,4.63,4.63,0,0,1,1.17-1.79,5.51,5.51,0,0,1,1.85-1.2,6.46,6.46,0,0,1,2.37-.41,6.84,6.84,0,0,1,2.23.35,4.83,4.83,0,0,1,1.65.92,4.64,4.64,0,0,1,1,1.25,4.72,4.72,0,0,1,.45,1.19,6.19,6.19,0,0,1,.17,1.47A5.63,5.63,0,0,1,173,45.59a5.8,5.8,0,0,1-4.25,1.67,6.15,6.15,0,0,1-2.18-.38,4.43,4.43,0,0,1-1.71-1.13,5,5,0,0,1-1.07-1.82A6.5,6.5,0,0,1,163.42,41.82ZM165,41.2a7.52,7.52,0,0,0,.14,1.44,6.73,6.73,0,0,0,.36,1.26,4.68,4.68,0,0,0,.93,1.5,3.67,3.67,0,0,0,1.29.89,4.16,4.16,0,0,0,1.57.29,3.69,3.69,0,0,0,2.08-.58,3.51,3.51,0,0,0,1.32-1.65,6.42,6.42,0,0,0,.44-2.45,7.28,7.28,0,0,0-.31-2.18,4.56,4.56,0,0,0-.52-1.11,3.5,3.5,0,0,0-1.91-1.48,4.47,4.47,0,0,0-1.53-.25,4,4,0,0,0-2.08.53,3.29,3.29,0,0,0-1.34,1.53A5.47,5.47,0,0,0,165,41.2Z"/><path class="cls-2" d="M175.46,47v-.48a3.08,3.08,0,0,0,1-.12.28.28,0,0,0,.15-.14,2.62,2.62,0,0,0,.11-.78q0-1,0-1.69V37.78a1.13,1.13,0,0,0,0-.32,1.08,1.08,0,0,0-.27-.32.65.65,0,0,0-.31-.15,5.93,5.93,0,0,0-.78,0v-.48l1.62,0q.56,0,1.12,0l.92,1.22,1.52,1.89,2.22,2.7q1.06,1.29,1.71,2c.27.33.5.58.69.77V39.67c0-.48,0-1.05-.05-1.71a2.86,2.86,0,0,0-.1-.76.32.32,0,0,0-.16-.14,3.26,3.26,0,0,0-1-.11v-.48q.88,0,1.78,0c.57,0,1.08,0,1.54,0v.48a3.26,3.26,0,0,0-1,.11.27.27,0,0,0-.15.15,2.53,2.53,0,0,0-.1.78q0,1,0,1.69v3.58q0,1.08,0,4.05l-.77-.22L185,47l-.08,0a3.05,3.05,0,0,1-.28-.3q-.62-.71-.91-1.07l-1-1.23L177.46,38v5.77c0,.49,0,1.07.05,1.74a2.74,2.74,0,0,0,.1.77.3.3,0,0,0,.16.15,3.13,3.13,0,0,0,1,.11V47q-.65-.05-1.45-.05T175.46,47Z"/><path class="cls-2" d="M192.91,47v-.48a3.07,3.07,0,0,0,1-.12.28.28,0,0,0,.15-.14,2.71,2.71,0,0,0,.1-.78q0-1,0-1.69V37.78a.62.62,0,0,0-.3-.64.66.66,0,0,0-.31-.15,5.93,5.93,0,0,0-.78,0v-.48l1.62,0c.38,0,.75,0,1.12,0l.92,1.22L198,39.58l2.22,2.7q1.07,1.29,1.71,2c.28.33.5.58.69.77V39.67q0-.73-.05-1.71a2.85,2.85,0,0,0-.1-.76.32.32,0,0,0-.16-.14,3.26,3.26,0,0,0-1-.11v-.48q.88,0,1.78,0t1.54,0v.48a3.25,3.25,0,0,0-1,.11.28.28,0,0,0-.15.15,2.52,2.52,0,0,0-.1.78q0,1,0,1.69v3.58q0,1.08,0,4.05l-.77-.22-.18,0-.08,0a2.83,2.83,0,0,1-.28-.3q-.62-.71-.91-1.07l-1-1.23L194.91,38v5.77q0,.74.05,1.74a2.78,2.78,0,0,0,.1.77.31.31,0,0,0,.16.15,3.13,3.13,0,0,0,1,.11V47q-.66-.05-1.45-.05T192.91,47Z"/><path class="cls-2" d="M205.44,47v-.48a3,3,0,0,0,1-.12.27.27,0,0,0,.15-.14,2.58,2.58,0,0,0,.1-.78c0-.65,0-1.22,0-1.69V40c0-.67,0-1.33,0-2a2.34,2.34,0,0,0-.11-.84.51.51,0,0,0-.28-.19,5.49,5.49,0,0,0-1.08-.08v-.48l2.12,0,2.25,0,2.35,0a11.2,11.2,0,0,1,1.39.08,5.57,5.57,0,0,0-.16.74s-.05.56-.13,1.55h-.47a7.8,7.8,0,0,0-.1-1.38,3.3,3.3,0,0,0-.9-.23,13.27,13.27,0,0,0-1.67-.1l-.8,0-.88.05c0,.55,0,1.06,0,1.54l0,2.51q.87.05,1.6.05a12.08,12.08,0,0,0,1.51-.08.45.45,0,0,0,.3-.12,1.78,1.78,0,0,0,.12-.61l0-.52h.45v.14l0,1.55,0,1.74h-.52l0-.51a1.7,1.7,0,0,0-.1-.69.49.49,0,0,0-.32-.19,9.68,9.68,0,0,0-1.64-.09l-1.42,0q0,.74,0,2.21t0,2.09q1.07.08,2.4.08a10.39,10.39,0,0,0,1.34-.06,3.11,3.11,0,0,0,.74-.2,4.5,4.5,0,0,0,.18-.62q.16-.66.22-1h.5a20.2,20.2,0,0,0-.19,2.49,10.62,10.62,0,0,1-1.56.1L207.39,47Z"/><path class="cls-2" d="M215.09,38.93h-.46q0-1.78-.07-2.46l2.55.08,1.88,0,2.34,0,1.94-.06c-.06.56-.1,1.38-.12,2.46h-.48l-.06-.71c0-.43-.07-.68-.08-.74a.27.27,0,0,0-.06-.13.32.32,0,0,0-.12-.06l-.75-.06-1,0h-.91q-.07.71-.07,1.93v4.35c0,.68,0,1.33,0,2a2.34,2.34,0,0,0,.11.84.5.5,0,0,0,.27.2,5.34,5.34,0,0,0,1.08.08V47q-1.33-.06-2-.06l-2.32.06v-.48a5.35,5.35,0,0,0,1.08-.08.45.45,0,0,0,.26-.17,1.8,1.8,0,0,0,.12-.72q0-.16,0-2.11V39.14c0-.21,0-.44,0-.69l0-1.26h-1.11a12,12,0,0,0-1.53.08.33.33,0,0,0-.23.1,2.62,2.62,0,0,0-.15.81Z"/><path class="cls-2" d="M227,47.12l-.68-3.1-1.44-6.12a1.79,1.79,0,0,0-.3-.77,2.3,2.3,0,0,0-.92-.21v-.45q1.25.05,1.89.05t1.94-.05v.45a4.66,4.66,0,0,0-1.12.11.22.22,0,0,0-.1.21,4.11,4.11,0,0,0,.09.66c.17.89.27,1.45.33,1.69l1.17,5.15,1.84-4.58q.72-1.8,1.42-3.8h.48q.68,2.11,1.23,3.62l1.75,4.85,1.27-4.44q.34-1.19.63-2.48a6,6,0,0,0,.13-.68.24.24,0,0,0-.13-.23,5,5,0,0,0-1.19-.1v-.45l1.59.05c.31,0,.84,0,1.59-.05v.45a1.66,1.66,0,0,0-.69.1.71.71,0,0,0-.28.35q-.11.25-.63,2l-.77,2.51c-.08.25-.23.81-.47,1.69l-1,3.59h-.76q-.83-2.46-1.28-3.69l-1.7-4.59-1.48,3.68-.93,2.43q-.19.5-.33.89l-.45,1.28Z"/><path class="cls-2" d="M238.58,41.82a6.45,6.45,0,0,1,.35-2.17,4.65,4.65,0,0,1,1.17-1.79,5.53,5.53,0,0,1,1.85-1.2,6.45,6.45,0,0,1,2.37-.41,6.83,6.83,0,0,1,2.23.35,4.86,4.86,0,0,1,1.65.92,4.67,4.67,0,0,1,1,1.25,4.76,4.76,0,0,1,.45,1.19,6.14,6.14,0,0,1,.17,1.47,5.63,5.63,0,0,1-1.69,4.18,5.8,5.8,0,0,1-4.25,1.67,6.15,6.15,0,0,1-2.18-.38A4.43,4.43,0,0,1,240,45.75a5,5,0,0,1-1.07-1.82A6.51,6.51,0,0,1,238.58,41.82Zm1.55-.62a7.51,7.51,0,0,0,.14,1.44,6.73,6.73,0,0,0,.36,1.26,4.65,4.65,0,0,0,.94,1.5,3.65,3.65,0,0,0,1.29.89,4.16,4.16,0,0,0,1.57.29,3.7,3.7,0,0,0,2.08-.58,3.51,3.51,0,0,0,1.32-1.65,6.39,6.39,0,0,0,.43-2.45,7.28,7.28,0,0,0-.31-2.18,4.67,4.67,0,0,0-.51-1.11,3.83,3.83,0,0,0-.76-.86,3.76,3.76,0,0,0-1.15-.62,4.46,4.46,0,0,0-1.53-.25,4,4,0,0,0-2.08.53,3.29,3.29,0,0,0-1.34,1.53A5.5,5.5,0,0,0,240.13,41.2Z"/><path class="cls-2" d="M250.54,36.94v-.48l.89,0,1.43,0,1.32,0,1.35,0a6.19,6.19,0,0,1,2.08.25,2,2,0,0,1,1,.82,2.3,2.3,0,0,1,.36,1.24,2.58,2.58,0,0,1-.34,1.24,2.8,2.8,0,0,1-1,1,5,5,0,0,1-1.66.63l.88,1.16,1.88,2.47q.8,1,.94,1.15a.44.44,0,0,0,.13.07,2,2,0,0,0,.49,0V47c-.38,0-.7-.05-1-.05s-.65,0-1.07.05q-.48-.56-1.63-2.18-.63-.9-1.12-1.5-.78-1-1.49-1.81l.08-.22.59,0a3,3,0,0,0,2.05-.64,2.18,2.18,0,0,0,.7-1.69,1.86,1.86,0,0,0-.6-1.46A2.67,2.67,0,0,0,255,37a5,5,0,0,0-1.5.23c0,.27,0,.52,0,.75,0,.07,0,.79-.05,2.16v3.3c0,.68,0,1.33,0,2a2.36,2.36,0,0,0,.1.84.5.5,0,0,0,.28.2,5.3,5.3,0,0,0,1.07.08V47q-1.06-.05-1.94-.05-.71,0-2.41.05v-.48a5.24,5.24,0,0,0,1.07-.08.49.49,0,0,0,.27-.17,1.9,1.9,0,0,0,.11-.72q0-.16,0-2.11V40c0-.67,0-1.33,0-2a2.38,2.38,0,0,0-.11-.84.52.52,0,0,0-.28-.19A5.44,5.44,0,0,0,250.54,36.94Z"/><path class="cls-2" d="M265.12,46.56V47L262.87,47l-2.11.05v-.48a5.26,5.26,0,0,0,1.07-.08.49.49,0,0,0,.27-.17,1.91,1.91,0,0,0,.11-.72q0-.16,0-2.11V40q0-1,0-2a2.38,2.38,0,0,0-.11-.84.51.51,0,0,0-.28-.19,5.45,5.45,0,0,0-1.08-.08v-.48q1.44.05,2.21.05t2.14-.05v.48a5.42,5.42,0,0,0-1.07.08.46.46,0,0,0-.26.17,1.76,1.76,0,0,0-.12.72q0,.15,0,2.11v1.53a4.52,4.52,0,0,0,1-.76l.94-.92,1.66-1.68c.64-.65,1-1.07,1.18-1.25v-.48l1.39,0,1.17,0v.48a4.84,4.84,0,0,0-1,.06,1.44,1.44,0,0,0-.48.22q-.47.35-1.46,1.25l-3,2.72,4.47,4.18q1.08,1,1.23,1.1a1.3,1.3,0,0,0,.57.1V47l-1,0-1.16,0L268,45.84l-.77-.74-3.38-3.17-.17.1v1.44q0,1,0,2a2.33,2.33,0,0,0,.1.84.5.5,0,0,0,.28.2A5.26,5.26,0,0,0,265.12,46.56Z"/></g></g></svg>