<svg id="Layer_1" data-name="Layer 1" xmlns="http://www.w3.org/2000/svg" xmlns:xlink="http://www.w3.org/1999/xlink" viewBox="0 0 484.53417 97.26423"><defs><style>.cls-1{fill:#fff;}.cls-2{fill:none;stroke:#003da6;stroke-miterlimit:3.864;stroke-width:1.5px;}.cls-3{fill:#003da6;}.cls-4{fill:url(#linear-gradient);}.cls-5{fill:url(#linear-gradient-2);}.cls-6{fill:url(#linear-gradient-3);}.cls-7{fill:#231f20;}</style><linearGradient id="linear-gradient" x1="298.68902" y1="986.47649" x2="331.50054" y2="1009.39031" gradientTransform="translate(-81.7163 1156.7895) rotate(-155.03399)" gradientUnits="userSpaceOnUse"><stop offset="0.03067" stop-color="#fff"/><stop offset="0.25153" stop-color="#fff"/><stop offset="0.33693" stop-color="#fbfcfe"/><stop offset="0.42443" stop-color="#eff3f9"/><stop offset="0.51291" stop-color="#dae3f2"/><stop offset="0.60209" stop-color="#bdcde8"/><stop offset="0.69189" stop-color="#98b1db"/><stop offset="0.78214" stop-color="#6b8ecb"/><stop offset="0.87103" stop-color="#3666b9"/><stop offset="0.95092" stop-color="#003da6"/></linearGradient><linearGradient id="linear-gradient-2" x1="-4690.20074" y1="-14995.66438" x2="-4657.38471" y2="-14972.74742" gradientTransform="matrix(0.8187, -0.5741, 0.5741, 0.8187, 12504.66, 9696.7579)" xlink:href="#linear-gradient"/><linearGradient id="linear-gradient-3" x1="-16176.03308" y1="-2635.46239" x2="-16143.22213" y2="-2612.54896" gradientTransform="matrix(0.0878, 0.9961, -0.9961, 0.0878, -1124.3806, 16461.7341)" xlink:href="#linear-gradient"/></defs><title>BWH_logo_293</title><path class="cls-1" d="M66.65444,163.09866C25.97553,141.69722,25.66357,112.6772,25.66357,67.4315h81.9777c0,45.27325-.13756,74.26572-40.98683,95.66715" transform="translate(-24.91357 -66.6815)"/><path class="cls-2" d="M66.65444,163.09866C25.97553,141.69722,25.66357,112.6772,25.66357,67.4315h81.9777C107.64127,112.70476,107.50372,141.69722,66.65444,163.09866Z" transform="translate(-24.91357 -66.6815)"/><path class="cls-3" d="M104.8644,70.42606H28.3372V74.3463c-.03024,16.97271-.05093,33.01636,4.71432,47.72115a59.62594,59.62594,0,0,0,11.36612,20.64862c5.69235,6.68951,12.93768,12.23977,22.15723,16.97735l.11032.05789.11032-.05789c9.17828-4.76627,16.38326-10.33417,22.04537-17.0272a59.74985,59.74985,0,0,0,11.31473-20.68639c4.748-14.76578,4.7284-30.96206,4.70879-48.12588Z" transform="translate(-24.91357 -66.6815)"/><path class="cls-1" d="M50.46064,82.89715a7.62353,7.62353,0,0,0-2.03511-.55375,7.15884,7.15884,0,0,0,1.38013-.5266A4.05214,4.05214,0,0,0,51.275,80.43574a3.55443,3.55443,0,0,0,.57242-1.93945,3.0441,3.0441,0,0,0-2.1027-2.97243,8.85963,8.85963,0,0,0-2.98657-.4006c-.34663,0-1.07725.02723-2.15956.07915-.4359.014-1.03154.0257-1.79333.0257-.76849,0-1.40944-.00557-1.92892-.0157l-1.57208-.05231c-.18544-.00961-.56737-.01271-.73774-.01271v1.33835a6.70393,6.70393,0,0,1,1.813.23838.21058.21058,0,0,1,.08266.12745,11.84836,11.84836,0,0,1,.11733,2.142c.03881,1.7117.06,2.90886.06,3.6723,0,2.89483-.01661,4.94005-.04685,6.07376-.01507.49131-.04076.92164-.08111,1.28137a8.02654,8.02654,0,0,1-1.01885.69038v.86818c1.02091-.05438,2.02159-.09473,2.62828-.09473l3.84206.08163h.00351a7.82777,7.82777,0,0,0,2.64944-.39152,6.57763,6.57763,0,0,0,1.883-1.07282,5.58052,5.58052,0,0,0,1.34845-1.635,4.43453,4.43453,0,0,0,.53053-2.14955,4.10506,4.10506,0,0,0-.526-2.05234A3.30014,3.30014,0,0,0,50.46064,82.89715ZM44.2548,78.5355c.01011-.66406.03024-1.23349.065-1.72728a10.62044,10.62044,0,0,1,1.16652-.05841,3.61175,3.61175,0,0,1,1.45773.22424,1.671,1.671,0,0,1,.75074.74218,2.68481,2.68481,0,0,1,.29483,1.30406,3.32951,3.32951,0,0,1-.26253,1.355,2.16814,2.16814,0,0,1-.63486.86262,2.38208,2.38208,0,0,1-.99067.40814,7.77557,7.77557,0,0,1-1.40129.122l-.46758-.01311ZM47.649,89.09587a2.80856,2.80856,0,0,1-2.15007.86973,9.78347,9.78347,0,0,1-1.234-.0549l-.0322-6.52628c.21661-.01763.44745-.02723.68068-.02723a5.36994,5.36994,0,0,1,2.008.30236,2.34225,2.34225,0,0,1,1.12018.99367,3.72855,3.72855,0,0,1,.42929,1.90612A3.598,3.598,0,0,1,47.649,89.09587Z" transform="translate(-24.91357 -66.6815)"/><path class="cls-1" d="M93.28064,78.3965A6.65855,6.65855,0,0,1,93.4,76.85559a.32833.32833,0,0,1,.09122-.14509.80938.80938,0,0,1,.27006-.09174c.0872-.014,1.48746-.068,1.48746-.068V75.13739s-2.79.09071-4.14844.09071c-1.22854,0-3.505-.09071-3.505-.09071v1.41139s1.50407.07607,1.58322.09671a.608.608,0,0,1,.18441.0711.27226.27226,0,0,1,.05542.11733c.0257.11238.07255.67572.133,1.68.0131.3391.02167,1.12462.02167,2.26235v1.13226c-.61732.04334-1.93244.06749-3.90563.06749-1.567,0-2.65893-.02415-3.26417-.06749V80.77628c0-1.44009.03282-2.56574.10536-3.34579a2.46685,2.46685,0,0,1,.09319-.69027.34224.34224,0,0,1,.20154-.09473c.11991-.02673.59358-.06047,1.40335-.09473l.19-.002V75.13739s-2.28619.09071-3.50956.09071c-1.359,0-2.69226-.0292-3.953-.08071l-3.52164.08071c-.276,0-1.2692-.03427-2.68462-.09071v1.34587c.86818.06749,1.53379.12146,1.59271.1355a.43352.43352,0,0,1,.22373.12445.418.418,0,0,1,.062.24891,1.8035,1.8035,0,0,1-.0292.30989c-.07213.44446-.3618,1.65783-.87375,3.71915l-1.1791,4.55163-1.15238-2.83437c-.24839-.59656-.99315-2.47812-2.15162-5.44952-.26253-.67015-.588-1.53936-.87922-2.338H65.00878c-.16129.41072-.36077.92308-.51247,1.29293l-1.82,4.34255-1.44309,3.35023c-.31144.75281-.54724,1.32172-.713,1.71675l-.88686-3.99623c-.1194-.571-.316-1.57373-.61927-3.16345-.14158-.76385-.22073-1.2048-.23126-1.309a1.93971,1.93971,0,0,1-.01362-.27059.32145.32145,0,0,1,.07409-.24993.61175.61175,0,0,1,.34054-.122c.05346-.00753.56087-.0292,1.291-.0484V75.14142l-3.94133.08668-3.40678-.08668v1.35237a5.02477,5.02477,0,0,1,1.30913.14416.56739.56739,0,0,1,.24684.29276,15.218,15.218,0,0,1,.60524,2.37576l2.69928,12.34265h1.95761l1.27322-3.1684c1.77165-4.18931,2.84695-6.70872,3.32361-7.78855l2.94932,7.50229,1.28333,3.45466h2.066c.07853-.5261.54467-2.49423,1.37508-5.65262.8203-3.10639,1.4436-5.3905,1.8669-6.79179a18.30524,18.30524,0,0,1,.76282-2.30982.779.779,0,0,1,.23632-.26408,2.55873,2.55873,0,0,1,.80626-.11135c.05284-.0065,2.25131.08524,2.33294.10536a.70981.70981,0,0,1,.27357.09927.32331.32331,0,0,1,.08617.15066,6.47117,6.47117,0,0,1,.11548,1.56l.04128,2.25038v5.35067L78.69576,88.32a6.38168,6.38168,0,0,1-.11548,1.5373.263.263,0,0,1-.09215.14014.68383.68383,0,0,1-.26955.09876c-.0872.01414-1.492.06955-1.492.06955V91.578c1.26166-.05284,2.80154-.09319,4.16052-.09319,1.22337,0,2.54561.04035,3.50956.09473V90.1657c-1.01338-.03736-1.50613-.07513-1.5857-.09526a.40378.40378,0,0,1-.18049-.073.24146.24146,0,0,1-.06-.10588c-.01713-.08514-.05542-.44694-.13446-1.697-.0192-.323-.03282-1.08685-.03282-2.26441V83.71342c.16728-.02116.33466-.03168.50844-.03674.585-.01414,1.76815-.02425,3.52669-.02425,1.59075,0,2.64489.02425,3.13466.061v2.21663c0,1.48745-.02973,2.5839-.08968,3.35384a2.65195,2.65195,0,0,1-.09422.68676.33007.33007,0,0,1-.20113.09577c-.125.02972-1.59271.09927-1.59271.09927v1.41388s2.27648-.09473,3.505-.09473c1.35846,0,4.14844.09319,4.14844.09319V90.1657s-1.41337-.05542-1.5-.06955a.6975.6975,0,0,1-.25747-.09122.58924.58924,0,0,1-.10485-.15923,7.82858,7.82858,0,0,1-.10578-1.56206l-.0419-2.24171V80.69218Z" transform="translate(-24.91357 -66.6815)"/><path class="cls-4" d="M47.16077,138.71829a54.64106,54.64106,0,0,0,3.637,4.29859,35.14272,35.14272,0,0,0,15.93271-7.856,34.92095,34.92095,0,0,1-9.26383-39.75376c.03983-.08111.451-.94785.4908-1.05259-7.533,2.17164-12.13255,4.46742-17.37486,10.60113C36.34541,116.13826,40.23793,129.57685,47.16077,138.71829Z" transform="translate(-24.91357 -66.6815)"/><path class="cls-5" d="M62.11643,96.78618A49.64023,49.64023,0,0,0,56.57228,97.8a34.90421,34.90421,0,0,0-1.159,17.70746,34.91943,34.91943,0,0,1,39.04388,11.85733c.07513.08421.61422.86271.67675.96849,1.88548-7.60909,2.20239-12.7477-.49234-20.34729C87.07583,98.72408,73.49813,95.36168,62.11643,96.78618Z" transform="translate(-24.91357 -66.6815)"/><path class="cls-6" d="M90.95163,130.70146a53.41815,53.41815,0,0,0,1.89559-5.28523,35.04045,35.04045,0,0,0-14.76124-9.877,34.90768,34.90768,0,0,1-29.784,27.89033c-.1129.02064-1.06219.0902-1.18158.10083,5.65757,5.44591,9.94513,8.27522,17.86813,9.75514C76.80316,151.36165,86.49081,141.26535,90.95163,130.70146Z" transform="translate(-24.91357 -66.6815)"/><path class="cls-7" d="M149.18134,127.01008l-4.75214-12.43336-6.63513,16.219c-.48874,1.24515-.98614,2.48618-1.36755,3.77158h-1.90261c-.26253-1.35444-.56644-2.49021-.87076-3.77158l-4.53295-18.88194c-.3779-1.58775-1.105-1.76464-1.90106-1.83872l-1.0658-.11032v-1.09841c1.59932.03973,3.15942.1098,4.79754.1098,1.63152,0,3.19915-.07007,4.79445-.1098v1.09841L134.15,110.075c-1.00027.07408-1.75153.251-1.26424,2.42065l3.77054,16.35962h.079l4.67907-11.44722c1.17808-2.89535,2.3965-5.82485,3.4299-8.83257h1.21594a42.65373,42.65373,0,0,0,1.562,4.62211l5.89244,15.91217h.07513l4.99041-17.82541c.22775-.87831-.30783-1.0949-1.751-1.20934l-1.52223-.11032v-1.09841c1.32977.03973,2.62322.1098,3.99479.1098,1.37,0,2.66656-.07007,3.99427-.1098v1.09841l-1.21337.11032a1.44967,1.44967,0,0,0-1.44463,1.05868l-5.82433,19.73463c-.30938,1.06466-.7236,2.19537-1.02586,3.69893h-1.90828c-.83536-2.89927-1.75143-5.01663-2.69824-7.55719m26.67305-17.22977c-6.6145,0-9.62573,4.473-9.62573,10.48927,0,6.416,3.12361,13.163,10.65768,13.163,6.35847,0,9.43916-4.76421,9.43916-11.51575,0-7.25988-3.39058-12.13647-10.47111-12.13647m-13.69554,11.84629c0-7.55574,5.47863-13.38616,14.30821-13.38616,8.14674,0,13.92433,4.40138,13.92433,12.53615,0,7.89174-6.38922,14.1979-14.72151,14.1979C167.94335,134.97447,162.15885,129.83989,162.15885,121.62659Zm59.8023-8.24509a6.21164,6.21164,0,0,1,.34364-2.75521c.22218-.36686.67768-.47719,1.59932-.55127l1.59674-.11032v-1.09841c-1.10955.03973-2.32736.1098-3.5397.1098-1.22348,0-2.40207-.07007-3.62494-.1098l-9.96328,20.38754-10.04388-20.38754c-1.18365.03973-2.40558.1098-3.626.1098-1.21131,0-2.43025-.07007-3.61339-.1098v1.09841l1.678.11032c.91255.07408,1.36806.18441,1.59829.55127a6.36169,6.36169,0,0,1,.33715,2.75521v16.45839a6.34816,6.34816,0,0,1-.33715,2.75067c-.23023.36934-.68573.47315-1.59829.5492l-1.678.10784v1.099c1.52781-.03426,3.046-.10237,4.42212-.10237,1.51965,0,2.89029.06811,4.56721.10237v-1.099l-1.67692-.10784c-.91916-.07605-1.37064-.17987-1.59932-.5492a6.19011,6.19011,0,0,1-.34374-2.75067V113.19762h.07409l10.54221,21.51887h.76994c.67779-1.54493,1.32379-3.15488,2.04636-4.66l6.7792-13.85569c.49224-.99016,1.02535-2.02314,1.59426-3.00318h.0711v16.64228a6.2764,6.2764,0,0,1-.33714,2.75067c-.22981.36934-.68429.47315-1.59777.5492l-1.29654.10784v1.099c1.44668-.06357,3.23144-.10237,5.1064-.10237,1.75,0,3.54124.0388,5.51692.10237v-1.099l-1.824-.10784c-.92164-.03571-1.37714-.17987-1.59932-.5492a6.19842,6.19842,0,0,1-.34364-2.75067V113.38151m9.94657,16.45839a6.30438,6.30438,0,0,1-.33807,2.75067c-.22527.36934-.68428.47315-1.60592.5492l-1.367.10784v1.099c1.367-.03426,2.63282-.10237,4.0759-.10237,2.35976,0,5.36388.06811,8.297.10237,2.81464.04076,5.82587-.06357,7.50176-.10237a31.15391,31.15391,0,0,1,.60215-6.01834h-1.33783c-.2585,2.205-.75229,3.81492-1.32616,4.10768-.68377.36727-4.55813.47367-7.68474.47367a13.6953,13.6953,0,0,1-3.19864-.28874V122.24432c1.177-.10474,2.59144-.10474,4.416-.10474,2.32334,0,3.62091.143,4.035.44137.18843.1129.26862.44137.30133.914l.19,2.16369h1.14784c-.04231-1.31305-.12094-2.70887-.12094-4.0663,0-1.35949.07863-2.75273.12094-4.2568h-1.14784l-.19,1.90714c-.03271.47925-.1129.8037-.30133.94982-.41412.26108-1.7117.40566-4.035.40566-1.82459,0-3.19822-.03024-4.416-.11032v-9.78692a13.7846,13.7846,0,0,1,3.19864-.29484c2.4352,0,5.44086.03985,7.4574.77.30236.10835.34013.51144.34013.98665v2.38381h1.32926a23.72261,23.72261,0,0,1,.61979-5.57037c-1.488-.07007-3.19864-.1098-4.90827-.1098-2.17277,0-5.67573.1098-8.98778.1098-2.16617,0-4.341-.07007-6.43463-.1098v1.09841l1.823.11032c.92164.04035,1.38065.18441,1.60592.55127a6.31783,6.31783,0,0,1,.33807,2.75521v16.45839m23.0637,0a6.3104,6.3104,0,0,1-.34158,2.75067c-.22373.36934-.6752.47315-1.59127.5492l-1.68754.10784v1.099c1.53636-.03426,3.05508-.10237,4.43315-.10237,1.51924,0,2.88977.06811,4.55761.10237v-1.099l-1.66784-.10784c-.92256-.07605-1.37053-.17987-1.60933-.5492a6.28482,6.28482,0,0,1-.34013-2.75067V112.93261H256.8l17.93366,21.45478,3.42288.58708c-.04128-.44147-.1129-.9141-.1129-1.353v-20.24a6.23734,6.23734,0,0,1,.34013-2.75521c.23229-.36686.68687-.47719,1.60087-.55127l1.6729-.11032v-1.09841c-1.6729.03973-3.04147.1098-4.56917.1098-1.36352,0-2.88781-.07007-4.41809-.1098v1.09841l1.68095.11032c.91555.07408,1.37363.18441,1.60087.55127a6.34017,6.34017,0,0,1,.34158,2.75521v17.12554h-.12084L257.9872,108.86631c-.68377.03973-1.37714.1098-2.05885.1098-1.37053,0-2.88977-.07007-4.57731-.1098v1.09841l1.68754.11032c.91607.07408,1.36754.18441,1.59127.55127a6.32381,6.32381,0,0,1,.34158,2.75521v16.45839m30.233-12.83293a31.775,31.775,0,0,0,4.91086-8.28585l-.49586-.48068c-1.2244.36882-2.44284.80771-3.70047,1.09892a16.79714,16.79714,0,0,1-2.9649,8.1811l.571.36428,1.6794-.87778m22.47167-2.0478a24.48406,24.48406,0,0,1,.54012-5.17885,18.44628,18.44628,0,0,0-6.89313-1.53988c-4.5641,0-9.741,2.60661-9.741,8.29286,0,3.80986,2.35967,5.60628,8.33115,6.26983,3.8789.43538,6.69963,1.432,6.69963,4.91084,0,3.6335-3.3911,5.64809-6.81243,5.64809-3.00721,0-6.01442-1.39324-6.19883-2.93115l-.31093-2.464h-1.21481a31.97831,31.97831,0,0,1-.26356,5.61031,16.77425,16.77425,0,0,0,6.50666,1.39726c5.67274,0,11.49253-3.00566,11.49253-9.275,0-4.17878-3.3911-5.46666-8.75341-6.0139-4.75865-.52144-6.27942-2.05936-6.27942-4.54956,0-3.63093,2.97-5.35572,5.62836-5.35572a8.76086,8.76086,0,0,1,4.15206.88025c1.40779.84454,1.56,1.21285,1.6729,2.20146l.23374,2.09713h1.21038M133.768,72.41891v8.91215c.67975.03074,1.5601.0711,2.70186.0711,3.31308,0,6.24114-1.32224,6.24114-4.95172,0-3.518-2.55325-4.3278-5.75137-4.3278a13.62175,13.62175,0,0,0-3.19162.29626m0,21.88915a13.1987,13.1987,0,0,0,3.19162.29586c4.23214,0,6.89013-2.34913,6.89013-6.27086,0-4.03462-2.658-5.64808-7.5351-5.64808-1.0657,0-1.8669.03932-2.54665.07511Zm-3.61885-19.138a6.2726,6.2726,0,0,0-.34416-2.75118c-.23074-.36881-.6848-.47964-1.59829-.55373l-1.37311-.1099V70.65583c2.09816.03932,4.26887.10989,5.48534.10989,2.205,0,4.33739-.07057,7.345-.10989,3.54134-.07255,6.81149,1.17756,6.81149,5.06255,0,3.34125-3.23135,5.49886-6.35847,5.97448V81.772c3.88488.11032,7.65542,1.65071,7.65542,5.9362,0,3.59924-2.81712,8.65374-11.14838,8.43651-1.40934-.03427-2.7839-.1129-4.15247-.1129-1.4114,0-2.78193.07862-4.149.1129v-.84548l.99016-.36583c.67666-.25551.8364-1.3953.8364-2.38288Zm52.22541-2.75118c.23033-.36881.68377-.513,1.59829-.55373l1.8316-.1099V70.65583c-1.97619.0711-3.76548.10989-5.51692.10989-1.869,0-3.65775-.03879-5.64054-.10989v1.09944l1.83109.1099c.91462.04076,1.3691.18493,1.60035.55373a6.33241,6.33241,0,0,1,.34013,2.75118V91.63551a6.37732,6.37732,0,0,1-.34013,2.75273c-.23125.36676-.68573.50638-1.60035.54518l-2.85541.072a2.72984,2.72984,0,0,1-1.98733-.914l-8.63258-10.86067c3.69046-.69595,7.41467-3.07872,7.41467-7.073,0-2.63891-1.59024-5.61433-7.67916-5.502-2.21209.03932-4.41655.10989-6.66733.10989-2.24388,0-4.45535-.07057-6.46941-.10989v1.09944l1.56052.1099c.91761.07409,1.37053.18493,1.59983.55373a6.211,6.211,0,0,1,.34065,2.75118V91.63551a6.25446,6.25446,0,0,1-.34065,2.75273c-.2293.36676-.68222.50638-1.59983.54518l-1.82408.11135v1.1c1.97474-.07358,3.76456-.1129,5.63291-.1129,1.75152,0,3.54082.03932,5.517.1129v-1.1l-1.82449-.11135c-.91307-.0388-1.37466-.17842-1.60087-.54518a6.27284,6.27284,0,0,1-.34013-2.75273V72.49859a14.98692,14.98692,0,0,1,3.88344-.44849c2.96429,0,6.00874,1.09893,6.00874,5.065,0,2.70939-2.277,4.6962-4.94862,5.13757a14.91656,14.91656,0,0,1-3.34424.137l-.23074.44694c.6459.76994,1.37053,1.46176,1.98228,2.271l6.99642,9.05475c.49885.65859,1.07117,1.28292,1.56506,1.98228h2.925c2.32995,0,7.63634-.1129,8.72783-.1129,1.75144,0,3.54073.03932,5.51692.1129v-1.1l-1.8316-.11135c-.91452-.0388-1.368-.17842-1.59829-.54518a6.48252,6.48252,0,0,1-.33558-2.75273V75.17009A6.43669,6.43669,0,0,1,182.37457,72.41891Zm27.2913,20.0208a3.26473,3.26473,0,0,1-.18947,1.499c-.22476.6652-2.39547,1.28488-5.32456,1.28488-7.8389,0-12.25484-5.23882-12.25484-12.53862,0-6.5272,3.76549-11.108,10.99669-11.108a16.95292,16.95292,0,0,1,5.32548.65911c1.79033.62371,3.16293,1.20976,3.16293,2.934v1.945h1.1821a22.14354,22.14354,0,0,1,.75736-5.57243,30.97821,30.97821,0,0,0-9.43576-1.50562c-9.17064,0-16.06222,5.20465-16.06222,13.27327,0,9.20088,6.85123,13.45314,15.33717,13.45314a44.05048,44.05048,0,0,0,10.00663-1.86886V88.73819c0-1.06424,0-1.21542.42124-1.361l1.101-.3613-.14664-.92111c-1.56608.03932-3.12609.07213-4.68609.07213-1.51872,0-3.08326-.03282-4.6443-.07213v1.09851l3.1649.258c.98655.07151,1.28838.44137,1.28838,1.28693v3.70152m96.59725,2.60506v1.1c-1.9802-.07358-3.77106-.1129-5.51547-.1129-1.86742,0-3.65208.03932-5.09227.1129v-1.1l1.28189-.11135c.91606-.07306,1.37157-.17842,1.60241-.54518a6.21061,6.21061,0,0,0,.34054-2.75273V74.98673h-.06852c-.58243.98706-1.10954,2.013-1.60634,3.00669l-6.77621,13.86023c-.72463,1.50665-1.37208,3.12-2.05234,4.65494H287.618L277.07531,74.98673h-.07812V91.63551a6.30729,6.30729,0,0,0,.34312,2.75273c.22424.36676.68831.47212,1.59777.54518l1.67145.11135v1.1c-1.67145-.03427-3.045-.1129-4.56566-.1129-1.37714,0-1.74647.07862-3.26922.1129-1.66433-.03427-3.34228-.1129-5.0545-.1129-1.33122,0-3.00711.07862-5.05945.1129v-1.1l1.78074-.11135c.80317-.0388,1.56661-.28977,1.56661-.73671a8.3,8.3,0,0,0-.80275-2.34306l-1.75-4.21953H252.49587l-1.06466,2.458a20.25733,20.25733,0,0,0-1.33731,3.8139c0,.7719.64745.915,1.82955,1.02741l1.40129.11135v1.1c-1.8215-.03427-3.27118-.1129-4.37671-.1129-1.47734,0-2.927.07862-4.37269.1129-1.97268-.07358-2.13438-.1129-3.88539-.1129-1.86082,0-3.64765.03932-5.63292.1129v-1.1l1.83161-.11135c.90647-.0388,1.3726-.17842,1.59581-.54518a6.3,6.3,0,0,0,.34467-2.75273V83.461c-.45561-.03829-1.4825-.07658-3.16035-.07658h-8.90822c-1.67434,0-2.6968.0383-3.15633.07658v8.1745a6.23439,6.23439,0,0,0,.34364,2.75273c.23033.36676.68377.50638,1.59932.54518l1.82965.11135v1.1c-1.98682-.07358-3.77261-.1129-5.521-.1129-1.86886,0-3.65414.03932-5.63395.1129v-1.1l1.82253-.11135c.91555-.0388,1.37559-.17842,1.60592-.54518a6.37759,6.37759,0,0,0,.33663-2.75273V75.17009a6.33292,6.33292,0,0,0-.33663-2.75118c-.23033-.36881-.69038-.513-1.60592-.55373l-1.82253-.1099V70.65583c1.97981.0711,3.76508.10989,5.63395.10989,1.74843,0,3.53422-.03879,5.521-.10989v1.09944l-1.82965.1099c-.91555.04076-1.369.18493-1.59932.55373a6.19093,6.19093,0,0,0-.34364,2.75118v6.52277c.45953.03932,1.482.07915,3.15633.07915h8.90822c1.67785,0,2.70474-.03983,3.16035-.07915V75.17009a6.25574,6.25574,0,0,0-.34467-2.75118c-.22321-.36881-.68934-.513-1.59581-.55373l-1.83161-.1099V70.65583c1.98527.0711,3.77209.10989,5.63292.10989,1.751,0,3.54928-.03879,5.52351-.10989v1.09944l-1.83006.1099c-.91555.04076-1.36455.18493-1.60035.55373a6.30665,6.30665,0,0,0-.34209,2.75118V91.63551a6.35139,6.35139,0,0,0,.34209,2.75273c.2358.36676,1.60035.54518,1.60035.54518h1.59829a2.68976,2.68976,0,0,0,2.06143-1.79632l6.77013-14.8535c1.1856-2.56522,2.47256-5.27864,3.49944-7.92105h1.228l9.20491,20.83159a26.63614,26.63614,0,0,0,1.22493,2.48865c.40865.70544.82885,1.17756,1.52067,1.25062h1.812c.9171-.07306,1.36352-.17842,1.60231-.54518a6.37732,6.37732,0,0,0,.34013-2.75273V75.17009a6.33241,6.33241,0,0,0-.34013-2.75118c-.23879-.36881-.68522-.47964-1.60231-.55373l-1.67991-.1099V70.65583c1.18262.03932,2.40548.10989,3.62236.10989,1.21843,0,2.42973-.07057,3.61389-.10989l10.05039,20.384,9.97029-20.384c1.21842.03932,2.39352.10989,3.61183.10989,1.22544,0,2.43984-.07057,3.54238-.10989v1.09944l-1.59436.1099c-.913.07409-1.37353.18493-1.60634.55373a6.2843,6.2843,0,0,0-.34168,2.75118V91.63551a6.32874,6.32874,0,0,0,.34168,2.75273c.23281.36676.69337.50638,1.60634.54518Zm-43.493-8.87788-4.79754-10.92517-4.83222,10.92517ZM399.041,81.84353c0,6.00885-3.57251,11.18769-8.178,13.01683a19.92528,19.92528,0,0,1-8.14272,1.28437c-1.52471-.03427-3.20669-.1129-4.91591-.1129-1.71717,0-3.382.07862-5.17286.1129v-.84548l1.17612-.58305a2.3135,2.3135,0,0,0,.95631-2.16565V75.17009a6.43209,6.43209,0,0,0-.34158-2.75118c-.23085-.36881-.6913-.47964-1.60737-.55373l-1.52079-.1099-2.03769.1099c-.90894.07409-1.37053.18493-1.58415.55373a6.03607,6.03607,0,0,0-.34973,2.75118v20.237c0,.44085.07151.92153.10887,1.3564l-3.4204-.58243L346.082,74.73018h-.0806V91.63551a6.27484,6.27484,0,0,0,.34663,2.75273c.2227.36676.68831.47212,1.60437.54518l1.67186.11135v1.1c-1.67186-.03427-3.05354-.1129-4.57423-.1129-1.36754,0-1.73543.07862-3.25715.1129-1.67186-.03427-2.64128-.1129-4.35153-.1129-1.32915,0-3.00711.07862-5.061.1129v-1.1l1.78982-.11135c.80317-.0388,1.56-.28977,1.56-.73671a8.26216,8.26216,0,0,0-.8042-2.34306l-1.74842-4.21953H322.21812l-1.06724,2.458a20.9035,20.9035,0,0,0-1.32626,3.8139c0,.7719.65106.915,1.83121,1.02741l1.40675.11135v1.1c-1.83306-.03427-3.27118-.1129-4.38579-.1129-1.47734,0-2.92754.07862-4.3767.1129v-1.1l1.4119-.11135a2.70881,2.70881,0,0,0,2.05885-1.79632L324.542,78.2836c1.17808-2.56522,2.4741-5.27864,3.501-7.92105h1.2204l9.205,20.83159c.34765.73155.7719,1.72522,1.21831,2.48865.42124.70544.84146,1.17756,1.52574,1.25062l.47873.04283.61978-.04283c.922-.07306,1.37157-.17842,1.60231-.54518a6.26311,6.26311,0,0,0,.3457-2.75273V75.17009a6.21917,6.21917,0,0,0-.3457-2.75118c-.23074-.36881-.68026-.47964-1.60231-.55373l-1.6699-.1099V70.65583c1.6699.03932,3.19771.10989,4.56721.10989.68222,0,1.36249-.07057,2.05379-.10989l18.1963,21.63775h.11279V75.17009a6.01442,6.01442,0,0,0-.35169-2.75118c-.2197-.36881-.67717-.47964-1.59127-.55373l-1.678-.1099V70.65583c1.5278.03932,3.04952.10989,4.41407.10989,1.52172,0,3.24394-.07057,4.92994-.10989,2.5547.03932,4.99052.10989,7.50591.10989,2.50526,0,4.94511-.07057,6.62-.10989C393.21813,70.47844,399.041,74.73018,399.041,81.84353Zm-66.54373,4.32336-4.78887-10.92517-4.84429,10.92517Zm62.47743-3.301c0-9.09758-5.4067-10.74323-12.25442-10.74323a23.28333,23.28333,0,0,0-4.34544.29626V94.23706a23.2786,23.2786,0,0,0,4.34544.29731,14.54,14.54,0,0,0,6.19274-1.06828C393.10327,91.60372,394.97472,87.81863,394.97472,82.86588Zm-47.04954,30.51563a6.07785,6.07785,0,0,1,.34674-2.75521c.22867-.36686.68015-.51092,1.58714-.55127l1.8221-.11032v-1.09841c-1.97227.07151-3.756.1098-5.51155.1098-1.86329,0-3.65414-.03829-5.62837-.1098v1.09841l1.819.11032c.9171.04035,1.37466.18441,1.60541.55127a6.36776,6.36776,0,0,1,.34065,2.75521v6.5208c-.46159.04025-1.48549.07605-3.16644.07605h-8.89552c-1.68095,0-2.70485-.03581-3.16737-.07605v-6.5208a6.2136,6.2136,0,0,1,.34663-2.75521c.22673-.36686.6782-.51092,1.60035-.55127l1.817-.11032v-1.09841c-1.96711.07151-3.76394.1098-5.51547.1098-1.86133,0-3.6431-.03829-5.63342-.1098v1.09841l1.83109.11032c.92112.04035,1.37363.18441,1.60437.55127a6.421,6.421,0,0,1,.33662,2.75521v16.45839a6.40743,6.40743,0,0,1-.33662,2.75067c-.23074.36934-.68325.5135-1.60437.5492l-1.83109.10784v1.099c1.99032-.06357,3.77209-.10237,5.63342-.10237,1.75153,0,3.54836.0388,5.51547.10237v-1.099l-1.817-.10784c-.92215-.03571-1.37362-.17987-1.60035-.5492a6.20042,6.20042,0,0,1-.34663-2.75067v-8.1811c.46252-.0322,1.48642-.06646,3.16737-.06646h8.89552c1.68095,0,2.70485.03426,3.16644.06646v8.1811a6.35428,6.35428,0,0,1-.34065,2.75067c-.23074.36934-.68831.5135-1.60541.5492l-1.819.10784v1.099c1.97423-.06357,3.76507-.10237,5.62837-.10237,1.75557,0,3.53928.0388,5.51155.10237v-1.099l-1.8221-.10784c-.907-.03571-1.35847-.17987-1.58714-.5492a6.06487,6.06487,0,0,1-.34674-2.75067V113.38151m19.01153-3.6012c-6.62007,0-9.63027,4.473-9.63027,10.48927,0,6.416,3.1231,13.163,10.65821,13.163,6.35794,0,9.4377-4.76421,9.4377-11.51575,0-7.25988-3.38408-12.13647-10.46564-12.13647m-13.69854,11.84629c0-7.55574,5.48122-13.38616,14.30821-13.38616,8.14478,0,13.93031,4.40138,13.93031,12.53615,0,7.89174-6.39624,14.1979-14.72347,14.1979C359.01969,134.97447,353.23817,129.83989,353.23817,121.62659Zm47.01623-6.66744a24.3962,24.3962,0,0,1,.53206-5.17885,18.44323,18.44323,0,0,0-6.89-1.53988c-4.58331,0-9.74616,2.60661-9.74616,8.29286,0,3.80986,2.35522,5.60628,8.32919,6.26983,3.88292.43538,6.69965,1.432,6.69965,4.91084,0,3.6335-3.38915,5.64809-6.80945,5.64809-3.00917,0-6.01638-1.39324-6.20781-2.93115l-.3004-2.464h-1.22637a32.79555,32.79555,0,0,1-.255,5.61031,16.69972,16.69972,0,0,0,6.5011,1.39726c5.66767,0,11.49954-3.00566,11.49954-9.275,0-4.17878-3.39615-5.46666-8.75538-6.0139-4.75668-.52144-6.27942-2.05936-6.27942-4.54956,0-3.63093,2.96985-5.35572,5.62837-5.35572a8.71315,8.71315,0,0,1,4.147.88025c1.41286.84454,1.564,1.21285,1.66784,2.20146l.23281,2.09713h1.23247m11.41595-4.25824a15.44123,15.44123,0,0,1,3.892-.44147c3.75794,0,6.16342,1.65431,6.16342,5.45808a5.38434,5.38434,0,0,1-5.48823,5.47018,8.20277,8.20277,0,0,1-2.50836-.3714l.38,1.32327a12.29581,12.29581,0,0,0,2.28257.21919c5.01973,0,9.13741-3.297,9.13741-7.88431,0-4.14844-4.1923-5.68223-7.8838-5.60814-2.05173.03973-4.25577.1098-6.46877.1098-2.17175,0-4.34452-.07007-6.84876-.1098v1.09841l1.71923.11032c.94021.07408,1.35846.251,1.63059.62588a5.97106,5.97106,0,0,1,.38089,2.6806v16.45839a6.2506,6.2506,0,0,1-.3457,2.75067c-.22868.36934-.68625.5135-1.6053.5492l-1.815.10784v1.099c1.97319-.06357,3.766-.10237,5.6263-.10237,1.75153,0,3.53734.0388,5.51753.10237v-1.099l-1.823-.10784c-.91606-.03571-1.36754-.17987-1.60634-.5492a6.43959,6.43959,0,0,1-.33662-2.75067v-19.139m23.19269,2.6806a6.327,6.327,0,0,1,.34261-2.75521c.23188-.36686.68336-.51092,1.60345-.55127l1.824-.11032v-1.09841c-1.97918.07151-3.77.1098-5.51248.1098-1.87134,0-3.65311-.03829-5.63745-.1098v1.09841l1.82511.11032c.91608.04035,1.36754.18441,1.59932.55127a6.33127,6.33127,0,0,1,.34168,2.75521v16.45839a6.31785,6.31785,0,0,1-.34168,2.75067c-.23178.36934-.68324.5135-1.59932.5492l-1.82511.10784v1.099c1.98434-.06357,3.76611-.10237,5.63745-.10237,1.74245,0,3.5333.0388,5.51248.10237v-1.099l-1.824-.10784c-.92009-.03571-1.37157-.17987-1.60345-.5492a6.31362,6.31362,0,0,1-.34261-2.75067V113.38151m15.50548,16.45839a6.2934,6.2934,0,0,1-.33662,2.75067c-.23879.36934-.69533.5135-1.60437.5492l-1.825.10784v1.099c1.98424-.06357,3.766-.10237,5.6354-.10237,1.74945,0,3.53225.0388,5.51453.10237v-1.099l-1.82408-.10784c-.912-.03571-1.36856-.17987-1.60334-.5492a6.28849,6.28849,0,0,1-.33765-2.75067V114.32832a36.17414,36.17414,0,0,1,.15118-3.66776H460.035c1.13773,0,1.45022.33105,1.52275,1.21285l.15015,2.89586H462.892c0-1.98331.07863-3.9983.27109-5.903-2.73911,0-5.48317.1098-8.22032.1098h-5.52754c-2.74014,0-5.47822-.1098-8.21536-.1098.18947,1.90467.26511,3.91966.26511,5.903H442.649l.15013-2.89586c.07564-.8818.37594-1.21285,1.52079-1.21285h5.90142c.10681,1.10305.14716,2.272.14716,3.66776v15.51157m59.07922-1.90777c-.23074,2.01561-.49377,4.47753-.80317,6.31214-1.6729.0388-4.673.14313-7.49073.10237-3.42742-.03426-5.94074-.10237-8.301-.10237-1.14277,0-3.22784.054-4.3988.0907v.01167c-.09277,0-.19256-.00155-.28327-.00557-.05139.004-.14509.00557-.19246.00557l-.006-.00961c-1.51275-.03373-3.02735-.09276-4.5663-.09276-1.34432,0-3.01412.06811-5.07607.10237v-1.099l1.79787-.10784c.79409-.03571,1.55494-.29122,1.55494-.73011a8.23066,8.23066,0,0,0-.80317-2.35317l-1.74647-4.20891H468.17877l-1.0692,2.45346a20.666,20.666,0,0,0-1.34133,3.81843c0,.76385.649.91245,1.836,1.02029l1.39984.10784v1.099c-1.82005-.03426-3.26819-.10237-4.37774-.10237-1.47734,0-2.91846.06811-4.36567.10237v-1.099l1.40583-.10784a2.69652,2.69652,0,0,0,2.05391-1.7923l6.7701-14.85391c1.18212-2.56676,2.47813-5.28523,3.50306-7.918H475.218l9.207,20.82849c.34364.72608.76488,1.71727,1.21636,2.48917.41515.69739.83939,1.17054,1.52068,1.2466l1.292.10784a8.81529,8.81529,0,0,0,2.342-.326,2.3175,2.3175,0,0,0,.95332-2.16163V113.38151a6.33678,6.33678,0,0,0-.34063-2.75521c-.22973-.36686-.68625-.51092-1.59933-.55127l-1.83109-.11032v-1.09841c1.98331.07151,3.77106.1098,5.64354.1098,1.74142,0,3.53216-.03829,5.51846-.1098v1.09841l-1.83306.11032c-.91513.04035-1.37157.18441-1.5923.55127a6.19052,6.19052,0,0,0-.35169,2.75521v19.137a13.70264,13.70264,0,0,0,3.19152.28874c3.12919,0,7.77494-.10639,8.4169-.6878a6.54113,6.54113,0,0,0,.80523-2.35213l.45045-1.83522Zm-30.99982-3.55487-4.796-10.92764-4.83429,10.92764Z" transform="translate(-24.91357 -66.6815)"/></svg>